<svg width="86" height="87" viewBox="0 0 86 87" fill="none" xmlns="http://www.w3.org/2000/svg">
<path fill-rule="evenodd" clip-rule="evenodd" d="M0 24.2554C0 11.0005 10.7452 0.255371 24 0.255371H62C75.2548 0.255371 86 11.0005 86 24.2554V62.2554C86 75.5103 75.2548 86.2554 62 86.2554H24C10.7452 86.2554 0 75.5103 0 62.2554V24.2554ZM38.0797 43.2561L19.9793 61.3564L25.6098 66.9868L39.7292 52.8674V65.9065H35.3232V72.8354H52.0977V65.9065H47.6919V52.8682L61.8105 66.9868L67.441 61.3564L49.3405 43.2561L67.4426 25.1541L61.8121 19.5237L47.6919 33.6438V20.6038H52.0971V13.6748H35.3227V20.6038H39.7292V33.6448L25.6082 19.5237L19.9778 25.1541L38.0797 43.2561ZM14.1292 39.2229H24.6342L28.6152 43.2559L24.6342 47.2891H14.1292V39.2229ZM61.3659 47.2891H71.8708V39.2231H61.3659L57.3848 43.2561L61.3659 47.2891Z" fill="white"/>
</svg>
