<svg width="86" height="87" viewBox="0 0 86 87" fill="none" xmlns="http://www.w3.org/2000/svg">
<path fill-rule="evenodd" clip-rule="evenodd" d="M0 24.1621C0 10.9072 10.7452 0.162109 24 0.162109H62C75.2548 0.162109 86 10.9072 86 24.1621V62.1621C86 75.417 75.2548 86.1621 62 86.1621H24C10.7452 86.1621 0 75.417 0 62.1621V24.1621ZM38.0797 43.1628L19.9793 61.2632L25.6098 66.8936L39.7292 52.7742V65.8132H35.3232V72.7422H52.0977V65.8132H47.6919V52.7749L61.8105 66.8936L67.441 61.2632L49.3405 43.1628L67.4426 25.0608L61.8121 19.4304L47.6919 33.5505V20.5105H52.0971V13.5815H35.3227V20.5105H39.7292V33.5515L25.6082 19.4304L19.9778 25.0608L38.0797 43.1628ZM14.1292 39.1296H24.6342L28.6152 43.1626L24.6342 47.1958H14.1292V39.1296ZM61.3659 47.1958H71.8708V39.1299H61.3659L57.3848 43.1628L61.3659 47.1958Z" fill="#001871"/>
</svg>
