<svg width="791" height="538" viewBox="0 0 791 538" fill="none" xmlns="http://www.w3.org/2000/svg">
<rect width="791" height="538" fill="#FF9E43"/>
<path d="M270.109 265.894H287.575C289.771 265.894 291.512 265.397 292.796 264.403C294.081 263.367 294.723 261.937 294.723 260.114C294.723 258.291 294.081 256.882 292.796 255.887C291.512 254.851 289.771 254.333 287.575 254.333H268.431L273.714 248.553V292H261.967V245.383H289.129C292.61 245.383 295.655 246.004 298.266 247.248C300.876 248.491 302.907 250.21 304.357 252.406C305.807 254.603 306.533 257.172 306.533 260.114C306.533 263.014 305.807 265.563 304.357 267.759C302.907 269.955 300.876 271.675 298.266 272.918C295.655 274.12 292.61 274.721 289.129 274.721H270.109V265.894ZM277.63 270.183H290.869L308.024 292H294.412L277.63 270.183ZM331.364 292.994C327.137 292.994 323.346 292.207 319.989 290.633C316.674 289.058 314.064 286.862 312.158 284.044C310.252 281.226 309.299 277.932 309.299 274.161C309.299 270.473 310.21 267.241 312.033 264.465C313.857 261.688 316.364 259.513 319.554 257.938C322.786 256.364 326.433 255.576 330.494 255.576C334.638 255.576 338.201 256.488 341.185 258.311C344.168 260.135 346.468 262.704 348.084 266.019C349.7 269.334 350.508 273.229 350.508 277.704H318.56V270.432H344.168L340.004 273.042C339.879 271.095 339.403 269.458 338.574 268.132C337.787 266.765 336.73 265.729 335.404 265.024C334.078 264.278 332.504 263.905 330.68 263.905C328.691 263.905 326.972 264.299 325.521 265.086C324.071 265.874 322.931 266.972 322.103 268.381C321.315 269.79 320.922 271.426 320.922 273.291C320.922 275.653 321.44 277.663 322.476 279.32C323.553 280.978 325.086 282.241 327.075 283.112C329.106 283.982 331.571 284.417 334.472 284.417C337.124 284.417 339.776 284.065 342.428 283.36C345.08 282.614 347.462 281.578 349.576 280.252V287.773C347.172 289.431 344.417 290.715 341.309 291.627C338.243 292.539 334.928 292.994 331.364 292.994ZM355.638 244.14H367.137V292H355.638V244.14ZM406.152 292L404.598 279.134L406.276 274.285L404.598 269.499L406.152 256.571H418.148L415.973 274.285L418.148 292H406.152ZM409.011 274.285C408.39 278.056 407.209 281.351 405.468 284.168C403.728 286.945 401.532 289.12 398.88 290.695C396.228 292.228 393.244 292.994 389.929 292.994C386.448 292.994 383.382 292.207 380.73 290.633C378.12 289.058 376.068 286.882 374.577 284.106C373.085 281.288 372.339 278.015 372.339 274.285C372.339 270.556 373.085 267.303 374.577 264.527C376.068 261.709 378.12 259.513 380.73 257.938C383.382 256.364 386.448 255.576 389.929 255.576C393.244 255.576 396.228 256.364 398.88 257.938C401.532 259.472 403.728 261.626 405.468 264.403C407.25 267.179 408.431 270.473 409.011 274.285ZM384.024 274.285C384.024 276.192 384.418 277.891 385.205 279.382C385.993 280.833 387.07 281.993 388.437 282.863C389.846 283.692 391.462 284.106 393.286 284.106C395.109 284.106 396.829 283.692 398.445 282.863C400.102 281.993 401.552 280.833 402.796 279.382C404.039 277.891 404.971 276.192 405.593 274.285C404.971 272.379 404.039 270.701 402.796 269.251C401.552 267.759 400.102 266.599 398.445 265.77C396.829 264.9 395.109 264.465 393.286 264.465C391.462 264.465 389.846 264.9 388.437 265.77C387.07 266.599 385.993 267.759 385.205 269.251C384.418 270.701 384.024 272.379 384.024 274.285ZM434.893 303.25C432.407 303.25 430.19 302.939 428.243 302.318C426.337 301.696 424.472 300.764 422.649 299.521V291.378C424.513 292.58 426.254 293.43 427.87 293.927C429.527 294.466 431.33 294.735 433.277 294.735C435.018 294.735 436.53 294.362 437.815 293.616C439.141 292.87 440.239 291.503 441.109 289.514L455.281 256.571H467.525L450.184 293.119C449.024 295.605 447.635 297.594 446.019 299.086C444.403 300.578 442.642 301.634 440.736 302.256C438.871 302.919 436.924 303.25 434.893 303.25ZM436.261 289.203L420.908 256.571H433.588L447.387 289.203H436.261ZM468.28 276.772H480.152C480.359 278.181 481.001 279.424 482.079 280.501C483.156 281.578 484.586 282.407 486.368 282.987C488.191 283.567 490.304 283.858 492.707 283.858C496.147 283.858 498.84 283.381 500.788 282.428C502.777 281.475 503.771 280.128 503.771 278.388C503.771 277.062 503.191 276.047 502.031 275.342C500.912 274.596 498.799 274.058 495.691 273.726L486.678 272.794C480.421 272.172 475.884 270.722 473.066 268.443C470.29 266.164 468.902 263.056 468.902 259.119C468.902 256.012 469.813 253.36 471.636 251.163C473.501 248.967 476.091 247.289 479.406 246.129C482.762 244.968 486.678 244.388 491.154 244.388C495.587 244.388 499.503 245.031 502.901 246.315C506.299 247.6 509.013 249.382 511.044 251.661C513.074 253.94 514.172 256.592 514.338 259.617H502.466C502.3 258.373 501.72 257.317 500.726 256.447C499.773 255.535 498.467 254.831 496.81 254.333C495.194 253.795 493.225 253.525 490.905 253.525C487.797 253.525 485.311 253.981 483.446 254.893C481.623 255.763 480.711 257.027 480.711 258.684C480.711 259.927 481.25 260.901 482.327 261.606C483.446 262.31 485.414 262.828 488.232 263.16L497.742 264.216C502.093 264.672 505.574 265.397 508.184 266.392C510.795 267.386 512.68 268.754 513.841 270.494C515.001 272.234 515.581 274.431 515.581 277.083C515.581 280.273 514.607 283.07 512.66 285.474C510.753 287.836 508.06 289.68 504.579 291.006C501.14 292.331 497.121 292.994 492.521 292.994C487.756 292.994 483.57 292.311 479.965 290.943C476.402 289.576 473.584 287.691 471.512 285.287C469.482 282.842 468.404 280.004 468.28 276.772ZM588.491 245.383V292H577.303V249.485L580.037 249.672L561.08 292H549.084L530.126 249.796L532.861 249.547V292H521.673V245.383H539.76L557.475 286.157H552.751L570.403 245.383H588.491ZM594.688 276.772H606.56C606.767 278.181 607.409 279.424 608.486 280.501C609.564 281.578 610.993 282.407 612.775 282.987C614.599 283.567 616.712 283.858 619.115 283.858C622.555 283.858 625.248 283.381 627.196 282.428C629.185 281.475 630.179 280.128 630.179 278.388C630.179 277.062 629.599 276.047 628.439 275.342C627.32 274.596 625.207 274.058 622.099 273.726L613.086 272.794C606.829 272.172 602.292 270.722 599.474 268.443C596.698 266.164 595.309 263.056 595.309 259.119C595.309 256.012 596.221 253.36 598.044 251.163C599.909 248.967 602.499 247.289 605.814 246.129C609.17 244.968 613.086 244.388 617.561 244.388C621.995 244.388 625.911 245.031 629.309 246.315C632.707 247.6 635.421 249.382 637.451 251.661C639.482 253.94 640.58 256.592 640.746 259.617H628.874C628.708 258.373 628.128 257.317 627.133 256.447C626.18 255.535 624.875 254.831 623.218 254.333C621.601 253.795 619.633 253.525 617.313 253.525C614.205 253.525 611.719 253.981 609.854 254.893C608.031 255.763 607.119 257.027 607.119 258.684C607.119 259.927 607.658 260.901 608.735 261.606C609.854 262.31 611.822 262.828 614.64 263.16L624.15 264.216C628.501 264.672 631.982 265.397 634.592 266.392C637.203 267.386 639.088 268.754 640.248 270.494C641.409 272.234 641.989 274.431 641.989 277.083C641.989 280.273 641.015 283.07 639.067 285.474C637.161 287.836 634.468 289.68 630.987 291.006C627.548 292.331 623.528 292.994 618.929 292.994C614.163 292.994 609.978 292.311 606.373 290.943C602.81 289.576 599.992 287.691 597.92 285.287C595.889 282.842 594.812 280.004 594.688 276.772Z" fill="#001871"/>
<path fill-rule="evenodd" clip-rule="evenodd" d="M146.081 250C146.081 236.745 156.826 226 170.081 226H208.081C221.336 226 232.081 236.745 232.081 250V288C232.081 301.255 221.336 312 208.081 312H170.081C156.826 312 146.081 301.255 146.081 288V250ZM184.161 269.001L166.06 287.101L171.691 292.731L185.81 278.612V291.651H181.404V298.58H198.179V291.651H193.773V278.613L207.892 292.731L213.522 287.101L195.422 269.001L213.524 250.899L207.893 245.268L193.773 259.388V246.348H198.178V239.419H181.404V246.348H185.81V259.389L171.689 245.268L166.059 250.899L184.161 269.001ZM160.21 264.968H170.715L174.696 269L170.715 273.034H160.21V264.968ZM207.447 273.034H217.952V264.968H207.447L203.466 269.001L207.447 273.034Z" fill="#001871"/>
</svg>
