<svg width="273" height="187" viewBox="0 0 273 187" fill="none" xmlns="http://www.w3.org/2000/svg">
<path d="M4.64519 116.147C2.07973 110.036 4.94623 102.985 11.0477 100.398L39.9028 88.1615C42.698 86.9762 45.8348 86.8961 48.681 87.9373L62.9971 93.1747L73.5289 97.8561C76.3106 99.0926 78.5157 101.346 79.6962 104.158L97.4326 146.404C99.9981 152.515 97.1316 159.566 91.0301 162.153L45.1439 181.612C39.0424 184.199 32.0164 181.343 29.4509 175.232L4.64519 116.147Z" fill="#FFDFC1"/>
<path d="M22.2228 106.321L39.9955 98.7841C42.0496 97.9131 44.3519 97.8368 46.4546 98.5707L52.5751 100.707L62.0533 104.58L70.192 108.165L85.1626 143.824C87.0867 148.407 84.9368 153.696 80.3607 155.636L48.5841 169.111C44.008 171.052 38.7385 168.91 36.8144 164.326L17.4209 118.133C15.4968 113.55 17.6467 108.261 22.2228 106.321Z" fill="#FF9D43" stroke="#001871" stroke-width="6"/>
<path d="M52.6376 100.729L52.6824 100.745L52.7265 100.759L55.6756 101.707L59.1454 103.125L63.6918 105.24L69.4884 108.399L70.4594 108.928L71.7393 112.405L53.4109 120.178L43.9455 97.6318L52.6376 100.729Z" fill="#FF9D43" stroke="#001871" stroke-width="6"/>
<rect width="20.8985" height="6.29151" rx="3.14575" transform="matrix(0.920643 -0.390405 0.387099 0.922038 27.4691 129.122)" fill="#001871"/>
<rect width="38.314" height="6.29151" rx="3.14575" transform="matrix(0.920643 -0.390405 0.387099 0.922038 32.6106 141.368)" fill="#001871"/>
<rect width="38.314" height="6.29151" rx="3.14575" transform="matrix(0.920643 -0.390405 0.387099 0.922038 37.7521 153.615)" fill="#001871"/>
<rect x="72.3932" y="45.4729" width="125.296" height="125.925" rx="18" fill="#FFDFC1"/>
<rect x="89.3149" y="63.1641" width="91.4524" height="91.9417" rx="5" fill="#FF9D43" stroke="#001871" stroke-width="6"/>
<rect x="131" y="83" width="8" height="51" rx="4" fill="#001871"/>
<rect x="163" y="104" width="8" height="56" rx="4" transform="rotate(90 163 104)" fill="#001871"/>
<rect width="87.7494" height="86.7069" rx="18" transform="matrix(0.950441 0.310905 -0.308102 0.951353 189.599 0)" fill="#FFDFC1"/>
<rect x="1.92702" y="3.78677" width="62.2496" height="61.4387" rx="5" transform="matrix(0.950441 0.310905 -0.308102 0.951353 197.16 11.7819)" fill="#FF9D43" stroke="#001871" stroke-width="6"/>
<path d="M179.176 73.324C179.493 72.3458 180.263 71.5827 181.242 71.2758L230.491 55.847C234.596 54.5609 238.989 56.7649 240.427 60.8326L243.63 69.8915C244.217 71.5532 244.241 73.3612 243.699 75.0356L239.505 87.9857C238.144 92.189 233.636 94.4829 229.437 93.1093L181.218 77.3359C179.549 76.7901 178.635 74.9939 179.176 73.324Z" fill="#001871"/>
<ellipse cx="6.82496" cy="6.74387" rx="6.82496" ry="6.74387" transform="matrix(0.950441 0.310905 -0.308102 0.951353 203.771 27.4426)" fill="#001871"/>
</svg>
