<svg width="551" height="452" viewBox="0 0 551 452" fill="none" xmlns="http://www.w3.org/2000/svg">
<rect x="69" y="86" width="413" height="290" rx="22" fill="#D5D6DE" stroke="black" stroke-width="4"/>
<rect x="206" y="165" width="225" height="55" rx="13" fill="white" stroke="black" stroke-width="2"/>
<rect x="206" y="234" width="225" height="104" rx="13" fill="white" stroke="black" stroke-width="2"/>
<g clip-path="url(#clip0_9_10)">
<path d="M152.134 110.992C150.038 108.982 146.65 108.982 144.554 110.992L141.673 113.746L151.043 122.733L153.923 119.97C156.019 117.959 156.019 114.71 153.923 112.699L152.134 110.992ZM123.499 131.187C122.915 131.747 122.466 132.436 122.207 133.198L119.374 141.349C119.097 142.139 119.317 143.011 119.929 143.607C120.542 144.204 121.451 144.406 122.284 144.14L130.782 141.423C131.567 141.175 132.285 140.743 132.878 140.183L148.889 124.817L139.51 115.821L123.499 131.187ZM116.188 114.875C111.115 114.875 107 118.822 107 123.688V147.187C107 152.053 111.115 156 116.188 156H140.688C145.76 156 149.875 152.053 149.875 147.187V138.375C149.875 136.75 148.506 135.437 146.812 135.437C145.119 135.437 143.75 136.75 143.75 138.375V147.187C143.75 148.812 142.381 150.125 140.688 150.125H116.188C114.494 150.125 113.125 148.812 113.125 147.187V123.688C113.125 122.063 114.494 120.75 116.188 120.75H125.375C127.069 120.75 128.438 119.437 128.438 117.813C128.438 116.188 127.069 114.875 125.375 114.875H116.188Z" fill="black"/>
</g>
<path d="M231 203C231 196.59 228.128 180.3 236.611 178.111C240.687 177.059 247.985 175.733 252 177.667C258.206 180.655 258.998 188.164 262 193.667C263.812 196.989 266.214 201.266 267 205C267.607 207.883 274.016 207 275.944 207C282.985 207 288.662 204.494 295.222 202.444C299.938 200.971 301.721 198.414 305.556 195.5C309.94 192.168 318.173 191.111 323.611 191.111C330.677 191.111 332.403 196.047 336.444 200.444C343.998 208.664 357.691 206.739 365 199C371.22 192.414 383.205 175.094 391.778 187.444C394.161 190.878 396.521 202.115 400.889 203.444C408.205 205.671 414.241 200.759 419 196" stroke="black" stroke-width="3" stroke-linecap="round"/>
<path d="M231 203C231 196.59 228.128 180.3 236.611 178.111C240.687 177.059 247.985 175.733 252 177.667C258.206 180.655 258.998 188.164 262 193.667C263.812 196.989 266.214 201.266 267 205C267.607 207.883 274.016 207 275.944 207C282.985 207 288.662 204.494 295.222 202.444C299.938 200.971 301.721 198.414 305.556 195.5C309.94 192.168 318.173 191.111 323.611 191.111C330.677 191.111 332.403 196.047 336.444 200.444C343.998 208.664 357.691 206.739 365 199C371.22 192.414 383.205 175.094 391.778 187.444C394.161 190.878 396.521 202.115 400.889 203.444C408.205 205.671 414.241 200.759 419 196" stroke="black" stroke-width="3" stroke-linecap="round"/>
<path d="M419 273.32C419 266.909 421.872 250.62 413.389 248.431C409.313 247.379 402.015 246.053 398 247.986C391.794 250.974 391.002 258.483 388 263.986C386.188 267.309 383.786 271.585 383 275.32C382.393 278.202 375.984 277.32 374.056 277.32C367.015 277.32 361.338 274.814 354.778 272.764C350.062 271.291 348.279 268.734 344.444 265.82C340.06 262.487 331.827 261.431 326.389 261.431C319.323 261.431 317.597 266.366 313.556 270.764C306.002 278.984 292.309 277.058 285 269.32C278.78 262.734 266.795 245.414 258.222 257.764C255.839 261.197 253.479 272.435 249.111 273.764C241.795 275.991 235.759 271.079 231 266.32" stroke="black" stroke-width="3" stroke-linecap="round"/>
<path d="M230 314C230 308.652 229.759 301.641 233.556 297.389C237.54 292.927 241.604 297.612 244.667 300.444C252.265 307.471 258.597 321.045 271.444 317.333C276.57 315.853 282.709 302.483 287.222 308C288.614 309.701 289.964 311.853 291.5 313.389C294.415 316.304 301.528 307.49 302.889 306C304.81 303.896 308.528 296.296 311.667 300.556C314.099 303.857 315.973 307.544 318.389 310.889C320.601 313.951 325.62 310.964 328.889 311C331.91 311.033 334.904 311.496 337.722 312.611C339.686 313.389 342.188 316.009 344.444 315.611C350.532 314.537 355.204 309.626 361.667 311.667C369.485 314.135 376.087 314.738 384.5 314.444C396.246 314.035 402.619 312.809 404 299" stroke="black" stroke-width="3" stroke-linecap="round"/>
<defs>
<clipPath id="clip0_9_10">
<rect width="49" height="47" fill="white" transform="translate(107 109)"/>
</clipPath>
</defs>
</svg>
