<svg width="958" height="778" viewBox="0 0 958 778" fill="none" xmlns="http://www.w3.org/2000/svg">
<rect x="83.5" y="312.63" width="97" height="155" rx="7.5" fill="white" stroke="#001871" stroke-width="5"/>
<line x1="82.9975" y1="337.13" x2="183.003" y2="337.13" stroke="#001871" stroke-width="5"/>
<line x1="82" y1="440.63" x2="182.005" y2="440.63" stroke="#001871" stroke-width="5"/>
<circle cx="132" cy="455.13" r="6.5" fill="#001871" stroke="#001871"/>
<g clip-path="url(#clip0_1_2)">
<path d="M106.886 412.13H115.955V389.463L103 379.463V408.13C103 410.343 104.742 412.13 106.886 412.13Z" fill="#4285F4"/>
<path d="M147.045 412.13H156.114C158.264 412.13 160 410.337 160 408.13V379.463L147.045 389.463" fill="#34A853"/>
<path d="M147.045 372.13V389.463L160 379.463V374.13C160 369.183 154.514 366.363 150.673 369.33" fill="#FBBC04"/>
<path d="M115.955 389.463V372.13L131.5 384.13L147.045 372.13V389.463L131.5 401.463" fill="#EA4335"/>
<path d="M103 374.13V379.463L115.955 389.463V372.13L112.327 369.33C108.48 366.363 103 369.183 103 374.13Z" fill="#C5221F"/>
</g>
<rect x="360.5" y="63.5" width="97" height="155" rx="7.5" fill="white" stroke="#001871" stroke-width="5"/>
<line x1="359.997" y1="88" x2="460.003" y2="88" stroke="#001871" stroke-width="5"/>
<line x1="359" y1="191.5" x2="459.005" y2="191.5" stroke="#001871" stroke-width="5"/>
<circle cx="409" cy="206" r="6.5" fill="#001871" stroke="#001871"/>
<g clip-path="url(#clip1_1_2)">
<path fill-rule="evenodd" clip-rule="evenodd" d="M424.345 159.325L389.826 127.151L394.472 122.82L428.991 154.995L424.345 159.325Z" fill="#001871"/>
<path fill-rule="evenodd" clip-rule="evenodd" d="M406.124 163.823V118.322L412.695 118.322V163.823H406.124Z" fill="#001871"/>
<path fill-rule="evenodd" clip-rule="evenodd" d="M389.827 154.995L424.347 122.82L428.993 127.151L394.473 159.325L389.827 154.995Z" fill="#001871"/>
<path d="M385 137.971H393.668L396.953 141.073L393.668 144.175H385V137.971Z" fill="#001871"/>
<path d="M432.647 144.175H423.978L420.693 141.073L423.978 137.971H432.647V144.175Z" fill="#001871"/>
<path d="M402.489 158.494H416.33V163.824H402.489V158.494Z" fill="#001871"/>
<path d="M416.33 118.322H402.488V123.651H416.33V118.322Z" fill="#001871"/>
</g>
<rect x="570.5" y="315.5" width="97" height="155" rx="7.5" fill="white" stroke="#001871" stroke-width="5"/>
<line x1="569.997" y1="340" x2="670.003" y2="340" stroke="#001871" stroke-width="5"/>
<line x1="569" y1="443.5" x2="669.005" y2="443.5" stroke="#001871" stroke-width="5"/>
<circle cx="619" cy="458" r="6.5" fill="#001871" stroke="#001871"/>
<g clip-path="url(#clip2_1_2)">
<path d="M593.886 415H602.955V392.333L590 382.333V411C590 413.213 591.742 415 593.886 415Z" fill="#4285F4"/>
<path d="M634.045 415H643.114C645.264 415 647 413.207 647 411V382.333L634.045 392.333" fill="#34A853"/>
<path d="M634.045 375V392.333L647 382.333V377C647 372.053 641.514 369.233 637.673 372.2" fill="#FBBC04"/>
<path d="M602.955 392.333V375L618.5 387L634.045 375V392.333L618.5 404.333" fill="#EA4335"/>
<path d="M590 377V382.333L602.955 392.333V375L599.327 372.2C595.48 369.233 590 372.053 590 377Z" fill="#C5221F"/>
</g>
<circle cx="645" cy="372" r="11" fill="#08B436"/>
<path d="M645.942 367.273V376H644.362V368.811H644.31L642.269 370.115V368.666L644.438 367.273H645.942Z" fill="white"/>
<path d="M389.503 621.976C392.528 609.518 405.325 602.094 417.641 605.651L423.698 607.4C435.161 610.711 440.197 624.055 433.929 634.084L433.621 634.56C430.847 638.712 435.833 643.648 439.958 640.832L442.238 639.275C451.345 633.058 463.697 634.849 470.663 643.396C476.689 650.791 477.043 661.297 471.528 669.08L470.91 669.952C466.667 675.941 459.783 679.5 452.443 679.5H375.657C366.161 679.5 357.712 673.469 354.627 664.488L353.813 662.118C352.455 658.163 352.691 653.835 354.474 650.052C357.456 643.721 364.194 640.05 371.13 640.975L379.539 642.096C382.336 642.469 384.963 640.671 385.629 637.93L389.503 621.976Z" fill="white" stroke="#001871" stroke-width="5"/>
<g clip-path="url(#clip3_1_2)">
<path fill-rule="evenodd" clip-rule="evenodd" d="M421.083 660.873L401.337 641.177L403.995 638.526L423.741 658.222L421.083 660.873Z" fill="#001871"/>
<path fill-rule="evenodd" clip-rule="evenodd" d="M410.66 663.626V635.772L414.419 635.772V663.626H410.66Z" fill="#001871"/>
<path fill-rule="evenodd" clip-rule="evenodd" d="M401.338 658.222L421.084 638.526L423.742 641.177L403.995 660.873L401.338 658.222Z" fill="#001871"/>
<path d="M398.576 647.801H403.535L405.414 649.7L403.535 651.599H398.576V647.801Z" fill="#001871"/>
<path d="M425.832 651.599H420.873L418.994 649.7L420.873 647.801H425.832V651.599Z" fill="#001871"/>
<path d="M408.58 660.364H416.498V663.626H408.58V660.364Z" fill="#001871"/>
<path d="M416.498 635.772H408.58V639.035H416.498V635.772Z" fill="#001871"/>
</g>
<path d="M287.158 200.34L286.794 198.885L287.158 200.34ZM227.586 265.187L229.066 265.426L229.066 265.426L227.586 265.187ZM224.875 288.606C224.203 289.091 223.265 288.94 222.78 288.268L214.88 277.321C214.395 276.649 214.547 275.712 215.219 275.227C215.89 274.742 216.828 274.894 217.313 275.565L224.335 285.296L234.066 278.273C234.738 277.788 235.675 277.94 236.16 278.612C236.645 279.283 236.493 280.221 235.821 280.706L224.875 288.606ZM312 194.13L312.364 195.585L287.522 201.796L287.158 200.34L286.794 198.885L311.636 192.675L312 194.13ZM227.586 265.187L229.066 265.426L225.478 287.629L223.997 287.39L222.516 287.151L226.105 264.947L227.586 265.187ZM287.158 200.34L287.522 201.796C257.066 209.409 234.076 234.436 229.066 265.426L227.586 265.187L226.105 264.947C231.306 232.772 255.175 206.79 286.794 198.885L287.158 200.34Z" fill="#001871"/>
<path d="M203.144 564.955L201.757 565.528L203.144 564.955ZM260.976 612.753L261.278 611.284L261.278 611.284L260.976 612.753ZM297.755 619.226C298.211 619.918 298.02 620.848 297.328 621.304L286.056 628.734C285.365 629.19 284.434 628.998 283.979 628.307C283.523 627.615 283.714 626.685 284.405 626.229L294.425 619.625L287.82 609.605C287.364 608.914 287.556 607.983 288.247 607.528C288.939 607.072 289.869 607.263 290.325 607.954L297.755 619.226ZM192 538L193.386 537.427L204.53 564.381L203.144 564.955L201.757 565.528L190.614 538.573L192 538ZM260.976 612.753L261.278 611.284L296.804 618.582L296.503 620.051L296.201 621.521L260.675 614.223L260.976 612.753ZM203.144 564.955L204.53 564.381C214.487 588.467 235.749 606.04 261.278 611.284L260.976 612.753L260.675 614.223C234.17 608.778 212.095 590.533 201.757 565.528L203.144 564.955Z" fill="#001871"/>
<path d="M598.202 584.376L599.583 584.962L599.583 584.962L598.202 584.376ZM619.438 531.609C620.206 531.299 621.08 531.67 621.391 532.438L626.45 544.954C626.76 545.722 626.389 546.596 625.621 546.907C624.853 547.217 623.979 546.846 623.668 546.078L619.171 534.953L608.046 539.45C607.278 539.76 606.404 539.389 606.093 538.621C605.783 537.853 606.154 536.979 606.922 536.668L619.438 531.609ZM598.202 584.376L596.821 583.79L618.619 532.414L620 533L621.381 533.586L599.583 584.962L598.202 584.376ZM528.245 625.451L528.406 623.96C557.572 627.113 585.363 610.796 596.821 583.79L598.202 584.376L599.583 584.962C587.608 613.185 558.565 630.238 528.084 626.943L528.245 625.451Z" fill="#001871"/>
<path d="M495 98.5H691C695.694 98.5 699.5 102.306 699.5 107V136C699.5 140.694 695.694 144.5 691 144.5H565.926C563.729 144.5 561.577 145.129 559.727 146.313L520.316 171.536C518.441 172.736 516.052 171.071 516.527 168.896L519.872 153.603C520.895 148.925 517.334 144.5 512.546 144.5H495C490.306 144.5 486.5 140.694 486.5 136V107C486.5 102.306 490.306 98.5 495 98.5Z" fill="white" stroke="#001871" stroke-width="3"/>
<path d="M208 368.63H404C408.694 368.63 412.5 372.435 412.5 377.13V406.13C412.5 410.824 408.694 414.63 404 414.63H278.926C276.729 414.63 274.577 415.259 272.727 416.443L233.316 441.666C231.441 442.866 229.052 441.201 229.527 439.026L232.872 423.732C233.895 419.055 230.334 414.63 225.546 414.63H208C203.306 414.63 199.5 410.824 199.5 406.13V377.13C199.5 372.435 203.306 368.63 208 368.63Z" fill="white" stroke="#001871" stroke-width="3"/>
<path d="M707 353.5H903C907.694 353.5 911.5 357.306 911.5 362V398.259C911.5 402.953 907.694 406.759 903 406.759H778.279C775.83 406.759 773.444 407.542 771.47 408.992L732.314 437.764C730.484 439.108 727.954 437.513 728.379 435.281L732.116 415.663C732.997 411.041 729.454 406.759 724.749 406.759H707C702.306 406.759 698.5 402.953 698.5 398.259V362C698.5 357.306 702.306 353.5 707 353.5Z" fill="white" stroke="#001871" stroke-width="3"/>
<path d="M722.038 366.818V377H719.885V366.818H722.038ZM725.544 366.818V367.892C725.544 368.197 725.484 368.509 725.365 368.827C725.249 369.142 725.093 369.44 724.898 369.722C724.702 370 724.488 370.237 724.256 370.433L723.322 369.881C723.487 369.619 723.633 369.329 723.759 369.011C723.888 368.692 723.953 368.323 723.953 367.902V366.818H725.544ZM726.654 377V369.364H728.672V370.711H728.762C728.921 370.263 729.186 369.911 729.557 369.652C729.928 369.393 730.373 369.264 730.89 369.264C731.413 369.264 731.859 369.395 732.227 369.657C732.595 369.915 732.84 370.267 732.963 370.711H733.042C733.198 370.273 733.48 369.924 733.887 369.662C734.298 369.397 734.784 369.264 735.344 369.264C736.057 369.264 736.635 369.491 737.079 369.945C737.527 370.396 737.75 371.036 737.75 371.864V377H735.637V372.282C735.637 371.858 735.525 371.54 735.299 371.327C735.074 371.115 734.792 371.009 734.454 371.009C734.07 371.009 733.77 371.132 733.554 371.377C733.339 371.619 733.231 371.939 733.231 372.337V377H731.178V372.237C731.178 371.863 731.07 371.564 730.855 371.342C730.643 371.12 730.363 371.009 730.015 371.009C729.779 371.009 729.567 371.069 729.378 371.188C729.193 371.304 729.045 371.468 728.936 371.68C728.826 371.889 728.772 372.134 728.772 372.416V377H726.654ZM742.664 377V369.364H744.781V377H742.664ZM743.727 368.379C743.413 368.379 743.142 368.275 742.917 368.066C742.695 367.854 742.584 367.6 742.584 367.305C742.584 367.014 742.695 366.763 742.917 366.555C743.142 366.343 743.413 366.237 743.727 366.237C744.042 366.237 744.311 366.343 744.533 366.555C744.758 366.763 744.871 367.014 744.871 367.305C744.871 367.6 744.758 367.854 744.533 368.066C744.311 368.275 744.042 368.379 743.727 368.379ZM748.596 372.585V377H746.478V369.364H748.496V370.711H748.586C748.755 370.267 749.038 369.915 749.436 369.657C749.834 369.395 750.316 369.264 750.883 369.264C751.413 369.264 751.875 369.38 752.27 369.612C752.664 369.844 752.971 370.176 753.19 370.607C753.408 371.034 753.518 371.545 753.518 372.138V377H751.4V372.516C751.403 372.048 751.284 371.684 751.042 371.422C750.8 371.157 750.467 371.024 750.043 371.024C749.758 371.024 749.506 371.085 749.287 371.208C749.071 371.331 748.902 371.51 748.78 371.745C748.661 371.977 748.599 372.257 748.596 372.585ZM767.451 370.383H765.273C765.233 370.101 765.152 369.851 765.029 369.632C764.907 369.41 764.749 369.221 764.557 369.065C764.365 368.91 764.143 368.79 763.891 368.707C763.642 368.625 763.372 368.583 763.081 368.583C762.554 368.583 762.095 368.714 761.703 368.976C761.312 369.234 761.009 369.612 760.794 370.109C760.578 370.603 760.471 371.203 760.471 371.909C760.471 372.635 760.578 373.245 760.794 373.739C761.012 374.232 761.317 374.605 761.708 374.857C762.1 375.109 762.552 375.235 763.066 375.235C763.354 375.235 763.621 375.197 763.866 375.121C764.115 375.045 764.335 374.933 764.527 374.788C764.72 374.638 764.879 374.458 765.005 374.246C765.134 374.034 765.223 373.792 765.273 373.52L767.451 373.53C767.394 373.997 767.253 374.448 767.028 374.882C766.806 375.313 766.506 375.699 766.128 376.04C765.754 376.379 765.306 376.647 764.786 376.846C764.269 377.041 763.684 377.139 763.031 377.139C762.123 377.139 761.311 376.934 760.595 376.523C759.882 376.112 759.319 375.517 758.904 374.738C758.493 373.959 758.288 373.016 758.288 371.909C758.288 370.799 758.497 369.854 758.914 369.075C759.332 368.296 759.899 367.703 760.615 367.295C761.331 366.884 762.136 366.679 763.031 366.679C763.621 366.679 764.168 366.762 764.672 366.928C765.179 367.093 765.628 367.335 766.019 367.653C766.41 367.968 766.728 368.354 766.973 368.812C767.222 369.269 767.381 369.793 767.451 370.383ZM771.132 377.144C770.645 377.144 770.211 377.06 769.83 376.891C769.448 376.718 769.147 376.465 768.925 376.13C768.706 375.792 768.597 375.371 768.597 374.867C768.597 374.443 768.674 374.087 768.83 373.798C768.986 373.51 769.198 373.278 769.467 373.102C769.735 372.927 770.04 372.794 770.381 372.705C770.726 372.615 771.087 372.552 771.465 372.516C771.909 372.469 772.267 372.426 772.539 372.386C772.811 372.343 773.008 372.28 773.131 372.197C773.253 372.115 773.315 371.992 773.315 371.83V371.8C773.315 371.485 773.215 371.241 773.016 371.069C772.821 370.897 772.542 370.81 772.181 370.81C771.8 370.81 771.497 370.895 771.271 371.064C771.046 371.23 770.897 371.438 770.824 371.69L768.865 371.531C768.964 371.067 769.16 370.666 769.452 370.328C769.743 369.987 770.12 369.725 770.58 369.543C771.044 369.357 771.581 369.264 772.191 369.264C772.615 369.264 773.021 369.314 773.409 369.413C773.8 369.513 774.147 369.667 774.448 369.876C774.753 370.085 774.993 370.353 775.169 370.681C775.345 371.006 775.433 371.395 775.433 371.849V377H773.424V375.941H773.364C773.242 376.18 773.078 376.39 772.872 376.572C772.667 376.751 772.42 376.892 772.131 376.995C771.843 377.094 771.51 377.144 771.132 377.144ZM771.739 375.683C772.05 375.683 772.325 375.621 772.564 375.499C772.803 375.373 772.99 375.204 773.126 374.991C773.262 374.779 773.33 374.539 773.33 374.271V373.46C773.263 373.503 773.172 373.543 773.056 373.58C772.943 373.613 772.816 373.644 772.673 373.674C772.531 373.701 772.388 373.725 772.246 373.749C772.103 373.768 771.974 373.787 771.858 373.803C771.609 373.84 771.392 373.898 771.207 373.977C771.021 374.057 770.877 374.165 770.774 374.3C770.671 374.433 770.62 374.599 770.62 374.798C770.62 375.086 770.724 375.306 770.933 375.459C771.145 375.608 771.414 375.683 771.739 375.683ZM777.076 377V369.364H779.094V370.711H779.184C779.343 370.263 779.608 369.911 779.979 369.652C780.35 369.393 780.794 369.264 781.311 369.264C781.835 369.264 782.281 369.395 782.649 369.657C783.017 369.915 783.262 370.267 783.385 370.711H783.464C783.62 370.273 783.902 369.924 784.309 369.662C784.72 369.397 785.206 369.264 785.766 369.264C786.479 369.264 787.057 369.491 787.501 369.945C787.949 370.396 788.172 371.036 788.172 371.864V377H786.059V372.282C786.059 371.858 785.947 371.54 785.721 371.327C785.496 371.115 785.214 371.009 784.876 371.009C784.492 371.009 784.192 371.132 783.976 371.377C783.761 371.619 783.653 371.939 783.653 372.337V377H781.6V372.237C781.6 371.863 781.492 371.564 781.277 371.342C781.065 371.12 780.784 371.009 780.436 371.009C780.201 371.009 779.989 371.069 779.8 371.188C779.614 371.304 779.467 371.468 779.358 371.68C779.248 371.889 779.194 372.134 779.194 372.416V377H777.076ZM793.325 377.149C792.54 377.149 791.864 376.99 791.297 376.672C790.733 376.35 790.299 375.896 789.994 375.31C789.689 374.72 789.537 374.022 789.537 373.217C789.537 372.431 789.689 371.742 789.994 371.148C790.299 370.555 790.728 370.093 791.282 369.761C791.839 369.43 792.492 369.264 793.241 369.264C793.745 369.264 794.214 369.345 794.648 369.508C795.085 369.667 795.466 369.907 795.791 370.229C796.119 370.55 796.375 370.955 796.557 371.442C796.739 371.926 796.83 372.492 796.83 373.142V373.724H790.382V372.411H794.837C794.837 372.106 794.77 371.836 794.638 371.601C794.505 371.366 794.321 371.182 794.086 371.049C793.854 370.913 793.584 370.845 793.276 370.845C792.954 370.845 792.669 370.92 792.42 371.069C792.175 371.215 791.983 371.412 791.844 371.661C791.705 371.906 791.633 372.179 791.63 372.481V373.729C791.63 374.107 791.7 374.433 791.839 374.708C791.981 374.983 792.182 375.195 792.44 375.344C792.699 375.494 793.005 375.568 793.36 375.568C793.595 375.568 793.811 375.535 794.006 375.469C794.202 375.402 794.369 375.303 794.509 375.17C794.648 375.038 794.754 374.875 794.827 374.683L796.786 374.812C796.686 375.283 796.482 375.694 796.174 376.045C795.869 376.393 795.475 376.665 794.991 376.861C794.51 377.053 793.955 377.149 793.325 377.149ZM798.212 377V369.364H800.266V370.696H800.345C800.484 370.222 800.718 369.864 801.046 369.622C801.374 369.377 801.752 369.254 802.18 369.254C802.286 369.254 802.4 369.261 802.523 369.274C802.645 369.287 802.753 369.306 802.846 369.329V371.208C802.746 371.178 802.609 371.152 802.433 371.129C802.258 371.105 802.097 371.094 801.951 371.094C801.639 371.094 801.361 371.162 801.116 371.298C800.874 371.43 800.682 371.616 800.539 371.854C800.4 372.093 800.33 372.368 800.33 372.68V377H798.212ZM807.036 377.149C806.263 377.149 805.596 376.985 805.032 376.657C804.472 376.326 804.039 375.865 803.735 375.275C803.43 374.682 803.277 373.994 803.277 373.212C803.277 372.423 803.43 371.733 803.735 371.143C804.039 370.55 804.472 370.089 805.032 369.761C805.596 369.43 806.263 369.264 807.036 369.264C807.808 369.264 808.474 369.43 809.034 369.761C809.598 370.089 810.032 370.55 810.337 371.143C810.642 371.733 810.794 372.423 810.794 373.212C810.794 373.994 810.642 374.682 810.337 375.275C810.032 375.865 809.598 376.326 809.034 376.657C808.474 376.985 807.808 377.149 807.036 377.149ZM807.046 375.509C807.397 375.509 807.69 375.409 807.926 375.21C808.161 375.008 808.338 374.733 808.458 374.385C808.58 374.037 808.642 373.641 808.642 373.197C808.642 372.753 808.58 372.357 808.458 372.009C808.338 371.661 808.161 371.385 807.926 371.183C807.69 370.981 807.397 370.88 807.046 370.88C806.691 370.88 806.393 370.981 806.151 371.183C805.912 371.385 805.731 371.661 805.609 372.009C805.49 372.357 805.43 372.753 805.43 373.197C805.43 373.641 805.49 374.037 805.609 374.385C805.731 374.733 805.912 375.008 806.151 375.21C806.393 375.409 806.691 375.509 807.046 375.509ZM815.622 377.149C814.849 377.149 814.182 376.985 813.618 376.657C813.058 376.326 812.625 375.865 812.32 375.275C812.016 374.682 811.863 373.994 811.863 373.212C811.863 372.423 812.016 371.733 812.32 371.143C812.625 370.55 813.058 370.089 813.618 369.761C814.182 369.43 814.849 369.264 815.622 369.264C816.394 369.264 817.06 369.43 817.62 369.761C818.184 370.089 818.618 370.55 818.923 371.143C819.228 371.733 819.38 372.423 819.38 373.212C819.38 373.994 819.228 374.682 818.923 375.275C818.618 375.865 818.184 376.326 817.62 376.657C817.06 376.985 816.394 377.149 815.622 377.149ZM815.632 375.509C815.983 375.509 816.276 375.409 816.512 375.21C816.747 375.008 816.924 374.733 817.044 374.385C817.166 374.037 817.227 373.641 817.227 373.197C817.227 372.753 817.166 372.357 817.044 372.009C816.924 371.661 816.747 371.385 816.512 371.183C816.276 370.981 815.983 370.88 815.632 370.88C815.277 370.88 814.979 370.981 814.737 371.183C814.498 371.385 814.317 371.661 814.195 372.009C814.075 372.357 814.016 372.753 814.016 373.197C814.016 373.641 814.075 374.037 814.195 374.385C814.317 374.733 814.498 375.008 814.737 375.21C814.979 375.409 815.277 375.509 815.632 375.509ZM822.875 372.585V377H820.757V369.364H822.776V370.711H822.865C823.034 370.267 823.318 369.915 823.715 369.657C824.113 369.395 824.595 369.264 825.162 369.264C825.692 369.264 826.155 369.38 826.549 369.612C826.944 369.844 827.25 370.176 827.469 370.607C827.688 371.034 827.797 371.545 827.797 372.138V377H825.679V372.516C825.682 372.048 825.563 371.684 825.321 371.422C825.079 371.157 824.746 371.024 824.322 371.024C824.037 371.024 823.785 371.085 823.566 371.208C823.351 371.331 823.182 371.51 823.059 371.745C822.94 371.977 822.878 372.257 822.875 372.585ZM834.884 377.144C834.397 377.144 833.963 377.06 833.581 376.891C833.2 376.718 832.899 376.465 832.677 376.13C832.458 375.792 832.349 375.371 832.349 374.867C832.349 374.443 832.426 374.087 832.582 373.798C832.738 373.51 832.95 373.278 833.219 373.102C833.487 372.927 833.792 372.794 834.133 372.705C834.478 372.615 834.839 372.552 835.217 372.516C835.661 372.469 836.019 372.426 836.291 372.386C836.563 372.343 836.76 372.28 836.883 372.197C837.005 372.115 837.067 371.992 837.067 371.83V371.8C837.067 371.485 836.967 371.241 836.768 371.069C836.573 370.897 836.294 370.81 835.933 370.81C835.552 370.81 835.249 370.895 835.023 371.064C834.798 371.23 834.649 371.438 834.576 371.69L832.617 371.531C832.716 371.067 832.912 370.666 833.204 370.328C833.495 369.987 833.872 369.725 834.332 369.543C834.796 369.357 835.333 369.264 835.943 369.264C836.367 369.264 836.773 369.314 837.161 369.413C837.552 369.513 837.898 369.667 838.2 369.876C838.505 370.085 838.745 370.353 838.921 370.681C839.097 371.006 839.184 371.395 839.184 371.849V377H837.176V375.941H837.116C836.994 376.18 836.83 376.39 836.624 376.572C836.419 376.751 836.172 376.892 835.883 376.995C835.595 377.094 835.262 377.144 834.884 377.144ZM835.491 375.683C835.802 375.683 836.077 375.621 836.316 375.499C836.555 375.373 836.742 375.204 836.878 374.991C837.014 374.779 837.081 374.539 837.081 374.271V373.46C837.015 373.503 836.924 373.543 836.808 373.58C836.695 373.613 836.568 373.644 836.425 373.674C836.283 373.701 836.14 373.725 835.998 373.749C835.855 373.768 835.726 373.787 835.61 373.803C835.361 373.84 835.144 373.898 834.959 373.977C834.773 374.057 834.629 374.165 834.526 374.3C834.423 374.433 834.372 374.599 834.372 374.798C834.372 375.086 834.476 375.306 834.685 375.459C834.897 375.608 835.166 375.683 835.491 375.683ZM842.945 372.585V377H840.828V369.364H842.846V370.711H842.936C843.105 370.267 843.388 369.915 843.786 369.657C844.183 369.395 844.666 369.264 845.232 369.264C845.763 369.264 846.225 369.38 846.619 369.612C847.014 369.844 847.32 370.176 847.539 370.607C847.758 371.034 847.867 371.545 847.867 372.138V377H845.749V372.516C845.753 372.048 845.633 371.684 845.392 371.422C845.15 371.157 844.816 371.024 844.392 371.024C844.107 371.024 843.855 371.085 843.637 371.208C843.421 371.331 843.252 371.51 843.129 371.745C843.01 371.977 842.949 372.257 842.945 372.585ZM852.35 377.124C851.77 377.124 851.245 376.975 850.775 376.677C850.307 376.375 849.936 375.933 849.661 375.349C849.389 374.763 849.253 374.044 849.253 373.192C849.253 372.317 849.394 371.589 849.676 371.009C849.958 370.426 850.332 369.99 850.799 369.702C851.27 369.41 851.785 369.264 852.346 369.264C852.773 369.264 853.129 369.337 853.414 369.483C853.703 369.625 853.935 369.804 854.11 370.02C854.289 370.232 854.425 370.441 854.518 370.646H854.583V366.818H856.696V377H854.608V375.777H854.518C854.419 375.989 854.278 376.2 854.096 376.408C853.917 376.614 853.683 376.785 853.395 376.92C853.109 377.056 852.761 377.124 852.35 377.124ZM853.022 375.439C853.363 375.439 853.651 375.346 853.887 375.161C854.125 374.972 854.308 374.708 854.434 374.37C854.563 374.032 854.627 373.636 854.627 373.182C854.627 372.728 854.565 372.333 854.439 371.999C854.313 371.664 854.13 371.405 853.892 371.223C853.653 371.041 853.363 370.95 853.022 370.95C852.674 370.95 852.38 371.044 852.142 371.233C851.903 371.422 851.722 371.684 851.6 372.018C851.477 372.353 851.416 372.741 851.416 373.182C851.416 373.626 851.477 374.019 851.6 374.36C851.726 374.698 851.906 374.963 852.142 375.156C852.38 375.344 852.674 375.439 853.022 375.439ZM865.739 369.364V370.955H861.14V369.364H865.739ZM862.184 367.534H864.302V374.653C864.302 374.849 864.332 375.001 864.392 375.111C864.451 375.217 864.534 375.291 864.64 375.335C864.75 375.378 864.876 375.399 865.018 375.399C865.118 375.399 865.217 375.391 865.316 375.374C865.416 375.354 865.492 375.339 865.545 375.33L865.878 376.906C865.772 376.939 865.623 376.977 865.431 377.02C865.239 377.066 865.005 377.094 864.73 377.104C864.219 377.124 863.772 377.056 863.387 376.901C863.006 376.745 862.71 376.503 862.498 376.175C862.285 375.847 862.181 375.432 862.184 374.932V367.534ZM869.401 372.585V377H867.283V366.818H869.341V370.711H869.43C869.603 370.26 869.881 369.907 870.266 369.652C870.65 369.393 871.132 369.264 871.712 369.264C872.243 369.264 872.705 369.38 873.099 369.612C873.497 369.841 873.805 370.171 874.024 370.602C874.246 371.029 874.356 371.541 874.352 372.138V377H872.234V372.516C872.238 372.045 872.118 371.679 871.876 371.417C871.638 371.155 871.303 371.024 870.872 371.024C870.584 371.024 870.329 371.085 870.107 371.208C869.888 371.331 869.715 371.51 869.589 371.745C869.467 371.977 869.404 372.257 869.401 372.585ZM879.499 377.149C878.714 377.149 878.037 376.99 877.471 376.672C876.907 376.35 876.473 375.896 876.168 375.31C875.863 374.72 875.711 374.022 875.711 373.217C875.711 372.431 875.863 371.742 876.168 371.148C876.473 370.555 876.902 370.093 877.456 369.761C878.013 369.43 878.666 369.264 879.415 369.264C879.918 369.264 880.387 369.345 880.822 369.508C881.259 369.667 881.64 369.907 881.965 370.229C882.293 370.55 882.548 370.955 882.731 371.442C882.913 371.926 883.004 372.492 883.004 373.142V373.724H876.556V372.411H881.01C881.01 372.106 880.944 371.836 880.812 371.601C880.679 371.366 880.495 371.182 880.26 371.049C880.028 370.913 879.758 370.845 879.449 370.845C879.128 370.845 878.843 370.92 878.594 371.069C878.349 371.215 878.157 371.412 878.018 371.661C877.878 371.906 877.807 372.179 877.804 372.481V373.729C877.804 374.107 877.873 374.433 878.013 374.708C878.155 374.983 878.356 375.195 878.614 375.344C878.873 375.494 879.179 375.568 879.534 375.568C879.769 375.568 879.985 375.535 880.18 375.469C880.376 375.402 880.543 375.303 880.682 375.17C880.822 375.038 880.928 374.875 881.001 374.683L882.959 374.812C882.86 375.283 882.656 375.694 882.348 376.045C882.043 376.393 881.648 376.665 881.165 376.861C880.684 377.053 880.129 377.149 879.499 377.149ZM719.845 394V386.364H721.963V394H719.845ZM720.909 385.379C720.594 385.379 720.324 385.275 720.099 385.066C719.877 384.854 719.766 384.6 719.766 384.305C719.766 384.014 719.877 383.763 720.099 383.555C720.324 383.343 720.594 383.237 720.909 383.237C721.224 383.237 721.492 383.343 721.714 383.555C721.94 383.763 722.053 384.014 722.053 384.305C722.053 384.6 721.94 384.854 721.714 385.066C721.492 385.275 721.224 385.379 720.909 385.379ZM725.778 389.585V394H723.66V386.364H725.678V387.711H725.768C725.937 387.267 726.22 386.915 726.618 386.657C727.015 386.395 727.498 386.264 728.064 386.264C728.595 386.264 729.057 386.38 729.452 386.612C729.846 386.844 730.153 387.176 730.371 387.607C730.59 388.034 730.699 388.545 730.699 389.138V394H728.581V389.516C728.585 389.048 728.465 388.684 728.224 388.422C727.982 388.157 727.648 388.024 727.224 388.024C726.939 388.024 726.687 388.085 726.469 388.208C726.253 388.331 726.084 388.51 725.961 388.745C725.842 388.977 725.781 389.257 725.778 389.585ZM736.43 386.364V387.955H731.832V386.364H736.43ZM732.876 384.534H734.994V391.653C734.994 391.849 735.023 392.001 735.083 392.111C735.143 392.217 735.226 392.291 735.332 392.335C735.441 392.378 735.567 392.399 735.71 392.399C735.809 392.399 735.908 392.391 736.008 392.374C736.107 392.354 736.183 392.339 736.237 392.33L736.57 393.906C736.464 393.939 736.314 393.977 736.122 394.02C735.93 394.066 735.696 394.094 735.421 394.104C734.911 394.124 734.463 394.056 734.079 393.901C733.698 393.745 733.401 393.503 733.189 393.175C732.977 392.847 732.872 392.432 732.876 391.932V384.534ZM741.208 394.149C740.423 394.149 739.746 393.99 739.18 393.672C738.616 393.35 738.182 392.896 737.877 392.31C737.572 391.72 737.42 391.022 737.42 390.217C737.42 389.431 737.572 388.742 737.877 388.148C738.182 387.555 738.611 387.093 739.165 386.761C739.722 386.43 740.375 386.264 741.124 386.264C741.627 386.264 742.096 386.345 742.531 386.508C742.968 386.667 743.349 386.907 743.674 387.229C744.002 387.55 744.257 387.955 744.44 388.442C744.622 388.926 744.713 389.492 744.713 390.142V390.724H738.265V389.411H742.719C742.719 389.106 742.653 388.836 742.521 388.601C742.388 388.366 742.204 388.182 741.969 388.049C741.737 387.913 741.467 387.845 741.158 387.845C740.837 387.845 740.552 387.92 740.303 388.069C740.058 388.215 739.866 388.412 739.727 388.661C739.587 388.906 739.516 389.179 739.513 389.481V390.729C739.513 391.107 739.582 391.433 739.722 391.708C739.864 391.983 740.065 392.195 740.323 392.344C740.582 392.494 740.888 392.568 741.243 392.568C741.478 392.568 741.694 392.535 741.889 392.469C742.085 392.402 742.252 392.303 742.391 392.17C742.531 392.038 742.637 391.875 742.71 391.683L744.668 391.812C744.569 392.283 744.365 392.694 744.057 393.045C743.752 393.393 743.357 393.665 742.874 393.861C742.393 394.053 741.838 394.149 741.208 394.149ZM746.095 394V386.364H748.148V387.696H748.228C748.367 387.222 748.601 386.864 748.929 386.622C749.257 386.377 749.635 386.254 750.062 386.254C750.169 386.254 750.283 386.261 750.406 386.274C750.528 386.287 750.636 386.306 750.729 386.329V388.208C750.629 388.178 750.492 388.152 750.316 388.129C750.14 388.105 749.98 388.094 749.834 388.094C749.522 388.094 749.244 388.162 748.999 388.298C748.757 388.43 748.564 388.616 748.422 388.854C748.283 389.093 748.213 389.368 748.213 389.68V394H746.095ZM753.942 389.585V394H751.824V386.364H753.842V387.711H753.932C754.101 387.267 754.384 386.915 754.782 386.657C755.18 386.395 755.662 386.264 756.229 386.264C756.759 386.264 757.221 386.38 757.616 386.612C758.01 386.844 758.317 387.176 758.535 387.607C758.754 388.034 758.863 388.545 758.863 389.138V394H756.746V389.516C756.749 389.048 756.63 388.684 756.388 388.422C756.146 388.157 755.813 388.024 755.388 388.024C755.103 388.024 754.851 388.085 754.633 388.208C754.417 388.331 754.248 388.51 754.126 388.745C754.006 388.977 753.945 389.257 753.942 389.585ZM764.013 394.149C763.227 394.149 762.551 393.99 761.984 393.672C761.421 393.35 760.987 392.896 760.682 392.31C760.377 391.72 760.224 391.022 760.224 390.217C760.224 389.431 760.377 388.742 760.682 388.148C760.987 387.555 761.416 387.093 761.969 386.761C762.526 386.43 763.179 386.264 763.928 386.264C764.432 386.264 764.901 386.345 765.335 386.508C765.773 386.667 766.154 386.907 766.479 387.229C766.807 387.55 767.062 387.955 767.244 388.442C767.427 388.926 767.518 389.492 767.518 390.142V390.724H761.07V389.411H765.524C765.524 389.106 765.458 388.836 765.325 388.601C765.193 388.366 765.009 388.182 764.773 388.049C764.541 387.913 764.271 387.845 763.963 387.845C763.642 387.845 763.357 387.92 763.108 388.069C762.863 388.215 762.67 388.412 762.531 388.661C762.392 388.906 762.321 389.179 762.317 389.481V390.729C762.317 391.107 762.387 391.433 762.526 391.708C762.669 391.983 762.869 392.195 763.128 392.344C763.386 392.494 763.693 392.568 764.048 392.568C764.283 392.568 764.498 392.535 764.694 392.469C764.889 392.402 765.057 392.303 765.196 392.17C765.335 392.038 765.441 391.875 765.514 391.683L767.473 391.812C767.374 392.283 767.17 392.694 766.862 393.045C766.557 393.393 766.162 393.665 765.678 393.861C765.198 394.053 764.643 394.149 764.013 394.149ZM772.962 386.364V387.955H768.363V386.364H772.962ZM769.407 384.534H771.525V391.653C771.525 391.849 771.555 392.001 771.614 392.111C771.674 392.217 771.757 392.291 771.863 392.335C771.972 392.378 772.098 392.399 772.241 392.399C772.34 392.399 772.44 392.391 772.539 392.374C772.638 392.354 772.715 392.339 772.768 392.33L773.101 393.906C772.995 393.939 772.846 393.977 772.653 394.02C772.461 394.066 772.228 394.094 771.952 394.104C771.442 394.124 770.995 394.056 770.61 393.901C770.229 393.745 769.932 393.503 769.72 393.175C769.508 392.847 769.404 392.432 769.407 391.932V384.534ZM777.581 394V386.364H779.699V394H777.581ZM778.645 385.379C778.331 385.379 778.06 385.275 777.835 385.066C777.613 384.854 777.502 384.6 777.502 384.305C777.502 384.014 777.613 383.763 777.835 383.555C778.06 383.343 778.331 383.237 778.645 383.237C778.96 383.237 779.229 383.343 779.451 383.555C779.676 383.763 779.789 384.014 779.789 384.305C779.789 384.6 779.676 384.854 779.451 385.066C779.229 385.275 778.96 385.379 778.645 385.379ZM787.75 388.541L785.811 388.661C785.778 388.495 785.706 388.346 785.597 388.213C785.488 388.077 785.343 387.969 785.164 387.89C784.989 387.807 784.778 387.766 784.533 387.766C784.205 387.766 783.928 387.835 783.703 387.974C783.477 388.11 783.365 388.293 783.365 388.521C783.365 388.704 783.438 388.858 783.583 388.984C783.729 389.11 783.98 389.211 784.334 389.287L785.716 389.565C786.459 389.718 787.012 389.963 787.377 390.301C787.741 390.639 787.924 391.083 787.924 391.634C787.924 392.134 787.776 392.573 787.481 392.951C787.19 393.329 786.788 393.624 786.278 393.836C785.771 394.045 785.186 394.149 784.523 394.149C783.512 394.149 782.707 393.939 782.107 393.518C781.51 393.094 781.161 392.517 781.058 391.788L783.141 391.678C783.204 391.987 783.356 392.222 783.598 392.384C783.84 392.543 784.15 392.623 784.528 392.623C784.899 392.623 785.198 392.552 785.423 392.409C785.652 392.263 785.768 392.076 785.771 391.847C785.768 391.655 785.686 391.498 785.527 391.375C785.368 391.249 785.123 391.153 784.792 391.087L783.469 390.823C782.723 390.674 782.168 390.415 781.804 390.048C781.442 389.68 781.262 389.211 781.262 388.641C781.262 388.15 781.394 387.728 781.659 387.373C781.928 387.018 782.304 386.745 782.788 386.553C783.275 386.36 783.845 386.264 784.498 386.264C785.463 386.264 786.222 386.468 786.775 386.876C787.332 387.283 787.657 387.839 787.75 388.541ZM795.948 394.149C795.176 394.149 794.508 393.985 793.944 393.657C793.384 393.326 792.952 392.865 792.647 392.275C792.342 391.682 792.189 390.994 792.189 390.212C792.189 389.423 792.342 388.733 792.647 388.143C792.952 387.55 793.384 387.089 793.944 386.761C794.508 386.43 795.176 386.264 795.948 386.264C796.72 386.264 797.386 386.43 797.946 386.761C798.51 387.089 798.944 387.55 799.249 388.143C799.554 388.733 799.706 389.423 799.706 390.212C799.706 390.994 799.554 391.682 799.249 392.275C798.944 392.865 798.51 393.326 797.946 393.657C797.386 393.985 796.72 394.149 795.948 394.149ZM795.958 392.509C796.309 392.509 796.602 392.409 796.838 392.21C797.073 392.008 797.25 391.733 797.37 391.385C797.492 391.037 797.554 390.641 797.554 390.197C797.554 389.753 797.492 389.357 797.37 389.009C797.25 388.661 797.073 388.385 796.838 388.183C796.602 387.981 796.309 387.88 795.958 387.88C795.603 387.88 795.305 387.981 795.063 388.183C794.824 388.385 794.644 388.661 794.521 389.009C794.402 389.357 794.342 389.753 794.342 390.197C794.342 390.641 794.402 391.037 794.521 391.385C794.644 391.733 794.824 392.008 795.063 392.21C795.305 392.409 795.603 392.509 795.958 392.509ZM805.19 386.364V387.955H800.477V386.364H805.19ZM801.556 394V385.812C801.556 385.258 801.663 384.799 801.879 384.435C802.098 384.07 802.396 383.797 802.774 383.614C803.152 383.432 803.581 383.341 804.061 383.341C804.386 383.341 804.683 383.366 804.951 383.415C805.223 383.465 805.425 383.51 805.558 383.55L805.18 385.141C805.097 385.114 804.994 385.089 804.872 385.066C804.752 385.043 804.63 385.031 804.504 385.031C804.192 385.031 803.975 385.104 803.853 385.25C803.73 385.393 803.669 385.593 803.669 385.852V394H801.556ZM810.59 386.364V387.955H805.877V386.364H810.59ZM806.956 394V385.812C806.956 385.258 807.064 384.799 807.279 384.435C807.498 384.07 807.796 383.797 808.174 383.614C808.552 383.432 808.981 383.341 809.462 383.341C809.787 383.341 810.083 383.366 810.352 383.415C810.624 383.465 810.826 383.51 810.958 383.55L810.58 385.141C810.498 385.114 810.395 385.089 810.272 385.066C810.153 385.043 810.03 385.031 809.904 385.031C809.593 385.031 809.376 385.104 809.253 385.25C809.13 385.393 809.069 385.593 809.069 385.852V394H806.956ZM814.415 383.818L814.221 390.947H812.401L812.202 383.818H814.415ZM813.311 394.129C812.983 394.129 812.701 394.013 812.466 393.781C812.231 393.546 812.115 393.264 812.118 392.936C812.115 392.611 812.231 392.333 812.466 392.101C812.701 391.869 812.983 391.753 813.311 391.753C813.626 391.753 813.903 391.869 814.141 392.101C814.38 392.333 814.501 392.611 814.504 392.936C814.501 393.155 814.443 393.355 814.33 393.538C814.221 393.717 814.077 393.861 813.898 393.97C813.719 394.076 813.523 394.129 813.311 394.129Z" fill="#001871"/>
<path d="M510.879 128H507.27V117.818H510.909C511.933 117.818 512.815 118.022 513.554 118.43C514.293 118.834 514.861 119.416 515.259 120.175C515.66 120.934 515.861 121.842 515.861 122.899C515.861 123.96 515.66 124.871 515.259 125.634C514.861 126.396 514.29 126.981 513.544 127.388C512.801 127.796 511.913 128 510.879 128ZM509.422 126.156H510.79C511.426 126.156 511.961 126.043 512.395 125.817C512.833 125.589 513.161 125.236 513.38 124.759C513.602 124.278 513.713 123.658 513.713 122.899C513.713 122.147 513.602 121.532 513.38 121.055C513.161 120.577 512.835 120.226 512.4 120.001C511.966 119.775 511.431 119.663 510.795 119.663H509.422V126.156ZM518.922 128L516.844 120.364H518.987L520.17 125.494H520.239L521.472 120.364H523.575L524.828 125.464H524.893L526.056 120.364H528.194L526.121 128H523.879L522.566 123.197H522.472L521.159 128H518.922ZM533.102 128.139C532.336 128.139 531.655 128.015 531.059 127.766C530.465 127.514 530 127.171 529.662 126.737C529.324 126.303 529.155 125.811 529.155 125.261C529.155 124.836 529.251 124.447 529.443 124.092C529.639 123.734 529.904 123.438 530.238 123.202C530.573 122.964 530.948 122.811 531.362 122.745V122.675C530.818 122.566 530.378 122.303 530.04 121.885C529.702 121.464 529.532 120.975 529.532 120.418C529.532 119.891 529.687 119.422 529.995 119.011C530.303 118.597 530.726 118.272 531.263 118.037C531.803 117.798 532.416 117.679 533.102 117.679C533.788 117.679 534.4 117.798 534.937 118.037C535.477 118.276 535.901 118.602 536.209 119.016C536.518 119.427 536.673 119.895 536.677 120.418C536.673 120.978 536.501 121.467 536.16 121.885C535.818 122.303 535.381 122.566 534.847 122.675V122.745C535.255 122.811 535.624 122.964 535.956 123.202C536.291 123.438 536.556 123.734 536.751 124.092C536.95 124.447 537.051 124.836 537.055 125.261C537.051 125.811 536.881 126.303 536.542 126.737C536.204 127.171 535.737 127.514 535.14 127.766C534.547 128.015 533.868 128.139 533.102 128.139ZM533.102 126.558C533.443 126.558 533.742 126.497 533.997 126.374C534.252 126.248 534.451 126.076 534.594 125.857C534.739 125.635 534.812 125.38 534.812 125.092C534.812 124.797 534.738 124.536 534.589 124.311C534.439 124.082 534.237 123.903 533.982 123.774C533.727 123.642 533.434 123.575 533.102 123.575C532.774 123.575 532.481 123.642 532.222 123.774C531.964 123.903 531.76 124.082 531.611 124.311C531.465 124.536 531.392 124.797 531.392 125.092C531.392 125.38 531.463 125.635 531.606 125.857C531.748 126.076 531.949 126.248 532.207 126.374C532.466 126.497 532.764 126.558 533.102 126.558ZM533.102 122.009C533.387 122.009 533.641 121.951 533.863 121.835C534.085 121.719 534.259 121.558 534.385 121.353C534.511 121.147 534.574 120.911 534.574 120.642C534.574 120.377 534.511 120.145 534.385 119.946C534.259 119.744 534.086 119.586 533.868 119.474C533.649 119.358 533.394 119.3 533.102 119.3C532.814 119.3 532.559 119.358 532.336 119.474C532.114 119.586 531.94 119.744 531.814 119.946C531.692 120.145 531.631 120.377 531.631 120.642C531.631 120.911 531.693 121.147 531.819 121.353C531.945 121.558 532.119 121.719 532.341 121.835C532.564 121.951 532.817 122.009 533.102 122.009ZM538.962 128L543.183 119.648V119.578H538.266V117.818H545.411V119.603L541.185 128H538.962ZM546.945 128V117.818H549.098V122.019H553.468V117.818H555.616V128H553.468V123.794H549.098V128H546.945ZM564.142 121.109C564.073 120.867 563.975 120.654 563.849 120.468C563.723 120.279 563.569 120.12 563.387 119.991C563.208 119.858 563.002 119.757 562.77 119.688C562.541 119.618 562.288 119.583 562.009 119.583C561.489 119.583 561.032 119.712 560.637 119.971C560.246 120.229 559.941 120.606 559.722 121.099C559.504 121.59 559.394 122.19 559.394 122.899C559.394 123.608 559.502 124.212 559.718 124.709C559.933 125.206 560.238 125.585 560.632 125.847C561.027 126.106 561.492 126.235 562.029 126.235C562.517 126.235 562.932 126.149 563.277 125.977C563.625 125.801 563.89 125.554 564.073 125.236C564.258 124.918 564.351 124.541 564.351 124.107L564.789 124.172H562.164V122.551H566.424V123.834C566.424 124.729 566.235 125.498 565.857 126.141C565.48 126.78 564.959 127.274 564.296 127.622C563.633 127.967 562.874 128.139 562.019 128.139C561.065 128.139 560.226 127.929 559.504 127.508C558.781 127.084 558.218 126.482 557.813 125.703C557.412 124.921 557.212 123.993 557.212 122.919C557.212 122.094 557.331 121.358 557.57 120.712C557.812 120.062 558.15 119.512 558.584 119.061C559.018 118.61 559.524 118.267 560.1 118.032C560.677 117.797 561.302 117.679 561.975 117.679C562.551 117.679 563.088 117.763 563.585 117.933C564.083 118.098 564.523 118.334 564.908 118.638C565.296 118.943 565.612 119.306 565.857 119.727C566.103 120.145 566.26 120.606 566.33 121.109H564.142ZM569.841 117.818L571.894 121.288H571.974L574.037 117.818H576.468L573.361 122.909L576.538 128H574.062L571.974 124.525H571.894L569.806 128H567.34L570.527 122.909L567.4 117.818H569.841ZM577.79 130.864V120.364H579.879V121.646H579.973C580.066 121.441 580.2 121.232 580.376 121.02C580.555 120.804 580.787 120.625 581.072 120.483C581.36 120.337 581.718 120.264 582.146 120.264C582.702 120.264 583.216 120.41 583.687 120.702C584.157 120.99 584.534 121.426 584.815 122.009C585.097 122.589 585.238 123.317 585.238 124.192C585.238 125.044 585.1 125.763 584.825 126.349C584.554 126.933 584.182 127.375 583.712 127.677C583.244 127.975 582.721 128.124 582.141 128.124C581.73 128.124 581.38 128.056 581.092 127.92C580.807 127.785 580.573 127.614 580.391 127.408C580.208 127.2 580.069 126.989 579.973 126.777H579.908V130.864H577.79ZM579.864 124.182C579.864 124.636 579.927 125.032 580.053 125.37C580.179 125.708 580.361 125.972 580.599 126.161C580.838 126.346 581.128 126.439 581.469 126.439C581.814 126.439 582.106 126.344 582.344 126.156C582.583 125.963 582.764 125.698 582.886 125.36C583.012 125.019 583.075 124.626 583.075 124.182C583.075 123.741 583.014 123.353 582.891 123.018C582.769 122.684 582.588 122.422 582.349 122.233C582.111 122.044 581.817 121.95 581.469 121.95C581.125 121.95 580.833 122.041 580.594 122.223C580.359 122.405 580.179 122.664 580.053 122.999C579.927 123.333 579.864 123.728 579.864 124.182ZM591.06 117.818V128H588.907V119.862H588.847L586.516 121.323V119.414L589.036 117.818H591.06ZM597.243 128.139C596.501 128.139 595.839 128.012 595.259 127.756C594.683 127.498 594.227 127.143 593.892 126.692C593.561 126.238 593.39 125.715 593.38 125.121H595.548C595.561 125.37 595.642 125.589 595.791 125.778C595.944 125.963 596.146 126.107 596.398 126.21C596.65 126.313 596.933 126.364 597.248 126.364C597.576 126.364 597.866 126.306 598.118 126.19C598.37 126.074 598.567 125.914 598.71 125.708C598.852 125.503 598.923 125.266 598.923 124.997C598.923 124.725 598.847 124.485 598.695 124.276C598.546 124.064 598.33 123.898 598.048 123.779C597.77 123.66 597.439 123.6 597.054 123.6H596.105V122.019H597.054C597.379 122.019 597.666 121.963 597.914 121.85C598.166 121.737 598.362 121.582 598.501 121.383C598.64 121.181 598.71 120.945 598.71 120.677C598.71 120.422 598.648 120.198 598.526 120.006C598.406 119.81 598.237 119.658 598.019 119.548C597.803 119.439 597.551 119.384 597.263 119.384C596.971 119.384 596.704 119.437 596.463 119.543C596.221 119.646 596.027 119.794 595.881 119.986C595.735 120.178 595.657 120.403 595.647 120.662H593.584C593.594 120.075 593.761 119.558 594.086 119.111C594.411 118.663 594.848 118.314 595.399 118.062C595.952 117.807 596.577 117.679 597.273 117.679C597.976 117.679 598.59 117.807 599.117 118.062C599.644 118.317 600.054 118.662 600.345 119.096C600.64 119.527 600.786 120.011 600.783 120.548C600.786 121.118 600.609 121.593 600.251 121.974C599.896 122.356 599.434 122.598 598.864 122.7V122.78C599.613 122.876 600.183 123.136 600.574 123.56C600.968 123.981 601.164 124.508 601.161 125.141C601.164 125.721 600.997 126.237 600.659 126.688C600.324 127.138 599.861 127.493 599.271 127.751C598.682 128.01 598.005 128.139 597.243 128.139ZM606.472 128.139C605.729 128.139 605.068 128.012 604.488 127.756C603.911 127.498 603.455 127.143 603.121 126.692C602.789 126.238 602.619 125.715 602.609 125.121H604.776C604.79 125.37 604.871 125.589 605.02 125.778C605.172 125.963 605.375 126.107 605.626 126.21C605.878 126.313 606.162 126.364 606.477 126.364C606.805 126.364 607.095 126.306 607.347 126.19C607.598 126.074 607.796 125.914 607.938 125.708C608.081 125.503 608.152 125.266 608.152 124.997C608.152 124.725 608.076 124.485 607.923 124.276C607.774 124.064 607.559 123.898 607.277 123.779C606.999 123.66 606.667 123.6 606.283 123.6H605.333V122.019H606.283C606.607 122.019 606.894 121.963 607.143 121.85C607.395 121.737 607.59 121.582 607.729 121.383C607.869 121.181 607.938 120.945 607.938 120.677C607.938 120.422 607.877 120.198 607.754 120.006C607.635 119.81 607.466 119.658 607.247 119.548C607.032 119.439 606.78 119.384 606.491 119.384C606.2 119.384 605.933 119.437 605.691 119.543C605.449 119.646 605.255 119.794 605.109 119.986C604.964 120.178 604.886 120.403 604.876 120.662H602.812C602.822 120.075 602.99 119.558 603.315 119.111C603.639 118.663 604.077 118.314 604.627 118.062C605.181 117.807 605.805 117.679 606.501 117.679C607.204 117.679 607.819 117.807 608.346 118.062C608.873 118.317 609.282 118.662 609.574 119.096C609.869 119.527 610.015 120.011 610.011 120.548C610.015 121.118 609.837 121.593 609.479 121.974C609.125 122.356 608.662 122.598 608.092 122.7V122.78C608.841 122.876 609.411 123.136 609.803 123.56C610.197 123.981 610.393 124.508 610.389 125.141C610.393 125.721 610.225 126.237 609.887 126.688C609.552 127.138 609.09 127.493 608.5 127.751C607.91 128.01 607.234 128.139 606.472 128.139ZM616.018 120.364V121.955H611.42V120.364H616.018ZM612.464 118.534H614.581V125.653C614.581 125.849 614.611 126.001 614.671 126.111C614.731 126.217 614.814 126.291 614.92 126.335C615.029 126.378 615.155 126.399 615.297 126.399C615.397 126.399 615.496 126.391 615.596 126.374C615.695 126.354 615.771 126.339 615.824 126.33L616.157 127.906C616.051 127.939 615.902 127.977 615.71 128.02C615.518 128.066 615.284 128.094 615.009 128.104C614.499 128.124 614.051 128.056 613.667 127.901C613.286 127.745 612.989 127.503 612.777 127.175C612.565 126.847 612.46 126.432 612.464 125.932V118.534ZM619.68 123.585V128H617.562V117.818H619.62V121.711H619.71C619.882 121.26 620.16 120.907 620.545 120.652C620.929 120.393 621.412 120.264 621.992 120.264C622.522 120.264 622.984 120.38 623.379 120.612C623.776 120.841 624.085 121.171 624.303 121.602C624.526 122.029 624.635 122.541 624.632 123.138V128H622.514V123.516C622.517 123.045 622.398 122.679 622.156 122.417C621.917 122.155 621.582 122.024 621.151 122.024C620.863 122.024 620.608 122.085 620.386 122.208C620.167 122.331 619.995 122.51 619.869 122.745C619.746 122.977 619.683 123.257 619.68 123.585ZM632.13 128V129.606H625.443V128H632.13ZM638.802 128V129.606H632.115V128H638.802ZM645.195 126.091V125.554C645.195 125.146 645.281 124.772 645.454 124.43C645.629 124.086 645.883 123.811 646.214 123.605C646.549 123.396 646.957 123.292 647.438 123.292C647.925 123.292 648.334 123.395 648.665 123.6C649 123.806 649.252 124.081 649.421 124.425C649.594 124.767 649.68 125.143 649.68 125.554V126.091C649.68 126.499 649.594 126.875 649.421 127.219C649.249 127.561 648.995 127.834 648.661 128.04C648.326 128.249 647.918 128.353 647.438 128.353C646.95 128.353 646.541 128.249 646.21 128.04C645.878 127.834 645.626 127.561 645.454 127.219C645.281 126.875 645.195 126.499 645.195 126.091ZM646.642 125.554V126.091C646.642 126.326 646.698 126.548 646.811 126.757C646.927 126.966 647.136 127.07 647.438 127.07C647.739 127.07 647.945 126.968 648.054 126.762C648.167 126.557 648.223 126.333 648.223 126.091V125.554C648.223 125.312 648.17 125.087 648.064 124.878C647.958 124.669 647.749 124.565 647.438 124.565C647.139 124.565 646.932 124.669 646.816 124.878C646.7 125.087 646.642 125.312 646.642 125.554ZM639.97 120.264V119.727C639.97 119.316 640.058 118.94 640.234 118.599C640.409 118.254 640.663 117.979 640.994 117.773C641.329 117.568 641.733 117.465 642.207 117.465C642.698 117.465 643.109 117.568 643.44 117.773C643.772 117.979 644.024 118.254 644.196 118.599C644.368 118.94 644.455 119.316 644.455 119.727V120.264C644.455 120.675 644.367 121.051 644.191 121.393C644.019 121.734 643.765 122.008 643.43 122.213C643.099 122.415 642.691 122.516 642.207 122.516C641.723 122.516 641.314 122.414 640.979 122.208C640.648 121.999 640.396 121.726 640.224 121.388C640.055 121.046 639.97 120.672 639.97 120.264ZM641.427 119.727V120.264C641.427 120.506 641.483 120.73 641.596 120.935C641.712 121.141 641.916 121.244 642.207 121.244C642.512 121.244 642.719 121.141 642.829 120.935C642.942 120.73 642.998 120.506 642.998 120.264V119.727C642.998 119.485 642.945 119.26 642.839 119.051C642.733 118.842 642.522 118.738 642.207 118.738C641.912 118.738 641.709 118.844 641.596 119.056C641.483 119.268 641.427 119.492 641.427 119.727ZM640.626 128L647.626 117.818H648.929L641.929 128H640.626ZM653.18 128L651.102 120.364H653.244L654.428 125.494H654.497L655.73 120.364H657.833L659.086 125.464H659.151L660.314 120.364H662.452L660.379 128H658.136L656.824 123.197H656.729L655.417 128H653.18ZM663.581 128V120.364H665.699V128H663.581ZM664.645 119.379C664.331 119.379 664.06 119.275 663.835 119.066C663.613 118.854 663.502 118.6 663.502 118.305C663.502 118.014 663.613 117.763 663.835 117.555C664.06 117.343 664.331 117.237 664.645 117.237C664.96 117.237 665.229 117.343 665.451 117.555C665.676 117.763 665.789 118.014 665.789 118.305C665.789 118.6 665.676 118.854 665.451 119.066C665.229 119.275 664.96 119.379 664.645 119.379ZM667.436 128V117.818H671.453C672.225 117.818 672.883 117.966 673.426 118.261C673.97 118.552 674.384 118.958 674.669 119.479C674.958 119.996 675.102 120.592 675.102 121.268C675.102 121.945 674.956 122.541 674.664 123.058C674.373 123.575 673.95 123.978 673.397 124.266C672.846 124.555 672.18 124.699 671.398 124.699H668.838V122.974H671.05C671.464 122.974 671.806 122.902 672.074 122.76C672.346 122.614 672.548 122.414 672.681 122.158C672.817 121.9 672.885 121.603 672.885 121.268C672.885 120.93 672.817 120.635 672.681 120.384C672.548 120.128 672.346 119.931 672.074 119.792C671.802 119.649 671.458 119.578 671.04 119.578H669.588V128H667.436Z" fill="#001871"/>
<path d="M222.879 398.13H219.27V387.948H222.909C223.933 387.948 224.815 388.152 225.554 388.56C226.293 388.964 226.861 389.546 227.259 390.305C227.66 391.064 227.861 391.972 227.861 393.029C227.861 394.09 227.66 395.001 227.259 395.763C226.861 396.526 226.29 397.111 225.544 397.518C224.801 397.926 223.913 398.13 222.879 398.13ZM221.422 396.285H222.79C223.426 396.285 223.961 396.173 224.395 395.947C224.833 395.719 225.161 395.366 225.38 394.888C225.602 394.408 225.713 393.788 225.713 393.029C225.713 392.277 225.602 391.662 225.38 391.185C225.161 390.707 224.835 390.356 224.4 390.131C223.966 389.905 223.431 389.793 222.795 389.793H221.422V396.285ZM230.922 398.13L228.844 390.494H230.987L232.17 395.624H232.239L233.472 390.494H235.575L236.828 395.594H236.893L238.056 390.494H240.194L238.121 398.13H235.879L234.566 393.327H234.472L233.159 398.13H230.922ZM245.102 398.269C244.336 398.269 243.655 398.145 243.059 397.896C242.465 397.644 242 397.301 241.662 396.867C241.324 396.433 241.155 395.941 241.155 395.391C241.155 394.966 241.251 394.577 241.443 394.222C241.639 393.864 241.904 393.568 242.238 393.332C242.573 393.094 242.948 392.941 243.362 392.875V392.805C242.818 392.696 242.378 392.432 242.04 392.015C241.702 391.594 241.532 391.105 241.532 390.548C241.532 390.021 241.687 389.552 241.995 389.141C242.303 388.727 242.726 388.402 243.263 388.167C243.803 387.928 244.416 387.809 245.102 387.809C245.788 387.809 246.4 387.928 246.937 388.167C247.477 388.405 247.901 388.732 248.209 389.146C248.518 389.557 248.673 390.025 248.677 390.548C248.673 391.108 248.501 391.597 248.16 392.015C247.818 392.432 247.381 392.696 246.847 392.805V392.875C247.255 392.941 247.624 393.094 247.956 393.332C248.291 393.568 248.556 393.864 248.751 394.222C248.95 394.577 249.051 394.966 249.055 395.391C249.051 395.941 248.881 396.433 248.542 396.867C248.204 397.301 247.737 397.644 247.14 397.896C246.547 398.145 245.868 398.269 245.102 398.269ZM245.102 396.688C245.443 396.688 245.742 396.627 245.997 396.504C246.252 396.378 246.451 396.206 246.594 395.987C246.739 395.765 246.812 395.51 246.812 395.222C246.812 394.927 246.738 394.666 246.589 394.441C246.439 394.212 246.237 394.033 245.982 393.904C245.727 393.771 245.434 393.705 245.102 393.705C244.774 393.705 244.481 393.771 244.222 393.904C243.964 394.033 243.76 394.212 243.611 394.441C243.465 394.666 243.392 394.927 243.392 395.222C243.392 395.51 243.463 395.765 243.606 395.987C243.748 396.206 243.949 396.378 244.207 396.504C244.466 396.627 244.764 396.688 245.102 396.688ZM245.102 392.139C245.387 392.139 245.641 392.081 245.863 391.965C246.085 391.849 246.259 391.688 246.385 391.483C246.511 391.277 246.574 391.04 246.574 390.772C246.574 390.507 246.511 390.275 246.385 390.076C246.259 389.874 246.086 389.716 245.868 389.604C245.649 389.488 245.394 389.43 245.102 389.43C244.814 389.43 244.559 389.488 244.336 389.604C244.114 389.716 243.94 389.874 243.814 390.076C243.692 390.275 243.631 390.507 243.631 390.772C243.631 391.04 243.693 391.277 243.819 391.483C243.945 391.688 244.119 391.849 244.341 391.965C244.564 392.081 244.817 392.139 245.102 392.139ZM250.962 398.13L255.183 389.778V389.708H250.266V387.948H257.411V389.733L253.185 398.13H250.962ZM258.945 398.13V387.948H261.098V392.149H265.468V387.948H267.616V398.13H265.468V393.924H261.098V398.13H258.945ZM276.142 391.239C276.073 390.997 275.975 390.784 275.849 390.598C275.723 390.409 275.569 390.25 275.387 390.121C275.208 389.988 275.002 389.887 274.77 389.817C274.541 389.748 274.288 389.713 274.009 389.713C273.489 389.713 273.032 389.842 272.637 390.101C272.246 390.359 271.941 390.736 271.722 391.229C271.504 391.72 271.394 392.32 271.394 393.029C271.394 393.738 271.502 394.342 271.718 394.839C271.933 395.336 272.238 395.715 272.632 395.977C273.027 396.236 273.492 396.365 274.029 396.365C274.517 396.365 274.932 396.279 275.277 396.106C275.625 395.931 275.89 395.684 276.073 395.366C276.258 395.048 276.351 394.671 276.351 394.237L276.789 394.302H274.164V392.681H278.424V393.964C278.424 394.859 278.235 395.628 277.857 396.271C277.48 396.91 276.959 397.404 276.296 397.752C275.633 398.097 274.874 398.269 274.019 398.269C273.065 398.269 272.226 398.059 271.504 397.638C270.781 397.213 270.218 396.612 269.813 395.833C269.412 395.051 269.212 394.123 269.212 393.049C269.212 392.224 269.331 391.488 269.57 390.842C269.812 390.192 270.15 389.642 270.584 389.191C271.018 388.74 271.524 388.397 272.1 388.162C272.677 387.927 273.302 387.809 273.975 387.809C274.551 387.809 275.088 387.893 275.585 388.062C276.083 388.228 276.523 388.463 276.908 388.768C277.296 389.073 277.612 389.436 277.857 389.857C278.103 390.275 278.26 390.736 278.33 391.239H276.142ZM281.841 387.948L283.894 391.418H283.974L286.037 387.948H288.468L285.361 393.039L288.538 398.13H286.062L283.974 394.655H283.894L281.806 398.13H279.34L282.527 393.039L279.4 387.948H281.841ZM289.79 400.994V390.494H291.879V391.776H291.973C292.066 391.571 292.2 391.362 292.376 391.15C292.555 390.934 292.787 390.755 293.072 390.613C293.36 390.467 293.718 390.394 294.146 390.394C294.702 390.394 295.216 390.54 295.687 390.832C296.157 391.12 296.534 391.556 296.815 392.139C297.097 392.719 297.238 393.447 297.238 394.322C297.238 395.173 297.1 395.893 296.825 396.479C296.554 397.063 296.182 397.505 295.712 397.807C295.244 398.105 294.721 398.254 294.141 398.254C293.73 398.254 293.38 398.186 293.092 398.05C292.807 397.914 292.573 397.744 292.391 397.538C292.208 397.329 292.069 397.119 291.973 396.907H291.908V400.994H289.79ZM291.864 394.312C291.864 394.766 291.927 395.162 292.053 395.5C292.179 395.838 292.361 396.102 292.599 396.29C292.838 396.476 293.128 396.569 293.469 396.569C293.814 396.569 294.106 396.474 294.344 396.285C294.583 396.093 294.764 395.828 294.886 395.49C295.012 395.149 295.075 394.756 295.075 394.312C295.075 393.871 295.014 393.483 294.891 393.148C294.769 392.814 294.588 392.552 294.349 392.363C294.111 392.174 293.817 392.079 293.469 392.079C293.125 392.079 292.833 392.171 292.594 392.353C292.359 392.535 292.179 392.794 292.053 393.128C291.927 393.463 291.864 393.858 291.864 394.312ZM303.06 387.948V398.13H300.907V389.991H300.847L298.516 391.453V389.544L301.036 387.948H303.06ZM309.243 398.269C308.501 398.269 307.839 398.142 307.259 397.886C306.683 397.628 306.227 397.273 305.892 396.822C305.561 396.368 305.39 395.845 305.38 395.251H307.548C307.561 395.5 307.642 395.719 307.791 395.908C307.944 396.093 308.146 396.237 308.398 396.34C308.65 396.443 308.933 396.494 309.248 396.494C309.576 396.494 309.866 396.436 310.118 396.32C310.37 396.204 310.567 396.044 310.71 395.838C310.852 395.633 310.923 395.396 310.923 395.127C310.923 394.855 310.847 394.615 310.695 394.406C310.546 394.194 310.33 394.028 310.048 393.909C309.77 393.79 309.439 393.73 309.054 393.73H308.105V392.149H309.054C309.379 392.149 309.666 392.093 309.914 391.98C310.166 391.867 310.362 391.712 310.501 391.513C310.64 391.311 310.71 391.075 310.71 390.807C310.71 390.552 310.648 390.328 310.526 390.136C310.406 389.94 310.237 389.788 310.019 389.678C309.803 389.569 309.551 389.514 309.263 389.514C308.971 389.514 308.704 389.567 308.463 389.673C308.221 389.776 308.027 389.923 307.881 390.116C307.735 390.308 307.657 390.533 307.647 390.792H305.584C305.594 390.205 305.761 389.688 306.086 389.241C306.411 388.793 306.848 388.444 307.399 388.192C307.952 387.936 308.577 387.809 309.273 387.809C309.976 387.809 310.59 387.936 311.117 388.192C311.644 388.447 312.054 388.792 312.345 389.226C312.64 389.657 312.786 390.141 312.783 390.677C312.786 391.248 312.609 391.723 312.251 392.104C311.896 392.486 311.434 392.727 310.864 392.83V392.91C311.613 393.006 312.183 393.266 312.574 393.69C312.968 394.111 313.164 394.638 313.161 395.271C313.164 395.851 312.997 396.367 312.659 396.817C312.324 397.268 311.861 397.623 311.271 397.881C310.682 398.14 310.005 398.269 309.243 398.269ZM318.472 398.269C317.729 398.269 317.068 398.142 316.488 397.886C315.911 397.628 315.455 397.273 315.121 396.822C314.789 396.368 314.619 395.845 314.609 395.251H316.776C316.79 395.5 316.871 395.719 317.02 395.908C317.172 396.093 317.375 396.237 317.626 396.34C317.878 396.443 318.162 396.494 318.477 396.494C318.805 396.494 319.095 396.436 319.347 396.32C319.598 396.204 319.796 396.044 319.938 395.838C320.081 395.633 320.152 395.396 320.152 395.127C320.152 394.855 320.076 394.615 319.923 394.406C319.774 394.194 319.559 394.028 319.277 393.909C318.999 393.79 318.667 393.73 318.283 393.73H317.333V392.149H318.283C318.607 392.149 318.894 392.093 319.143 391.98C319.395 391.867 319.59 391.712 319.729 391.513C319.869 391.311 319.938 391.075 319.938 390.807C319.938 390.552 319.877 390.328 319.754 390.136C319.635 389.94 319.466 389.788 319.247 389.678C319.032 389.569 318.78 389.514 318.491 389.514C318.2 389.514 317.933 389.567 317.691 389.673C317.449 389.776 317.255 389.923 317.109 390.116C316.964 390.308 316.886 390.533 316.876 390.792H314.812C314.822 390.205 314.99 389.688 315.315 389.241C315.639 388.793 316.077 388.444 316.627 388.192C317.181 387.936 317.805 387.809 318.501 387.809C319.204 387.809 319.819 387.936 320.346 388.192C320.873 388.447 321.282 388.792 321.574 389.226C321.869 389.657 322.015 390.141 322.011 390.677C322.015 391.248 321.837 391.723 321.479 392.104C321.125 392.486 320.662 392.727 320.092 392.83V392.91C320.841 393.006 321.411 393.266 321.803 393.69C322.197 394.111 322.393 394.638 322.389 395.271C322.393 395.851 322.225 396.367 321.887 396.817C321.552 397.268 321.09 397.623 320.5 397.881C319.91 398.14 319.234 398.269 318.472 398.269ZM328.018 390.494V392.084H323.42V390.494H328.018ZM324.464 388.664H326.581V395.783C326.581 395.979 326.611 396.131 326.671 396.241C326.731 396.347 326.814 396.421 326.92 396.464C327.029 396.508 327.155 396.529 327.297 396.529C327.397 396.529 327.496 396.521 327.596 396.504C327.695 396.484 327.771 396.469 327.824 396.459L328.157 398.035C328.051 398.069 327.902 398.107 327.71 398.15C327.518 398.196 327.284 398.224 327.009 398.234C326.499 398.254 326.051 398.186 325.667 398.03C325.286 397.875 324.989 397.633 324.777 397.305C324.565 396.977 324.46 396.562 324.464 396.062V388.664ZM331.68 393.715V398.13H329.562V387.948H331.62V391.841H331.71C331.882 391.39 332.16 391.037 332.545 390.782C332.929 390.523 333.412 390.394 333.992 390.394C334.522 390.394 334.984 390.51 335.379 390.742C335.776 390.971 336.085 391.301 336.303 391.731C336.526 392.159 336.635 392.671 336.632 393.268V398.13H334.514V393.646C334.517 393.175 334.398 392.809 334.156 392.547C333.917 392.285 333.582 392.154 333.151 392.154C332.863 392.154 332.608 392.215 332.386 392.338C332.167 392.461 331.995 392.64 331.869 392.875C331.746 393.107 331.683 393.387 331.68 393.715ZM344.13 398.13V399.736H337.443V398.13H344.13ZM350.802 398.13V399.736H344.115V398.13H350.802ZM357.195 396.221V395.684C357.195 395.276 357.281 394.902 357.454 394.56C357.629 394.216 357.883 393.941 358.214 393.735C358.549 393.526 358.957 393.422 359.438 393.422C359.925 393.422 360.334 393.525 360.665 393.73C361 393.936 361.252 394.211 361.421 394.555C361.594 394.897 361.68 395.273 361.68 395.684V396.221C361.68 396.628 361.594 397.005 361.421 397.349C361.249 397.691 360.995 397.964 360.661 398.17C360.326 398.378 359.918 398.483 359.438 398.483C358.95 398.483 358.541 398.378 358.21 398.17C357.878 397.964 357.626 397.691 357.454 397.349C357.281 397.005 357.195 396.628 357.195 396.221ZM358.642 395.684V396.221C358.642 396.456 358.698 396.678 358.811 396.887C358.927 397.096 359.136 397.2 359.438 397.2C359.739 397.2 359.945 397.097 360.054 396.892C360.167 396.686 360.223 396.463 360.223 396.221V395.684C360.223 395.442 360.17 395.217 360.064 395.008C359.958 394.799 359.749 394.695 359.438 394.695C359.139 394.695 358.932 394.799 358.816 395.008C358.7 395.217 358.642 395.442 358.642 395.684ZM351.97 390.394V389.857C351.97 389.446 352.058 389.07 352.234 388.729C352.409 388.384 352.663 388.109 352.994 387.903C353.329 387.698 353.733 387.595 354.207 387.595C354.698 387.595 355.109 387.698 355.44 387.903C355.772 388.109 356.024 388.384 356.196 388.729C356.368 389.07 356.455 389.446 356.455 389.857V390.394C356.455 390.805 356.367 391.181 356.191 391.523C356.019 391.864 355.765 392.137 355.43 392.343C355.099 392.545 354.691 392.646 354.207 392.646C353.723 392.646 353.314 392.544 352.979 392.338C352.648 392.129 352.396 391.856 352.224 391.518C352.055 391.176 351.97 390.802 351.97 390.394ZM353.427 389.857V390.394C353.427 390.636 353.483 390.86 353.596 391.065C353.712 391.271 353.916 391.374 354.207 391.374C354.512 391.374 354.719 391.271 354.829 391.065C354.942 390.86 354.998 390.636 354.998 390.394V389.857C354.998 389.615 354.945 389.39 354.839 389.181C354.733 388.972 354.522 388.868 354.207 388.868C353.912 388.868 353.709 388.974 353.596 389.186C353.483 389.398 353.427 389.622 353.427 389.857ZM352.626 398.13L359.626 387.948H360.929L353.929 398.13H352.626ZM365.18 398.13L363.102 390.494H365.244L366.428 395.624H366.497L367.73 390.494H369.833L371.086 395.594H371.151L372.314 390.494H374.452L372.379 398.13H370.136L368.824 393.327H368.729L367.417 398.13H365.18ZM375.581 398.13V390.494H377.699V398.13H375.581ZM376.645 389.509C376.331 389.509 376.06 389.405 375.835 389.196C375.613 388.984 375.502 388.73 375.502 388.435C375.502 388.144 375.613 387.893 375.835 387.685C376.06 387.472 376.331 387.366 376.645 387.366C376.96 387.366 377.229 387.472 377.451 387.685C377.676 387.893 377.789 388.144 377.789 388.435C377.789 388.73 377.676 388.984 377.451 389.196C377.229 389.405 376.96 389.509 376.645 389.509ZM379.436 398.13V387.948H383.453C384.225 387.948 384.883 388.096 385.426 388.391C385.97 388.682 386.384 389.088 386.669 389.609C386.958 390.126 387.102 390.722 387.102 391.398C387.102 392.075 386.956 392.671 386.664 393.188C386.373 393.705 385.95 394.108 385.397 394.396C384.846 394.685 384.18 394.829 383.398 394.829H380.838V393.104H383.05C383.464 393.104 383.806 393.032 384.074 392.89C384.346 392.744 384.548 392.544 384.681 392.288C384.817 392.03 384.885 391.733 384.885 391.398C384.885 391.06 384.817 390.765 384.681 390.513C384.548 390.258 384.346 390.061 384.074 389.922C383.802 389.779 383.458 389.708 383.04 389.708H381.588V398.13H379.436Z" fill="#001871"/>
<path d="M557.659 657.124C557.079 657.124 556.554 656.975 556.083 656.677C555.616 656.375 555.245 655.933 554.969 655.349C554.698 654.763 554.562 654.044 554.562 653.192C554.562 652.317 554.703 651.589 554.984 651.009C555.266 650.426 555.641 649.99 556.108 649.702C556.579 649.41 557.094 649.264 557.654 649.264C558.082 649.264 558.438 649.337 558.723 649.483C559.011 649.625 559.243 649.804 559.419 650.02C559.598 650.232 559.734 650.441 559.827 650.646H559.891V646.818H562.004V657H559.916V655.777H559.827C559.727 655.989 559.586 656.2 559.404 656.408C559.225 656.614 558.991 656.785 558.703 656.92C558.418 657.056 558.07 657.124 557.659 657.124ZM558.33 655.439C558.672 655.439 558.96 655.346 559.195 655.161C559.434 654.972 559.616 654.708 559.742 654.37C559.871 654.032 559.936 653.636 559.936 653.182C559.936 652.728 559.873 652.333 559.747 651.999C559.621 651.664 559.439 651.405 559.2 651.223C558.962 651.041 558.672 650.95 558.33 650.95C557.982 650.95 557.689 651.044 557.45 651.233C557.212 651.422 557.031 651.684 556.908 652.018C556.786 652.353 556.724 652.741 556.724 653.182C556.724 653.626 556.786 654.019 556.908 654.36C557.034 654.698 557.215 654.963 557.45 655.156C557.689 655.344 557.982 655.439 558.33 655.439ZM567.226 657.149C566.44 657.149 565.764 656.99 565.197 656.672C564.634 656.35 564.2 655.896 563.895 655.31C563.59 654.72 563.437 654.022 563.437 653.217C563.437 652.431 563.59 651.742 563.895 651.148C564.2 650.555 564.629 650.093 565.182 649.761C565.739 649.43 566.392 649.264 567.141 649.264C567.645 649.264 568.114 649.345 568.548 649.508C568.986 649.667 569.367 649.907 569.692 650.229C570.02 650.55 570.275 650.955 570.457 651.442C570.64 651.926 570.731 652.492 570.731 653.142V653.724H564.282V652.411H568.737C568.737 652.106 568.671 651.836 568.538 651.601C568.406 651.366 568.222 651.182 567.986 651.049C567.754 650.913 567.484 650.845 567.176 650.845C566.854 650.845 566.569 650.92 566.321 651.069C566.076 651.215 565.883 651.412 565.744 651.661C565.605 651.906 565.534 652.179 565.53 652.481V653.729C565.53 654.107 565.6 654.433 565.739 654.708C565.882 654.983 566.082 655.195 566.341 655.344C566.599 655.494 566.906 655.568 567.26 655.568C567.496 655.568 567.711 655.535 567.907 655.469C568.102 655.402 568.27 655.303 568.409 655.17C568.548 655.038 568.654 654.875 568.727 654.683L570.686 654.812C570.586 655.283 570.383 655.694 570.074 656.045C569.769 656.393 569.375 656.665 568.891 656.861C568.411 657.053 567.855 657.149 567.226 657.149ZM575.563 657.149C574.781 657.149 574.108 656.983 573.545 656.652C572.984 656.317 572.554 655.853 572.252 655.26C571.954 654.667 571.805 653.984 571.805 653.212C571.805 652.429 571.955 651.743 572.257 651.153C572.562 650.56 572.994 650.098 573.555 649.766C574.115 649.432 574.781 649.264 575.553 649.264C576.219 649.264 576.803 649.385 577.303 649.627C577.804 649.869 578.2 650.209 578.491 650.646C578.783 651.084 578.944 651.598 578.974 652.188H576.975C576.919 651.806 576.769 651.5 576.528 651.268C576.289 651.032 575.976 650.915 575.588 650.915C575.26 650.915 574.973 651.004 574.728 651.183C574.486 651.359 574.297 651.616 574.161 651.954C574.025 652.292 573.957 652.701 573.957 653.182C573.957 653.669 574.023 654.083 574.156 654.425C574.292 654.766 574.483 655.026 574.728 655.205C574.973 655.384 575.26 655.474 575.588 655.474C575.83 655.474 576.047 655.424 576.239 655.325C576.435 655.225 576.595 655.081 576.721 654.892C576.851 654.7 576.935 654.469 576.975 654.201H578.974C578.94 654.784 578.781 655.298 578.496 655.742C578.215 656.183 577.825 656.528 577.328 656.776C576.831 657.025 576.242 657.149 575.563 657.149ZM580.33 657V649.364H582.383V650.696H582.462C582.602 650.222 582.835 649.864 583.163 649.622C583.491 649.377 583.869 649.254 584.297 649.254C584.403 649.254 584.517 649.261 584.64 649.274C584.763 649.287 584.87 649.306 584.963 649.329V651.208C584.864 651.178 584.726 651.152 584.55 651.129C584.375 651.105 584.214 651.094 584.068 651.094C583.757 651.094 583.478 651.162 583.233 651.298C582.991 651.43 582.799 651.616 582.656 651.854C582.517 652.093 582.447 652.368 582.447 652.68V657H580.33ZM587.598 659.864C587.33 659.864 587.078 659.842 586.842 659.799C586.61 659.759 586.418 659.708 586.266 659.645L586.743 658.064C586.991 658.14 587.215 658.182 587.414 658.188C587.616 658.195 587.79 658.148 587.936 658.049C588.085 657.95 588.206 657.781 588.299 657.542L588.423 657.219L585.684 649.364H587.911L589.492 654.972H589.572L591.168 649.364H593.41L590.442 657.825C590.299 658.236 590.105 658.594 589.86 658.899C589.618 659.207 589.312 659.444 588.94 659.61C588.569 659.779 588.122 659.864 587.598 659.864ZM594.494 659.864V649.364H596.582V650.646H596.676C596.769 650.441 596.903 650.232 597.079 650.02C597.258 649.804 597.49 649.625 597.775 649.483C598.063 649.337 598.421 649.264 598.849 649.264C599.406 649.264 599.919 649.41 600.39 649.702C600.861 649.99 601.237 650.426 601.518 651.009C601.8 651.589 601.941 652.317 601.941 653.192C601.941 654.044 601.804 654.763 601.528 655.349C601.257 655.933 600.885 656.375 600.415 656.677C599.947 656.975 599.424 657.124 598.844 657.124C598.433 657.124 598.083 657.056 597.795 656.92C597.51 656.785 597.276 656.614 597.094 656.408C596.911 656.2 596.772 655.989 596.676 655.777H596.612V659.864H594.494ZM596.567 653.182C596.567 653.636 596.63 654.032 596.756 654.37C596.882 654.708 597.064 654.972 597.303 655.161C597.541 655.346 597.831 655.439 598.173 655.439C598.517 655.439 598.809 655.344 599.048 655.156C599.286 654.963 599.467 654.698 599.589 654.36C599.715 654.019 599.778 653.626 599.778 653.182C599.778 652.741 599.717 652.353 599.594 652.018C599.472 651.684 599.291 651.422 599.053 651.233C598.814 651.044 598.521 650.95 598.173 650.95C597.828 650.95 597.536 651.041 597.298 651.223C597.062 651.405 596.882 651.664 596.756 651.999C596.63 652.333 596.567 652.728 596.567 653.182ZM607.415 649.364V650.955H602.816V649.364H607.415ZM603.86 647.534H605.978V654.653C605.978 654.849 606.008 655.001 606.067 655.111C606.127 655.217 606.21 655.291 606.316 655.335C606.425 655.378 606.551 655.399 606.694 655.399C606.793 655.399 606.893 655.391 606.992 655.374C607.092 655.354 607.168 655.339 607.221 655.33L607.554 656.906C607.448 656.939 607.299 656.977 607.107 657.02C606.914 657.066 606.681 657.094 606.406 657.104C605.895 657.124 605.448 657.056 605.063 656.901C604.682 656.745 604.385 656.503 604.173 656.175C603.961 655.847 603.857 655.432 603.86 654.932V647.534ZM612.192 657.149C611.407 657.149 610.731 656.99 610.164 656.672C609.601 656.35 609.166 655.896 608.862 655.31C608.557 654.72 608.404 654.022 608.404 653.217C608.404 652.431 608.557 651.742 608.862 651.148C609.166 650.555 609.596 650.093 610.149 649.761C610.706 649.43 611.359 649.264 612.108 649.264C612.612 649.264 613.081 649.345 613.515 649.508C613.952 649.667 614.334 649.907 614.658 650.229C614.987 650.55 615.242 650.955 615.424 651.442C615.606 651.926 615.697 652.492 615.697 653.142V653.724H609.249V652.411H613.704C613.704 652.106 613.638 651.836 613.505 651.601C613.372 651.366 613.188 651.182 612.953 651.049C612.721 650.913 612.451 650.845 612.143 650.845C611.821 650.845 611.536 650.92 611.288 651.069C611.042 651.215 610.85 651.412 610.711 651.661C610.572 651.906 610.5 652.179 610.497 652.481V653.729C610.497 654.107 610.567 654.433 610.706 654.708C610.848 654.983 611.049 655.195 611.308 655.344C611.566 655.494 611.873 655.568 612.227 655.568C612.463 655.568 612.678 655.535 612.874 655.469C613.069 655.402 613.237 655.303 613.376 655.17C613.515 655.038 613.621 654.875 613.694 654.683L615.653 654.812C615.553 655.283 615.349 655.694 615.041 656.045C614.736 656.393 614.342 656.665 613.858 656.861C613.377 657.053 612.822 657.149 612.192 657.149ZM619.893 657.124C619.313 657.124 618.788 656.975 618.317 656.677C617.85 656.375 617.479 655.933 617.204 655.349C616.932 654.763 616.796 654.044 616.796 653.192C616.796 652.317 616.937 651.589 617.219 651.009C617.5 650.426 617.875 649.99 618.342 649.702C618.813 649.41 619.328 649.264 619.888 649.264C620.316 649.264 620.672 649.337 620.957 649.483C621.246 649.625 621.478 649.804 621.653 650.02C621.832 650.232 621.968 650.441 622.061 650.646H622.126V646.818H624.239V657H622.151V655.777H622.061C621.962 655.989 621.821 656.2 621.638 656.408C621.46 656.614 621.226 656.785 620.938 656.92C620.652 657.056 620.304 657.124 619.893 657.124ZM620.565 655.439C620.906 655.439 621.194 655.346 621.43 655.161C621.668 654.972 621.851 654.708 621.977 654.37C622.106 654.032 622.17 653.636 622.17 653.182C622.17 652.728 622.107 652.333 621.982 651.999C621.856 651.664 621.673 651.405 621.435 651.223C621.196 651.041 620.906 650.95 620.565 650.95C620.217 650.95 619.923 651.044 619.685 651.233C619.446 651.422 619.265 651.684 619.143 652.018C619.02 652.353 618.959 652.741 618.959 653.182C618.959 653.626 619.02 654.019 619.143 654.36C619.269 654.698 619.449 654.963 619.685 655.156C619.923 655.344 620.217 655.439 620.565 655.439Z" fill="black"/>
<path d="M222.325 657.149C221.54 657.149 220.864 656.99 220.297 656.672C219.733 656.35 219.299 655.896 218.994 655.31C218.689 654.72 218.537 654.022 218.537 653.217C218.537 652.431 218.689 651.742 218.994 651.148C219.299 650.555 219.728 650.093 220.282 649.761C220.839 649.43 221.492 649.264 222.241 649.264C222.745 649.264 223.214 649.345 223.648 649.508C224.085 649.667 224.466 649.907 224.791 650.229C225.119 650.55 225.375 650.955 225.557 651.442C225.739 651.926 225.83 652.492 225.83 653.142V653.724H219.382V652.411H223.837C223.837 652.106 223.77 651.836 223.638 651.601C223.505 651.366 223.321 651.182 223.086 651.049C222.854 650.913 222.584 650.845 222.276 650.845C221.954 650.845 221.669 650.92 221.42 651.069C221.175 651.215 220.983 651.412 220.844 651.661C220.705 651.906 220.633 652.179 220.63 652.481V653.729C220.63 654.107 220.7 654.433 220.839 654.708C220.981 654.983 221.182 655.195 221.44 655.344C221.699 655.494 222.005 655.568 222.36 655.568C222.595 655.568 222.811 655.535 223.006 655.469C223.202 655.402 223.369 655.303 223.509 655.17C223.648 655.038 223.754 654.875 223.827 654.683L225.786 654.812C225.686 655.283 225.482 655.694 225.174 656.045C224.869 656.393 224.475 656.665 223.991 656.861C223.51 657.053 222.955 657.149 222.325 657.149ZM229.33 652.585V657H227.212V649.364H229.231V650.711H229.32C229.489 650.267 229.773 649.915 230.17 649.657C230.568 649.395 231.05 649.264 231.617 649.264C232.147 649.264 232.61 649.38 233.004 649.612C233.399 649.844 233.705 650.176 233.924 650.607C234.143 651.034 234.252 651.545 234.252 652.138V657H232.134V652.516C232.138 652.048 232.018 651.684 231.776 651.422C231.534 651.157 231.201 651.024 230.777 651.024C230.492 651.024 230.24 651.085 230.021 651.208C229.806 651.331 229.637 651.51 229.514 651.745C229.395 651.977 229.334 652.257 229.33 652.585ZM239.372 657.149C238.589 657.149 237.917 656.983 237.353 656.652C236.793 656.317 236.362 655.853 236.061 655.26C235.762 654.667 235.613 653.984 235.613 653.212C235.613 652.429 235.764 651.743 236.066 651.153C236.37 650.56 236.803 650.098 237.363 649.766C237.923 649.432 238.589 649.264 239.362 649.264C240.028 649.264 240.611 649.385 241.112 649.627C241.612 649.869 242.008 650.209 242.3 650.646C242.592 651.084 242.752 651.598 242.782 652.188H240.784C240.727 651.806 240.578 651.5 240.336 651.268C240.097 651.032 239.784 650.915 239.396 650.915C239.068 650.915 238.782 651.004 238.536 651.183C238.294 651.359 238.106 651.616 237.97 651.954C237.834 652.292 237.766 652.701 237.766 653.182C237.766 653.669 237.832 654.083 237.965 654.425C238.101 654.766 238.291 655.026 238.536 655.205C238.782 655.384 239.068 655.474 239.396 655.474C239.638 655.474 239.856 655.424 240.048 655.325C240.243 655.225 240.404 655.081 240.53 654.892C240.659 654.7 240.744 654.469 240.784 654.201H242.782C242.749 654.784 242.59 655.298 242.305 655.742C242.023 656.183 241.634 656.528 241.137 656.776C240.639 657.025 240.051 657.149 239.372 657.149ZM244.138 657V649.364H246.191V650.696H246.271C246.41 650.222 246.644 649.864 246.972 649.622C247.3 649.377 247.678 649.254 248.105 649.254C248.212 649.254 248.326 649.261 248.449 649.274C248.571 649.287 248.679 649.306 248.772 649.329V651.208C248.672 651.178 248.535 651.152 248.359 651.129C248.183 651.105 248.023 651.094 247.877 651.094C247.565 651.094 247.287 651.162 247.042 651.298C246.8 651.43 246.607 651.616 246.465 651.854C246.326 652.093 246.256 652.368 246.256 652.68V657H244.138ZM251.407 659.864C251.138 659.864 250.886 659.842 250.651 659.799C250.419 659.759 250.227 659.708 250.074 659.645L250.551 658.064C250.8 658.14 251.024 658.182 251.223 658.188C251.425 658.195 251.599 658.148 251.745 658.049C251.894 657.95 252.015 657.781 252.108 657.542L252.232 657.219L249.493 649.364H251.72L253.301 654.972H253.38L254.976 649.364H257.218L254.25 657.825C254.108 658.236 253.914 658.594 253.669 658.899C253.427 659.207 253.12 659.444 252.749 659.61C252.378 659.779 251.93 659.864 251.407 659.864ZM258.302 659.864V649.364H260.39V650.646H260.485C260.578 650.441 260.712 650.232 260.887 650.02C261.066 649.804 261.298 649.625 261.583 649.483C261.872 649.337 262.23 649.264 262.657 649.264C263.214 649.264 263.728 649.41 264.199 649.702C264.669 649.99 265.045 650.426 265.327 651.009C265.609 651.589 265.75 652.317 265.75 653.192C265.75 654.044 265.612 654.763 265.337 655.349C265.065 655.933 264.694 656.375 264.223 656.677C263.756 656.975 263.232 657.124 262.652 657.124C262.241 657.124 261.892 657.056 261.603 656.92C261.318 656.785 261.085 656.614 260.902 656.408C260.72 656.2 260.581 655.989 260.485 655.777H260.42V659.864H258.302ZM260.375 653.182C260.375 653.636 260.438 654.032 260.564 654.37C260.69 654.708 260.873 654.972 261.111 655.161C261.35 655.346 261.64 655.439 261.981 655.439C262.326 655.439 262.618 655.344 262.856 655.156C263.095 654.963 263.275 654.698 263.398 654.36C263.524 654.019 263.587 653.626 263.587 653.182C263.587 652.741 263.526 652.353 263.403 652.018C263.28 651.684 263.1 651.422 262.861 651.233C262.623 651.044 262.329 650.95 261.981 650.95C261.636 650.95 261.345 651.041 261.106 651.223C260.871 651.405 260.69 651.664 260.564 651.999C260.438 652.333 260.375 652.728 260.375 653.182ZM271.223 649.364V650.955H266.625V649.364H271.223ZM267.669 647.534H269.787V654.653C269.787 654.849 269.816 655.001 269.876 655.111C269.936 655.217 270.019 655.291 270.125 655.335C270.234 655.378 270.36 655.399 270.502 655.399C270.602 655.399 270.701 655.391 270.801 655.374C270.9 655.354 270.976 655.339 271.029 655.33L271.363 656.906C271.257 656.939 271.107 656.977 270.915 657.02C270.723 657.066 270.489 657.094 270.214 657.104C269.704 657.124 269.256 657.056 268.872 656.901C268.491 656.745 268.194 656.503 267.982 656.175C267.77 655.847 267.665 655.432 267.669 654.932V647.534ZM276.001 657.149C275.216 657.149 274.539 656.99 273.973 656.672C273.409 656.35 272.975 655.896 272.67 655.31C272.365 654.72 272.213 654.022 272.213 653.217C272.213 652.431 272.365 651.742 272.67 651.148C272.975 650.555 273.404 650.093 273.958 649.761C274.515 649.43 275.167 649.264 275.917 649.264C276.42 649.264 276.889 649.345 277.324 649.508C277.761 649.667 278.142 649.907 278.467 650.229C278.795 650.55 279.05 650.955 279.233 651.442C279.415 651.926 279.506 652.492 279.506 653.142V653.724H273.058V652.411H277.512C277.512 652.106 277.446 651.836 277.314 651.601C277.181 651.366 276.997 651.182 276.762 651.049C276.53 650.913 276.26 650.845 275.951 650.845C275.63 650.845 275.345 650.92 275.096 651.069C274.851 651.215 274.659 651.412 274.52 651.661C274.38 651.906 274.309 652.179 274.306 652.481V653.729C274.306 654.107 274.375 654.433 274.515 654.708C274.657 654.983 274.858 655.195 275.116 655.344C275.375 655.494 275.681 655.568 276.036 655.568C276.271 655.568 276.487 655.535 276.682 655.469C276.878 655.402 277.045 655.303 277.184 655.17C277.324 655.038 277.43 654.875 277.502 654.683L279.461 654.812C279.362 655.283 279.158 655.694 278.85 656.045C278.545 656.393 278.15 656.665 277.667 656.861C277.186 657.053 276.631 657.149 276.001 657.149ZM283.702 657.124C283.122 657.124 282.597 656.975 282.126 656.677C281.659 656.375 281.288 655.933 281.012 655.349C280.741 654.763 280.605 654.044 280.605 653.192C280.605 652.317 280.746 651.589 281.027 651.009C281.309 650.426 281.684 649.99 282.151 649.702C282.622 649.41 283.137 649.264 283.697 649.264C284.125 649.264 284.481 649.337 284.766 649.483C285.054 649.625 285.286 649.804 285.462 650.02C285.641 650.232 285.777 650.441 285.87 650.646H285.934V646.818H288.047V657H285.959V655.777H285.87C285.77 655.989 285.629 656.2 285.447 656.408C285.268 656.614 285.034 656.785 284.746 656.92C284.461 657.056 284.113 657.124 283.702 657.124ZM284.373 655.439C284.715 655.439 285.003 655.346 285.238 655.161C285.477 654.972 285.659 654.708 285.785 654.37C285.914 654.032 285.979 653.636 285.979 653.182C285.979 652.728 285.916 652.333 285.79 651.999C285.664 651.664 285.482 651.405 285.243 651.223C285.005 651.041 284.715 650.95 284.373 650.95C284.025 650.95 283.732 651.044 283.493 651.233C283.255 651.422 283.074 651.684 282.951 652.018C282.829 652.353 282.767 652.741 282.767 653.182C282.767 653.626 282.829 654.019 282.951 654.36C283.077 654.698 283.258 654.963 283.493 655.156C283.732 655.344 284.025 655.439 284.373 655.439Z" fill="black"/>
<defs>
<clipPath id="clip0_1_2">
<rect width="57" height="44" fill="white" transform="translate(103 368.13)"/>
</clipPath>
<clipPath id="clip1_1_2">
<rect width="48" height="46" fill="white" transform="translate(385 118)"/>
</clipPath>
<clipPath id="clip2_1_2">
<rect width="57" height="44" fill="white" transform="translate(590 371)"/>
</clipPath>
<clipPath id="clip3_1_2">
<rect width="27.4576" height="28.1593" fill="white" transform="translate(398.576 635.575)"/>
</clipPath>
</defs>
</svg>
