<svg width="86" height="87" viewBox="0 0 86 87" fill="none" xmlns="http://www.w3.org/2000/svg">
<path fill-rule="evenodd" clip-rule="evenodd" d="M0 24.0688C0 10.814 10.7452 0.0688477 24 0.0688477H62C75.2548 0.0688477 86 10.814 86 24.0688V62.0688C86 75.3237 75.2548 86.0688 62 86.0688H24C10.7452 86.0688 0 75.3237 0 62.0688V24.0688ZM38.0797 43.0696L19.9793 61.1699L25.6098 66.8003L39.7292 52.6809V65.72H35.3232V72.6489H52.0977V65.72H47.6919V52.6816L61.8105 66.8003L67.441 61.1699L49.3405 43.0696L67.4426 24.9675L61.8121 19.3372L47.6919 33.4573V20.4172H52.0971V13.4883H35.3227V20.4172H39.7292V33.4583L25.6082 19.3372L19.9778 24.9675L38.0797 43.0696ZM14.1292 39.0364H24.6342L28.6152 43.0693L24.6342 47.1025H14.1292V39.0364ZM61.3659 47.1025H71.8708V39.0366H61.3659L57.3848 43.0696L61.3659 47.1025Z" fill="black"/>
</svg>
