<svg width="500" height="500" viewBox="0 0 500 500" fill="none" xmlns="http://www.w3.org/2000/svg">
<path d="M375.7 328.5L366.6 322.5C366.6 322.5 375 314.9 381.4 303L395.7 312.2L388.5 323.6L375.7 328.5Z" fill="#FF7E6E"/>
<path d="M375.7 328.8H375.5L366.5 322.9C366.5 322.9 366.4 322.8 366.4 322.7V322.5C366.4 322.5 374.8 314.8 381.1 303.1C381.1 303.1 381.2 303 381.3 303H381.5L395.8 312.2C395.9 312.2 396 312.5 395.8 312.6L388.6 324C388.6 324 388.6 324 388.5 324.1L375.7 328.9C375.7 328.9 375.7 328.9 375.6 328.9L375.7 328.8ZM367.1 322.4L375.7 328.1L388.3 323.3L395.3 312.2L381.5 303.3C375.8 313.7 368.6 320.9 367.1 322.3V322.4Z" fill="#101720"/>
<path d="M432.9 288.6C436.1 292.4 437.4 296.2 420.6 316.6C403.8 336.9 397.8 345.2 393.2 344.7C391.8 344.5 389.2 343.1 386.2 341.2C382.2 338.6 377.5 335.2 374.4 332.8C372.2 331.1 370.7 329.9 370.7 329.9C368 321.8 380.7 324.5 384 321.3C387.3 318.1 385.4 315.4 385 311.6C384.7 308.3 384.4 305.3 385.5 304.2C387.4 302.3 400.1 295.7 409.7 290.8C410.4 290.5 411 290.1 411.7 289.8C413.5 288.9 415.1 288.1 416.5 287.4C425.2 283.1 429.9 284.8 433 288.5L432.9 288.6Z" fill="#FFFFFE"/>
<path d="M432.9 288.6C436.1 292.4 437.4 296.2 420.6 316.6C403.8 336.9 397.8 345.2 393.2 344.7C391.8 344.5 389.2 343.1 386.2 341.2C399.3 331.4 430 295.6 432.9 288.6Z" fill="#008EB1"/>
<path d="M409.7 290.9C409.7 290.9 411 296 401.3 302.5C391.5 309 385.1 311.7 385.1 311.7C384.8 308.4 384.5 305.4 385.6 304.3C387.5 302.4 400.2 295.8 409.8 290.9H409.7Z" fill="#008EB1"/>
<path d="M381.6 338.1H381.4C381.3 338 381.3 337.8 381.4 337.7C381.6 337.5 398.4 322.2 401.7 317.9C404.4 314.4 404.1 309.4 401 302.7C401 302.5 401 302.4 401.1 302.3C401.3 302.3 401.4 302.3 401.5 302.4C404.8 309.3 405 314.5 402.1 318.2C398.8 322.6 382.4 337.5 381.7 338.1C381.7 338.1 381.6 338.1 381.5 338.1H381.6Z" fill="#101720"/>
<path d="M393.6 345C393.4 345 393.3 345 393.2 345C391.9 344.8 389.5 343.7 386.1 341.5C381.7 338.7 376.8 335 374.3 333.1C372.1 331.4 370.6 330.2 370.6 330.2C370.6 330.2 370.6 330.2 370.6 330.1C370.1 328.4 370.1 327.1 370.7 326.1C371.9 324.1 375 323.6 378.1 323.1C380.5 322.7 382.9 322.3 384 321.2C385.6 319.6 385.3 315.4 384.9 311.8C384.6 308.3 384.3 305.3 385.5 304.1C387.4 302.2 399.7 295.7 409.7 290.7L416.4 287.3C424.1 283.5 429.4 283.9 433.3 288.5C436.6 292.5 437.5 296.7 421 316.8C418.7 319.6 416.7 322.1 414.8 324.4C403 338.8 397.9 345 393.8 345H393.6ZM371 329.8C371.3 330.1 372.7 331.1 374.6 332.6C377.1 334.5 382 338.2 386.4 341C389.7 343.1 392.1 344.3 393.3 344.4C397.1 344.8 402.1 338.7 414.2 324C416.1 321.7 418.2 319.1 420.4 316.4C436.7 296.6 435.9 292.6 432.7 288.8C430.4 286.1 426.2 283.1 416.6 287.8L409.9 291.2C395.8 298.3 387.2 303 385.8 304.5C384.8 305.5 385.1 308.5 385.4 311.7C385.8 315.7 386.1 319.8 384.3 321.7C382.5 323.6 380.7 323.3 378.1 323.7C375.2 324.2 372.2 324.7 371.2 326.4C370.7 327.3 370.6 328.4 371.1 329.8H371Z" fill="#101720"/>
<path d="M400.9 346.1L391.8 340.1C391.8 340.1 400.2 332.5 406.6 320.6L420.9 329.8L413.7 341.2L400.9 346.1Z" fill="#FF7E6E"/>
<path d="M400.8 346.5H400.6L391.6 340.6C391.6 340.6 391.5 340.5 391.5 340.4V340.2C391.5 340.2 399.9 332.5 406.2 320.8C406.2 320.8 406.3 320.7 406.4 320.7H406.6L420.9 329.9C421 329.9 421.1 330.2 420.9 330.3L413.7 341.7C413.7 341.7 413.7 341.7 413.6 341.8L400.8 346.6C400.8 346.6 400.8 346.6 400.7 346.6L400.8 346.5ZM392.3 340.1L400.9 345.8L413.5 341L420.5 329.9L406.7 321C401 331.4 393.8 338.6 392.3 340V340.1Z" fill="#101720"/>
<path d="M458.1 306.3C461.3 310.1 462.6 313.9 445.8 334.3C429 354.6 423 362.9 418.4 362.4C417 362.2 414.4 360.8 411.4 358.9C407.4 356.3 402.7 352.9 399.6 350.5C397.4 348.8 395.9 347.6 395.9 347.6C393.2 339.5 405.9 342.2 409.2 339C412.5 335.8 410.6 333.1 410.2 329.3C409.9 326 409.6 323 410.7 321.9C412.6 320 425.3 313.4 434.9 308.5C435.6 308.2 436.2 307.8 436.9 307.5C438.7 306.6 440.3 305.8 441.7 305.1C450.4 300.8 455.1 302.5 458.2 306.2L458.1 306.3Z" fill="#FFFFFE"/>
<path d="M458.1 306.3C461.3 310.1 462.6 313.9 445.8 334.3C429 354.6 423 362.9 418.4 362.4C417 362.2 414.4 360.8 411.4 358.9C424.5 349.1 455.2 313.3 458.1 306.3Z" fill="#008EB1"/>
<path d="M434.8 308.6C434.8 308.6 436.1 313.7 426.4 320.2C416.6 326.7 410.2 329.4 410.2 329.4C409.9 326.1 409.6 323.1 410.7 322C412.6 320.1 425.3 313.5 434.9 308.6H434.8Z" fill="#008EB1"/>
<path d="M406.8 355.8H406.6C406.5 355.7 406.5 355.5 406.6 355.4C406.8 355.2 423.6 339.9 426.9 335.6C429.6 332.1 429.3 327.1 426.2 320.4C426.2 320.2 426.2 320.1 426.3 320C426.5 320 426.6 320 426.7 320.1C430 327 430.2 332.2 427.3 335.9C424 340.3 407.6 355.2 406.9 355.8C406.9 355.8 406.8 355.8 406.7 355.8H406.8Z" fill="#101720"/>
<path d="M418.8 362.7C418.6 362.7 418.5 362.7 418.4 362.7C417.1 362.5 414.7 361.4 411.3 359.2C406.9 356.4 402 352.7 399.5 350.8C397.3 349.1 395.8 347.9 395.8 347.9C395.8 347.9 395.8 347.9 395.8 347.8C395.3 346.1 395.3 344.8 395.9 343.8C397.1 341.8 400.2 341.3 403.3 340.8C405.7 340.4 408.1 340 409.2 338.9C410.8 337.3 410.5 333.1 410.1 329.5C409.8 326 409.5 323 410.7 321.8C412.6 319.9 424.9 313.4 434.9 308.4L441.6 305C449.3 301.2 454.6 301.6 458.5 306.2C461.8 310.2 462.7 314.4 446.2 334.5C443.9 337.3 441.9 339.8 440 342.1C428.2 356.5 423.1 362.7 419 362.7H418.8ZM396.1 347.5C396.4 347.8 397.8 348.8 399.7 350.3C402.2 352.2 407.1 355.9 411.5 358.7C414.8 360.8 417.2 362 418.4 362.1C422.2 362.5 427.2 356.4 439.3 341.7C441.2 339.4 443.3 336.8 445.5 334.1C461.8 314.3 461 310.3 457.8 306.5C455.5 303.8 451.3 300.8 441.7 305.5L435 308.9C420.9 316 412.3 320.7 410.9 322.2C409.9 323.2 410.2 326.2 410.5 329.4C410.9 333.4 411.2 337.5 409.4 339.4C408.2 340.6 405.8 341 403.2 341.4C400.3 341.9 397.3 342.4 396.3 344.1C395.8 345 395.7 346.1 396.2 347.5H396.1Z" fill="#101720"/>
<path d="M237.2 302.7C237.2 302.7 301 263.5 315.2 266.8C332.8 271 410.3 316.9 410.3 316.9C410.3 316.9 405.7 337.6 392.1 349.1C378.5 360.6 237.2 350.8 237.2 350.8V302.7Z" fill="#FF9C0F"/>
<mask id="mask0_8_727" style="mask-type:luminance" maskUnits="userSpaceOnUse" x="237" y="266" width="174" height="89">
<path d="M237.2 302.7C237.2 302.7 301 263.5 315.2 266.8C332.8 271 410.3 316.9 410.3 316.9C410.3 316.9 405.7 337.6 392.1 349.1C378.5 360.6 237.2 350.8 237.2 350.8V302.7Z" fill="white"/>
</mask>
<g mask="url(#mask0_8_727)">
<path d="M266.5 298.6C261.3 317.1 268.3 327 283.8 325.3C299.3 323.6 316 314.1 322.8 309.9C329.6 305.7 327.5 307.9 325.7 309.4C323.9 310.9 321.9 312.6 321.9 312.6C321.9 312.6 328.9 320.3 358.1 317.2C387.3 314.1 395.5 339.2 395.5 339.2L238.8 340.7L243.5 297.7L266.4 298.4L266.5 298.6Z" fill="#008FB1"/>
<path d="M300.6 319C295.1 322.2 289.2 324.6 283 326.1C282.4 326.2 282.7 327.1 283.2 327C289.5 325.5 295.5 323.1 301 319.8C301.5 319.5 301 318.7 300.5 319H300.6Z" fill="#008FB1"/>
<path d="M303.6 318V317.9C303.6 317.9 303.6 317.9 303.6 317.8C303.6 317.8 303.6 317.8 303.6 317.7C303.6 317.7 303.6 317.7 303.5 317.7C303.5 317.7 303.4 317.7 303.3 317.7C303.3 317.7 303.2 317.7 303.1 317.7H303C303 317.7 303 317.7 302.9 317.7C302.8 317.7 302.9 317.7 302.9 317.8C302.9 317.8 302.9 317.8 302.9 317.9C302.9 317.9 302.9 318 302.9 318.1C302.9 318.2 302.9 318.2 302.9 318.3C302.9 318.3 302.9 318.4 303 318.4C303 318.4 303.1 318.4 303.2 318.4C303.3 318.4 303.3 318.4 303.4 318.4C303.4 318.4 303.4 318.4 303.5 318.4C303.5 318.4 303.5 318.4 303.6 318.4C303.7 318.4 303.7 318.4 303.8 318.2C303.8 318.2 303.8 318.2 303.8 318.1C303.8 318 303.8 318 303.8 318H303.6Z" fill="#008FB1"/>
</g>
<path d="M338.2 355C294.7 355 240.8 351.3 237.2 351.1C237 351.1 236.9 351 236.9 350.8V302.7C236.9 302.6 236.9 302.5 237.1 302.4C238.2 301.7 253.8 292.2 270.7 283.3C294.3 270.8 309.3 265.2 315.2 266.6C332.7 270.7 409.6 316.3 410.4 316.7C410.5 316.7 410.6 316.9 410.5 317C410.5 317.2 405.7 337.9 392.2 349.4C387.1 353.7 364.5 355.1 338 355.1L338.2 355ZM237.5 350.5C240.9 350.7 274.7 353 309.6 354C358 355.3 386.5 353.6 391.9 348.9C404.5 338.2 409.4 319.3 409.9 317.1C405.6 314.6 332 271.2 315.1 267.2C301.5 264 240.9 300.9 237.5 302.9V350.6V350.5Z" fill="#101720"/>
<path d="M229.3 244.1L183.2 278.7L260.4 308.9L306.5 274.3L229.3 244.1Z" fill="#FFFFFE"/>
<path d="M260.4 309.2C260.4 309.2 260.4 309.2 260.3 309.2L183.1 279C183 279 182.9 278.9 182.9 278.8C182.9 278.7 182.9 278.6 183 278.5L229.1 243.9C229.1 243.9 229.3 243.9 229.4 243.9L306.6 274.1C306.7 274.1 306.8 274.2 306.8 274.3C306.8 274.4 306.8 274.5 306.7 274.6L260.6 309.2C260.6 309.2 260.5 309.2 260.4 309.2ZM183.8 278.6L260.4 308.5L306 274.4L229.4 244.5L183.8 278.6Z" fill="#101720"/>
<path d="M231.3 248.3L206.5 266.2L273.799 292.6L298.6 274.6L231.3 248.3Z" fill="#FFFFFE"/>
<path d="M273.8 292.9C273.8 292.9 273.8 292.9 273.7 292.9L206.4 266.6C206.3 266.6 206.2 266.5 206.2 266.4C206.2 266.3 206.2 266.2 206.3 266.1L231.1 248.1C231.1 248.1 231.3 248.1 231.4 248.1L298.7 274.4C298.8 274.4 298.9 274.5 298.9 274.6C298.9 274.7 298.9 274.8 298.8 274.9L274 292.9C274 292.9 273.9 292.9 273.8 292.9ZM207.1 266.2L273.8 292.3L298 274.8L231.3 248.7L207.1 266.2Z" fill="#101720"/>
<path d="M222.8 276.5L209.6 285.7L235.8 295.9L248.9 286.8L222.8 276.5Z" fill="#FFFFFE"/>
<path d="M235.8 296.2C235.8 296.2 235.8 296.2 235.7 296.2L209.6 286C209.5 286 209.4 285.9 209.4 285.8C209.4 285.7 209.4 285.6 209.5 285.5L222.7 276.3C222.7 276.3 222.9 276.3 223 276.3L249.2 286.5C249.3 286.5 249.4 286.6 249.4 286.7C249.4 286.8 249.4 286.9 249.3 287L236.1 296.2C236.1 296.2 236 296.2 235.9 296.2H235.8ZM210.2 285.6L235.7 295.6L248.3 286.9L222.8 276.9L210.2 285.6Z" fill="#101720"/>
<path d="M229.3 244.1L242.3 177.2L319.5 207.4L306.5 274.3L229.3 244.1Z" fill="#FFFFFE"/>
<path d="M306.5 274.6C306.5 274.6 306.5 274.6 306.4 274.6L229.2 244.4C229.1 244.4 229 244.2 229 244.1L242 177.2C242 177.2 242 177 242.1 177C242.1 177 242.3 177 242.4 177L319.6 207.2C319.7 207.2 319.8 207.4 319.8 207.5L306.8 274.4C306.8 274.4 306.8 274.6 306.6 274.6C306.6 274.6 306.6 274.6 306.5 274.6ZM229.7 244L306.3 274L319.1 207.7L242.5 177.7L229.6 244H229.7Z" fill="#101720"/>
<path d="M234 242.2L245.6 182.3L314.799 209.3L303.2 269.3L234 242.2Z" fill="#008EB1"/>
<path d="M303.2 269.6C303.2 269.6 303.2 269.6 303.1 269.6L233.9 242.5C233.8 242.5 233.7 242.3 233.7 242.2L245.3 182.3C245.3 182.3 245.3 182.1 245.4 182.1C245.4 182.1 245.6 182.1 245.7 182.1L314.9 209.1C315 209.1 315.1 209.3 315.1 209.4L303.5 269.3C303.5 269.3 303.5 269.5 303.3 269.5C303.3 269.5 303.3 269.5 303.2 269.5V269.6ZM234.4 242L303 268.8L314.5 209.4L245.9 182.6L234.4 241.9V242Z" fill="#101720"/>
<path d="M306.5 274.3L307.1 280.3L260.9 314.8L260.4 308.9L306.5 274.3Z" fill="#8FDCE8"/>
<path d="M260.9 315.1C260.9 315.1 260.9 315.1 260.8 315.1C260.8 315.1 260.6 315 260.6 314.9L260.1 309C260.1 308.9 260.1 308.8 260.2 308.7L306.3 274.1C306.3 274.1 306.5 274.1 306.6 274.1C306.6 274.1 306.8 274.2 306.8 274.3L307.3 280.2C307.3 280.3 307.3 280.4 307.2 280.5L261.1 315.1C261.1 315.1 261 315.1 260.9 315.1ZM260.7 309L261.2 314.2L306.8 280.1L306.3 274.9L260.7 309Z" fill="#101720"/>
<path d="M183.2 278.7L183.7 284.6L260.9 314.8L260.4 308.9L183.2 278.7Z" fill="#101720"/>
<path d="M260.9 315.1C260.9 315.1 260.9 315.1 260.8 315.1L183.6 284.9C183.5 284.9 183.4 284.8 183.4 284.6L182.9 278.7C182.9 278.6 182.9 278.5 183 278.4C183 278.4 183.2 278.4 183.3 278.4L260.5 308.6C260.6 308.6 260.7 308.7 260.7 308.9L261.2 314.8C261.2 314.9 261.2 315 261.1 315.1C261.1 315.1 261 315.1 260.9 315.1ZM184 284.4L260.6 314.3L260.1 309L183.5 279.1L184 284.4Z" fill="#101720"/>
<path d="M86.0997 258.6C76.6997 265.7 63.8997 277.3 61.0997 291.9C58.2997 306.5 86.8997 291.9 86.8997 291.9L86.0997 258.6Z" fill="#FF7E6E"/>
<path d="M66.6999 298.7C64.9999 298.7 63.4999 298.4 62.3999 297.6C60.8999 296.5 60.3999 294.6 60.8999 291.9C62.9999 280.5 71.1999 269.6 85.9999 258.4C85.9999 258.4 86.0999 258.4 86.1999 258.4C86.3999 258.4 86.4999 258.5 86.4999 258.7L87.2999 292C87.2999 292.1 87.2999 292.2 87.0999 292.3C86.4999 292.6 74.2999 298.8 66.6999 298.8V298.7ZM85.7999 259.2C71.3999 270.2 63.4999 280.9 61.3999 292C60.8999 294.4 61.3999 296.2 62.6999 297.1C67.7999 300.9 84.6999 292.7 86.5999 291.7L85.7999 259.2Z" fill="#101720"/>
<path d="M82.7002 262.7C77.5002 268.3 73.2002 278.6 73.2002 278.6L76.5002 277.8L82.7002 262.6V262.7Z" fill="#101720"/>
<path d="M73.3001 279C73.3001 279 73.1001 279 73.1001 278.9C73.1001 278.9 73.1001 278.7 73.1001 278.6C73.1001 278.5 77.4001 268.2 82.6001 262.6C82.6001 262.5 82.9001 262.5 83.0001 262.6C83.1001 262.6 83.2001 262.8 83.1001 263L76.9001 278.2C76.9001 278.2 76.8001 278.4 76.7001 278.4L73.4001 279.2L73.3001 279ZM81.8001 264.3C77.9001 269.2 74.7001 276.2 73.8001 278.2L76.4001 277.6L81.8001 264.3Z" fill="#101720"/>
<path d="M76.5999 277.9C59.6999 280.7 34.1999 304.5 41.1999 336.2C48.1999 367.9 73.3999 381.4 140.4 381.4H356.6C356.6 381.4 391.4 382 404.7 364.1C418 346.2 407.3 312 382.2 312.7C357.2 313.5 316.5 327.6 285.1 331.3C253.7 335 230.3 325.7 217 318.9C203.7 312.1 167.2 269.1 167.2 269.1H92.6999L76.5999 277.8V277.9Z" fill="#8FDCE8"/>
<mask id="mask1_8_727" style="mask-type:luminance" maskUnits="userSpaceOnUse" x="40" y="269" width="371" height="113">
<path d="M76.5999 277.9C59.6999 280.7 34.1999 304.5 41.1999 336.2C48.1999 367.9 73.3999 381.4 140.4 381.4H356.6C356.6 381.4 391.4 382 404.7 364.1C418 346.2 407.3 312 382.2 312.7C357.2 313.5 316.5 327.6 285.1 331.3C253.7 335.1 230.3 325.7 217 318.9C203.7 312.1 167.2 269.1 167.2 269.1H92.6999L76.5999 277.8V277.9Z" fill="white"/>
</mask>
<g mask="url(#mask1_8_727)">
<path d="M406.8 302.5C395.5 339.3 371.1 366.5 302.8 367.9C234.5 369.3 186.1 325.3 186.1 325.3C186.1 325.3 183.7 352.2 115.2 355.5C46.7 358.8 31.5 321.6 31.5 321.6L42 394L277 432.5L445.6 399.2L450.4 280.8L406.9 302.4L406.8 302.5Z" fill="#008FB1"/>
</g>
<path d="M356.8 381.7C356.6 381.7 356.5 381.7 356.5 381.7H140.3C106.6 381.7 83.6999 378.3 68.0999 370.9C53.1999 363.8 44.4999 352.8 40.7999 336.2C36.9999 319.2 42.7999 305.9 48.2999 297.8C55.3999 287.3 66.6999 279.2 76.3999 277.6L92.3999 268.9C92.3999 268.9 92.3999 268.9 92.4999 268.9H167C167 268.9 167.2 268.9 167.2 269C167.6 269.4 203.8 312 216.9 318.7C238.3 329.7 261.2 333.9 284.8 331.1C299.2 329.4 315.5 325.5 331.4 321.7C350.4 317.2 368.4 312.9 381.9 312.5C382.2 312.5 382.4 312.5 382.7 312.5C392.6 312.5 401.1 318 406.1 327.7C412.3 339.7 411.7 354.7 404.6 364.3C397.7 373.6 384.9 377.9 375.4 379.8C366.2 381.7 358.2 381.8 356.6 381.8L356.8 381.7ZM76.4999 278.2C66.9999 279.8 55.8999 287.8 48.7999 298.2C43.3999 306.2 37.6999 319.3 41.3999 336.1C44.9999 352.5 53.5999 363.4 68.2999 370.4C83.7999 377.7 106.6 381.1 140.2 381.1H356.4C356.4 381.1 365.2 381.2 375.4 379.1C384.8 377.2 397.4 373 404.2 363.9C411.2 354.5 411.8 339.7 405.7 327.9C400.6 318.1 392 312.7 382 313C368.5 313.4 350.5 317.7 331.6 322.2C315.7 326 299.4 329.9 285 331.6C261.2 334.4 238.3 330.3 216.8 319.2C204 312.6 169.1 271.9 167 269.5H92.6999L76.6999 278.1C76.6999 278.1 76.6999 278.1 76.5999 278.1L76.4999 278.2Z" fill="#101720"/>
<path d="M109.5 276.8C125 274.3 136.4 248.6 136.4 248.6L140.7 241L143.8 235.6L144.2 234.8L162.4 202.4L163.5 200.5C163.9 199.9 164.3 199.1 164.7 198.3C167.8 192.4 171.6 182.3 167.2 178C162.2 173.1 149.6 171 141.6 175.3C133.6 179.6 130.4 184.3 130.4 184.3C130.4 184.3 118.7 187.8 115.1 212.3C111.5 236.8 89.0998 229.9 84.5998 252.2C81.5998 266.8 93.9998 279.5 109.5 277V276.8Z" fill="#FF9C0F"/>
<path d="M105.6 277.4C99.4999 277.4 93.7999 275.1 89.5999 270.7C84.7999 265.7 82.8999 258.9 84.2999 251.9C86.4999 241 93.0999 236.9 99.3999 233C106.1 228.9 113 224.6 114.8 212.1C118.3 188.6 129 184.3 130.2 183.9C130.7 183.2 133.9 178.9 141.4 174.9C149.7 170.5 162.4 172.8 167.4 177.7C168.7 179 172.4 184.3 165 198.4C164.6 199.2 164.2 199.9 163.8 200.6L162.7 202.5L136.7 248.7C136.7 248.7 133.8 255.2 129 261.9C124.6 268.1 117.7 275.7 109.6 277C108.3 277.2 107 277.3 105.7 277.3L105.6 277.4ZM151.9 173.2C148.3 173.2 144.7 173.9 141.7 175.5C133.9 179.7 130.7 184.3 130.6 184.4C130.6 184.4 130.6 184.5 130.4 184.5C130.3 184.5 118.8 188.2 115.3 212.2C113.4 225 106.4 229.4 99.5999 233.6C93.0999 237.6 86.8999 241.5 84.7999 252.1C83.3999 258.8 85.2999 265.5 89.9999 270.3C94.8999 275.4 102 277.7 109.4 276.5C117.3 275.2 124.1 267.7 128.5 261.6C133.2 255 136.1 248.5 136.1 248.5L163.2 200.3C163.6 199.6 164 198.9 164.4 198.1C168.2 191 170.8 181.9 166.9 178.1C163.9 175.1 157.9 173.1 151.8 173.1L151.9 173.2Z" fill="#101720"/>
<path d="M109.5 276.8C125 274.3 136.4 248.6 136.4 248.6L141 247.9L140.8 241V239.3L134.8 233.3C128.2 244 112 256.4 99.4998 256.5C86.9998 256.6 84.5998 252 84.5998 252C81.5998 266.6 93.9998 279.3 109.5 276.8Z" fill="#101720"/>
<path d="M105.6 277.4C99.4999 277.4 93.7999 275.1 89.5999 270.7C84.7999 265.7 82.8999 258.9 84.2999 251.9C84.2999 251.8 84.2999 251.7 84.4999 251.6C84.5999 251.6 84.7999 251.6 84.7999 251.8C84.7999 251.8 87.2999 256.3 99.3999 256.1C111.7 256 127.7 243.8 134.4 233C134.4 233 134.5 232.9 134.6 232.9H134.8L140.7 238.9C140.7 238.9 140.7 239 140.7 239.1L141 247.7C141 247.9 140.9 248 140.7 248L136.3 248.7C135.3 250.8 124.1 274.5 109.2 276.9C107.9 277.1 106.6 277.2 105.4 277.2L105.6 277.4ZM84.6999 252.7C83.5999 259.2 85.4999 265.6 89.9999 270.3C94.8999 275.4 102 277.7 109.4 276.5C124.5 274 135.9 248.8 136 248.5C136 248.5 136.1 248.3 136.2 248.3L140.5 247.6L140.2 239.4L134.6 233.7C127.7 244.6 111.6 256.6 99.2999 256.8C89.3999 256.8 85.6999 254 84.5999 252.7H84.6999Z" fill="#101720"/>
<path d="M169.1 213.2C169.1 213.2 172 223.3 168.3 228.5C164.4 234.1 152.4 234.9 152.4 234.9L155.7 245.5L136.4 248.6L134.7 233.2L139.6 223.1C133 220.3 133.9 213 137.3 210.4C138.2 209.7 139.2 209.4 140.2 209.4C145.5 209.7 146.4 218.4 146.4 218.4L149.7 217.9L151.1 205.6C155.4 202.8 160.7 199.3 162.1 191.7C162.1 191.9 163.6 194.5 164.6 198C167.3 207.6 171.5 207.6 172.2 209.8C172.9 212 169.1 213.3 169.1 213.3V213.2Z" fill="#FF7E6D"/>
<mask id="mask2_8_727" style="mask-type:luminance" maskUnits="userSpaceOnUse" x="134" y="191" width="39" height="58">
<path d="M169.1 213.2C169.1 213.2 172 223.3 168.3 228.5C164.4 234.1 152.4 234.9 152.4 234.9L155.7 245.5L136.4 248.6L134.7 233.2L139.6 223.1C133 220.3 133.9 213.1 137.3 210.4C138.2 209.7 139.2 209.4 140.2 209.4C145.5 209.7 146.4 218.4 146.4 218.4L149.7 217.9L151.1 205.6C155.4 202.8 160.7 199.3 162.1 191.7C162.1 191.9 163.6 194.5 164.6 198C167.3 207.5 171.5 207.6 172.2 209.8C172.9 212 169.1 213.3 169.1 213.3V213.2Z" fill="white"/>
</mask>
<g mask="url(#mask2_8_727)">
<path d="M149.8 217.9C149.8 217.9 144.7 221.4 145.3 226.1C146.2 233.2 156.5 233.3 162.8 232.6C171.1 231.6 161.6 245.7 161.6 245.7C161.6 245.7 140.1 246.4 139.6 246.5C139.1 246.6 129 247 129 247C129 247 126.5 216.9 126.6 216.7C126.7 216.5 134.3 205.7 134.3 205.7L145.9 209.1L149.8 217.9Z" fill="#008FB1"/>
</g>
<path d="M136.4 248.9C136.4 248.9 136.3 248.9 136.2 248.9C136.2 248.9 136.1 248.7 136.2 248.7L134.5 233.4C134.5 233.4 134.5 233.3 134.5 233.2L139.3 223.4C136.6 222.1 134.9 220 134.5 217.3C134.1 214.6 135.2 211.8 137.2 210.3C138.2 209.6 139.2 209.2 140.3 209.2C145.3 209.5 146.5 216.5 146.7 218.1L149.5 217.7L150.8 205.6C150.8 205.6 150.8 205.4 150.9 205.4C155.1 202.6 160.4 199.2 161.7 191.7C161.7 191.6 161.8 191.5 162 191.5C162.1 191.5 162.3 191.5 162.3 191.7C163.6 194.3 164.4 196.6 164.8 198C164.8 198.1 164.8 198.2 164.8 198.3C166.6 204.5 169 206.5 170.6 207.8C171.4 208.5 172 209 172.3 209.8C172.5 210.3 172.4 210.9 172.2 211.4C171.6 212.6 169.9 213.3 169.3 213.6C169.3 213.9 169.5 214.3 169.6 215C170.2 217.8 171.2 224.7 168.3 228.8C164.7 234 154.7 235.1 152.6 235.3L155.8 245.6V245.8C155.8 245.8 155.7 245.9 155.6 245.9L136.4 249C136.4 249 136.4 249 136.3 249L136.4 248.9ZM135 233.3L136.6 248.2L155.3 245.2L152.1 234.9C152.1 234.9 152.1 234.7 152.1 234.6C152.1 234.6 152.2 234.5 152.3 234.5C152.4 234.5 164.2 233.7 168 228.3C170.7 224.4 169.7 217.6 169.2 214.9C169 214 168.8 213.4 168.8 213.4C168.8 213.2 168.8 213.1 169 213C169 213 171.2 212.3 171.9 211C172.1 210.6 172.1 210.3 171.9 209.9C171.7 209.3 171.1 208.8 170.4 208.2C168.8 206.8 166.3 204.7 164.4 198.4C164.4 198.4 164.4 198.2 164.3 198.1C163.9 196.8 163.3 194.9 162.2 192.6C160.6 199.7 155.5 203.1 151.4 205.8L150.1 217.9C150.1 218 150 218.1 149.8 218.2L146.5 218.7H146.3C146.3 218.7 146.2 218.6 146.2 218.5C146.2 218.5 145.3 210.1 140.3 209.8C139.3 209.8 138.4 210.1 137.6 210.7C135.8 212.1 134.8 214.7 135.2 217.2C135.5 219.7 137.2 221.8 139.9 222.9C139.9 222.9 140 222.9 140.1 223.1V223.3L135.2 233.3H135Z" fill="#101720"/>
<path d="M165.1 206.4C165.1 206.4 163.2 204 159.9 205C156.6 206 156.5 208.3 156.5 208.3C156.5 208.3 158.4 210.7 161.4 209.9C164.4 209 165 206.4 165 206.4H165.1Z" fill="#FFFFFE"/>
<mask id="mask3_8_727" style="mask-type:luminance" maskUnits="userSpaceOnUse" x="156" y="204" width="10" height="7">
<path d="M165.1 206.4C165.1 206.4 163.2 204 159.9 205C156.6 206 156.5 208.3 156.5 208.3C156.5 208.3 158.4 210.8 161.4 209.9C164.4 209 165 206.4 165 206.4H165.1Z" fill="white"/>
</mask>
<g mask="url(#mask3_8_727)">
<path d="M162.2 209.9C163.415 209.9 164.4 208.915 164.4 207.7C164.4 206.485 163.415 205.5 162.2 205.5C160.985 205.5 160 206.485 160 207.7C160 208.915 160.985 209.9 162.2 209.9Z" fill="#101720"/>
</g>
<path d="M161.9 222.3C161.6 222.3 161.3 222.3 161 222.1C160.1 221.7 159.4 220.8 159.3 219.5C159.3 219.3 159.4 219.2 159.6 219.2C159.8 219.2 159.9 219.3 159.9 219.5C160 220.5 160.5 221.3 161.2 221.6C161.9 221.9 162.6 221.7 163.2 221.2C163.3 221.1 163.5 221.2 163.6 221.2C163.7 221.3 163.6 221.5 163.6 221.6C163.1 222 162.5 222.3 161.9 222.3Z" fill="#101720"/>
<path d="M156.2 205.1C156.2 205.1 156.2 205.1 156.1 205.1C156 205.1 155.9 204.9 156 204.7C156.5 203.6 157.8 202.6 159.5 202.2C161.3 201.7 163 202 164.2 202.8C164.3 202.8 164.4 203.1 164.2 203.2C164.2 203.3 163.9 203.4 163.8 203.2C162.7 202.5 161.2 202.3 159.6 202.7C158.1 203.1 157 203.9 156.5 204.9C156.5 205 156.3 205.1 156.2 205.1Z" fill="#101720"/>
<path d="M159.9 205C159.9 205 158.3 205.4 157.3 206.5C156.3 207.6 156.1 208.6 155.7 208.8L156.3 209.2C156.3 209.2 157.7 205.9 159.9 205Z" fill="#101720"/>
<path d="M162.1 192C161.9 192 161.8 191.8 161.9 191.6C162 190.9 162.1 190.1 162.2 189.3C162.2 189.1 162.4 189 162.5 189C162.7 189 162.8 189.2 162.8 189.3C162.8 190.1 162.6 190.9 162.5 191.7C162.5 191.8 162.3 191.9 162.2 191.9L162.1 192Z" fill="#101720"/>
<path d="M152.4 234.9C145.9 235.4 139.8 234.1 139.8 234.1L153.7 239L152.4 234.9Z" fill="#101720"/>
<path d="M153.7 239.3L139.8 234.4C139.7 234.4 139.6 234.2 139.6 234C139.6 233.8 139.8 233.8 140 233.8C140 233.8 146.1 235.1 152.5 234.6C152.6 234.6 152.8 234.6 152.8 234.8L154.1 238.9C154.1 239 154.1 239.1 154.1 239.2C154.1 239.2 154 239.2 153.9 239.2L153.7 239.3ZM142.9 234.9L153.2 238.5L152.2 235.2C148.7 235.4 145.3 235.2 143 234.9H142.9Z" fill="#101720"/>
<path d="M143.4 215.8C143.3 215.8 143.2 215.8 143.1 215.6C142.3 213.8 141.1 213.4 140.4 213.3C139.5 213.3 138.5 213.6 138.1 214.3C138.1 214.4 137.8 214.5 137.7 214.3C137.6 214.1 137.5 214 137.7 213.9C138.3 213 139.4 212.5 140.6 212.7C141.4 212.7 142.9 213.2 143.8 215.3C143.8 215.5 143.8 215.6 143.6 215.7C143.6 215.7 143.6 215.7 143.5 215.7L143.4 215.8Z" fill="#101720"/>
<path d="M141.2 218.7C141.2 218.7 141.2 218.7 141.1 218.7C138.7 217.4 139.2 213.3 139.2 213.1C139.2 212.9 139.4 212.8 139.5 212.8C139.7 212.8 139.8 213 139.8 213.1C139.8 213.1 139.3 217 141.3 218.1C141.4 218.1 141.5 218.4 141.4 218.5C141.4 218.6 141.2 218.7 141.1 218.7H141.2Z" fill="#101720"/>
<path d="M169.1 213.2L167.2 213.8L169.5 214.9L169.1 213.2Z" fill="#101720"/>
<path d="M169.5 215.2C169.5 215.2 169.5 215.2 169.4 215.2L167.1 214.1C167 214.1 166.9 213.9 166.9 213.8C166.9 213.7 166.9 213.6 167.1 213.5L169 212.9H169.2C169.2 212.9 169.3 213 169.3 213.1L169.7 214.7C169.7 214.8 169.7 214.9 169.6 215C169.6 215 169.5 215 169.4 215L169.5 215.2ZM168 213.9L169 214.4L168.8 213.7L167.9 214L168 213.9Z" fill="#101720"/>
<path d="M133.5 186.9C133.5 186.9 134.6 197.2 130.8 202.2C127 207.2 115.1 212.1 115.1 212.1L116.3 205.7L133.5 186.9Z" fill="#101720"/>
<path d="M115.1 212.4C115.1 212.4 115 212.4 114.9 212.4C114.9 212.4 114.8 212.2 114.8 212.1L116 205.7V205.6L133.2 186.8C133.2 186.8 133.4 186.7 133.5 186.8C133.6 186.9 133.7 187 133.7 187.1C133.7 187.7 134.7 197.6 130.9 202.6C127.1 207.6 115.5 212.4 115 212.6C115 212.6 115 212.6 114.9 212.6L115.1 212.4ZM116.6 205.9L115.5 211.6C117.8 210.6 127.4 206.3 130.6 202C133.7 197.9 133.4 189.9 133.3 187.6L116.6 205.9Z" fill="#101720"/>
<path d="M134.5 180C134.5 180 136.9 188.2 132.3 196.4C127.7 204.6 116.4 205.8 116.4 205.8C116.4 205.8 102.6 193.2 110.6 183.8C122.3 170 134.5 180 134.5 180Z" fill="#FF9C0F"/>
<path d="M116.3 206.1C116.3 206.1 116.2 206.1 116.1 206.1C116 206 102.2 193.2 110.3 183.7C121.7 170.3 133.7 179.1 134.6 179.8C134.6 179.8 134.7 179.8 134.8 180C134.8 180 137.1 188.4 132.5 196.6C127.9 204.9 116.5 206.1 116.3 206.1ZM124.3 176.8C120.3 176.8 115.5 178.4 110.8 184C103.5 192.6 115.2 204.3 116.5 205.5C117.8 205.3 127.9 203.8 132.1 196.3C136.3 188.8 134.6 181.2 134.3 180.2C133.7 179.7 129.7 176.8 124.4 176.8H124.3Z" fill="#101720"/>
<path d="M112.5 201.7C112.3 201.7 112.2 201.6 112.2 201.4C112.2 201.2 112.3 201.1 112.5 201.1C115.7 200.9 126.4 196 128.2 188.3C128.2 188.1 128.4 188 128.6 188.1C128.8 188.1 128.9 188.3 128.8 188.5C126.9 196.6 116 201.5 112.5 201.7Z" fill="#101720"/>
<path d="M201.7 274.7L198.3 279.3L190 290.7H171.2C117.3 270.5 76.4995 277.9 76.4995 277.9C76.7995 275.8 77.2995 273.8 77.8995 271.7C81.9995 259.8 93.4995 249.4 111 243C133.6 234.8 151.4 237 175.4 252.9C199.3 268.8 201.6 274.6 201.6 274.6L201.7 274.7Z" fill="#FFFFFE"/>
<path d="M190 291H171.2C171.2 291 171.2 291 171.1 291C143.3 280.6 119.1 277.7 103.6 277.1C86.8997 276.4 76.5997 278.3 76.4997 278.3C76.4997 278.3 76.2997 278.3 76.1997 278.3C76.1997 278.3 76.0997 278.1 76.1997 278C76.4997 275.9 76.9997 273.8 77.6997 271.8C81.9997 259.5 93.7997 249.2 111 243C134.1 234.6 152.2 237.4 175.7 252.9C198.5 268 201.7 274 202 274.7C202 274.7 202 274.9 202 275L190.4 291C190.4 291 190.3 291.1 190.2 291.1L190 291ZM171.3 290.4H189.9L201.3 274.7C200.8 273.8 196.9 267.6 175.3 253.3C152 237.9 134.1 235.1 111.2 243.4C94.1997 249.6 82.4997 259.7 78.2997 271.9C77.5997 273.8 77.1997 275.7 76.8997 277.6C81.2997 276.9 120.8 271.5 171.3 290.4Z" fill="#101720"/>
<path d="M191.5 269C191.5 269 185.9 265.3 176.5 259.5C175.8 259 174.9 258.5 174 258C165.4 252.6 149.4 242.6 131.3 242.6C113.2 242.6 122.1 243.3 117.8 244.6C96.5999 251 82.6999 265.8 78.8999 270.3C83.5999 258.8 94.9999 249.3 111.2 243.4C119.8 240.3 127.5 238.8 134.9 238.8C147.7 238.8 160.2 243.3 175.3 253.3C196.9 267.6 200.8 273.8 201.3 274.7L198.3 278.8L191.4 269H191.5Z" fill="#8FDCE8"/>
<path d="M173.1 297.8C169.8 290.5 170.9 281.8 176.2 275.8C176.5 275.5 176.7 275.2 177 274.9C184.8 266.9 198.6 262.3 212.2 290.7C212.2 290.7 209.6 275.3 215.4 268C221.2 260.7 228.2 259.8 238.9 259.8C249.6 259.8 258.3 263 250.8 266.3C250.8 266.3 266.7 269.1 257.7 273.2C257.7 273.2 263.5 275.8 262.5 278.8C261.5 281.8 259.2 281 259.2 281C259.2 281 263.6 287.7 258.4 287.6C253.2 287.5 245.9 285.5 248.4 303.3C250.9 321 258.8 344.8 250.1 365C241.4 385.3 217.1 381.5 203.7 359.1C193.4 341.8 179.1 311.1 173.1 297.9V297.8Z" fill="#FF7E6D"/>
<mask id="mask4_8_727" style="mask-type:luminance" maskUnits="userSpaceOnUse" x="171" y="259" width="92" height="120">
<path d="M173.1 297.8C169.8 290.5 170.9 281.8 176.2 275.8C176.5 275.5 176.7 275.2 177 274.9C184.8 266.9 198.6 262.3 212.2 290.7C212.2 290.7 209.6 275.3 215.4 268C221.2 260.7 228.2 259.8 238.9 259.8C249.6 259.8 258.3 263 250.8 266.3C250.8 266.3 266.7 269.1 257.7 273.2C257.7 273.2 263.5 275.8 262.5 278.8C261.5 281.8 259.2 281 259.2 281C259.2 281 263.6 287.7 258.4 287.6C253.2 287.5 245.9 285.5 248.4 303.3C250.9 321 258.8 344.7 250.1 365C241.4 385.3 217.1 381.5 203.7 359.1C193.4 341.8 179.1 311.1 173.1 297.9V297.8Z" fill="white"/>
</mask>
<g mask="url(#mask4_8_727)">
<path d="M213.5 271.5C212.7 279.7 217.1 290.6 224.4 302.5C231.7 314.4 238.2 331.1 233.8 324.1C229.4 317.2 214.4 293.7 214.4 293.7C214.4 293.7 212.3 291.5 211.4 286.2C210.5 280.9 210.7 271.4 213.7 271.4" fill="#008FB1"/>
<path d="M238.6 370.8C232.6 372.5 226.1 370.5 219.7 365.9C218.6 364.9 217.6 363.9 216.6 362.8C214.8 360.9 213.1 358.8 211.9 356.5C211.6 356 210.8 356.5 211.1 357C211.9 358.6 213 360 214.1 361.4C202.5 350.6 191.7 332.4 185.2 313.6C174.1 281.4 181.6 271.1 189.6 268.7L167.1 269.2L154.3 298.4L167.9 352.9L201.7 378.1L233.7 388.1L259.3 379.3V346.4C259.3 346.4 257.3 365.6 238.6 370.8Z" fill="#008FB1"/>
<path d="M252.3 261.4C252.1 263.4 250.7 263.4 244.4 263.9C238.1 264.4 235 264.5 233.6 265.1C232.2 265.7 232.3 266.9 235.4 266.5C238.5 266.1 243.5 265.8 246.8 266C250.1 266.2 253.7 266.4 253.7 266.4L261.4 268.6C261.4 268.6 261.9 271.2 256.9 270.3C251.9 269.4 250.3 268.3 245.3 268.9C240.3 269.5 237.6 272.2 240.4 271.8C243.2 271.4 246.8 270.1 252.3 271.6C257.8 273.1 260.4 273.8 260.4 273.8C260.4 273.8 264.4 276.7 264.1 278C263.8 279.3 262.8 279.5 257.8 277.6C252.8 275.7 249.5 275.3 246.3 276.6C243.1 277.9 244.1 279.7 246.2 278.9C248.3 278.1 250.4 276.9 255.5 278.9C260.6 280.9 261.9 283.2 261.9 283.2C261.9 283.2 262.5 285.2 257.3 284.6C252.1 284 247.6 286 248 294.6C248.4 303.2 264.6 296 264.6 296L272.2 269.9L260.9 255.4L252.3 261.4Z" fill="#008FB1"/>
<path d="M211.3 355.2C211.3 355.2 211.3 355.1 211.2 355C211.2 355 211.1 355 211 355C211 355 210.9 355 210.8 355C210.8 355 210.7 355 210.7 355.1C210.7 355.1 210.7 355.1 210.6 355.2C210.6 355.2 210.6 355.3 210.6 355.4C210.6 355.6 210.6 355.7 210.7 355.7C210.7 355.7 210.8 355.7 210.9 355.7C210.9 355.7 211 355.7 211.1 355.7C211.1 355.7 211.2 355.7 211.2 355.6C211.2 355.6 211.2 355.6 211.3 355.5C211.3 355.5 211.3 355.4 211.3 355.3C211.3 355.2 211.3 355.3 211.3 355.2Z" fill="#008FB1"/>
</g>
<path d="M231.5 378.5C221.2 378.5 210.6 371.2 203.4 359.2C193 341.9 178.6 310.6 172.8 298C169.4 290.4 170.6 281.7 176 275.7C176.3 275.4 176.5 275.1 176.8 274.8C180 271.5 185.2 267.7 191.6 268.8C198.8 270 205.5 276.8 211.7 289.1C211.2 284.8 210.5 273.9 215.2 268C220.8 260.9 227.3 259.6 238.9 259.6C250.5 259.6 253.3 261 253.9 263.6C254.1 264.5 253.4 265.4 251.8 266.3C254.3 266.8 260.5 268.3 260.8 270.6C260.9 271.5 260.1 272.4 258.4 273.3C259.9 274.1 263.7 276.3 262.8 279C262.5 280.1 261.9 280.9 261.1 281.2C260.6 281.4 260.2 281.5 259.8 281.5C260.5 282.7 261.8 285.4 261 286.9C260.6 287.7 259.7 288 258.4 288C258 288 257.5 288 257.1 288C254.5 287.9 251.9 287.7 250.2 289.6C248.2 291.8 247.7 296.3 248.7 303.3C249.2 307.1 250 311.1 250.8 315.3C253.8 331.2 257.2 349.1 250.4 365.2C246.9 373.3 240.8 378.1 233 378.6C232.5 378.6 232 378.6 231.6 378.6L231.5 378.5ZM173.4 297.7C179.2 310.4 193.6 341.6 203.9 358.9C211.3 371.3 222.4 378.6 232.9 377.9C240.4 377.4 246.4 372.8 249.8 364.9C256.6 349 253.2 331.1 250.2 315.4C249.4 311.2 248.6 307.1 248.1 303.4C247.1 296.1 247.6 291.5 249.7 289.2C251.6 287.1 254.5 287.2 257.1 287.4C257.5 287.4 258 287.4 258.4 287.4C259.4 287.4 260.1 287.2 260.4 286.6C261.2 285.2 259.6 282.3 258.9 281.3C258.9 281.2 258.9 281.1 258.9 281C258.9 280.9 259.1 280.9 259.2 281C259.2 281 260 281.3 260.7 280.9C261.3 280.6 261.8 280 262.1 279C263 276.3 257.5 273.8 257.5 273.7C257.4 273.7 257.3 273.5 257.3 273.4C257.3 273.3 257.3 273.2 257.5 273.1C259.3 272.3 260.2 271.5 260.1 270.7C259.9 268.7 253.2 267.2 250.7 266.8C250.6 266.8 250.5 266.7 250.5 266.5C250.5 266.4 250.5 266.2 250.7 266.2C252.5 265.4 253.4 264.5 253.3 263.8C252.9 262.1 247.3 260.3 238.9 260.3C230.5 260.3 221.1 261.5 215.6 268.4C210 275.5 212.5 290.7 212.5 290.8C212.5 290.9 212.5 291.1 212.3 291.1C212.2 291.1 212 291.1 211.9 290.9C205.6 277.7 198.7 270.5 191.5 269.3C185.3 268.3 180.3 271.9 177.2 275.1C176.9 275.4 176.7 275.7 176.4 276C171.2 281.8 170 290.4 173.4 297.7Z" fill="#101720"/>
<path d="M235 326.5C235 326.5 234.8 326.5 234.7 326.4L212 290.9C212 290.8 212 290.6 212 290.5C212.1 290.5 212.3 290.5 212.4 290.5L235.1 326C235.1 326.1 235.1 326.3 235.1 326.4C235.1 326.4 235 326.4 234.9 326.4L235 326.5Z" fill="#101720"/>
<path d="M259.2 281.2C259.2 281.2 259.1 281.2 259 281.2C256.3 278.9 248.6 276.7 245.6 279.7C245.5 279.8 245.3 279.8 245.2 279.7C245.1 279.6 245.1 279.4 245.2 279.3C248.5 276.1 256.5 278.4 259.5 280.8C259.6 280.9 259.6 281.1 259.5 281.2C259.5 281.2 259.4 281.3 259.3 281.3L259.2 281.2Z" fill="#101720"/>
<path d="M257.7 273.4C257.7 273.4 257.7 273.4 257.6 273.4C251 270.9 244.5 270.6 240.2 272.5C240 272.5 239.9 272.5 239.8 272.3C239.8 272.1 239.8 272 240 271.9C244.4 269.9 251.1 270.3 257.8 272.8C258 272.8 258 273 258 273.2C258 273.3 257.8 273.4 257.7 273.4Z" fill="#101720"/>
<path d="M233.7 267.1C233.6 267.1 233.4 267 233.4 266.9C233.4 266.7 233.4 266.6 233.6 266.6C233.6 266.6 241.4 265.2 250.9 266C251.1 266 251.2 266.2 251.2 266.3C251.2 266.5 251 266.6 250.9 266.6C241.6 265.8 233.9 267.2 233.8 267.2L233.7 267.1Z" fill="#101720"/>
<path d="M302.7 328.5L319.4 314.9C319.4 314.9 315.7 321.1 315.5 322.9C315.3 324.7 317.3 325.4 317.3 325.4L302.7 328.5Z" fill="#101720"/>
<path d="M302.7 328.8C302.7 328.8 302.6 328.8 302.5 328.8C302.5 328.8 302.4 328.7 302.4 328.6C302.4 328.5 302.4 328.4 302.5 328.4L319.2 314.8C319.3 314.8 319.5 314.8 319.6 314.8C319.7 314.8 319.7 315.1 319.6 315.2C319.6 315.2 315.9 321.4 315.7 323.1C315.5 324.6 317.3 325.2 317.3 325.2C317.4 325.2 317.5 325.4 317.5 325.5C317.5 325.6 317.4 325.7 317.3 325.8L302.7 329V328.8ZM318.4 316.1L303.9 327.9L316.5 325.2C315.8 324.7 315.1 323.9 315.3 322.8C315.5 321.5 317.4 318 318.5 316.1H318.4Z" fill="#101720"/>
<path d="M316.5 317.6C316.5 317.6 316.3 317.6 316.3 317.5C316.2 317.4 316.3 317.2 316.3 317.1L327.9 307.2C328 307.1 328.2 307.2 328.3 307.2C328.4 307.3 328.3 307.5 328.3 307.6L316.7 317.5C316.7 317.5 316.6 317.5 316.5 317.5V317.6Z" fill="#101720"/>
<path d="M450.4 56H266.5V235.1L254.9 250.1H450.4V56Z" fill="#FFFFFE"/>
<path d="M450.4 250.4H254.9C254.8 250.4 254.7 250.4 254.6 250.2C254.6 250.1 254.6 250 254.6 249.9L266.1 235V56C266.1 55.8 266.2 55.7 266.4 55.7H450.3C450.5 55.7 450.6 55.8 450.6 56V250.2C450.6 250.4 450.5 250.5 450.3 250.5L450.4 250.4ZM255.5 249.8H450.1V56.2999H266.8V235.2C266.8 235.2 266.8 235.3 266.8 235.4L255.6 249.9L255.5 249.8Z" fill="#101720"/>
<path d="M297.5 204.2H419.5C428.3 204.2 435.5 211.4 435.5 220.2C435.5 229 428.3 236.2 419.5 236.2H297.5C288.7 236.2 281.5 229 281.5 220.2C281.5 211.4 288.7 204.2 297.5 204.2Z" fill="#8FDCE8"/>
<path d="M419.4 236.5H297.4C288.4 236.5 281.1 229.2 281.1 220.2C281.1 211.2 288.4 203.9 297.4 203.9H419.4C428.4 203.9 435.7 211.2 435.7 220.2C435.7 229.2 428.4 236.5 419.4 236.5ZM297.5 204.5C288.8 204.5 281.8 211.6 281.8 220.2C281.8 228.8 288.9 235.9 297.5 235.9H419.5C428.2 235.9 435.2 228.8 435.2 220.2C435.2 211.6 428.1 204.5 419.5 204.5H297.5Z" fill="#101720"/>
<path d="M415.8 226.7V213.8L427 220.2L415.8 226.7Z" fill="#FFFFFE"/>
<path d="M415.8 227C415.8 227 415.7 227 415.6 227C415.6 227 415.5 226.8 415.5 226.7V213.8C415.5 213.7 415.5 213.6 415.6 213.5C415.6 213.5 415.8 213.5 415.9 213.5L427.1 220C427.1 220 427.2 220.2 427.2 220.3C427.2 220.4 427.2 220.5 427.1 220.6L415.9 227.1C415.9 227.1 415.9 227.1 415.7 227.1L415.8 227ZM416.1 214.3V226.2L426.4 220.2L416.1 214.2V214.3Z" fill="#101720"/>
<path d="M427 220.5H415.8C415.6 220.5 415.5 220.4 415.5 220.2C415.5 220 415.6 219.9 415.8 219.9H427C427.2 219.9 427.3 220 427.3 220.2C427.3 220.4 427.2 220.5 427 220.5Z" fill="#101720"/>
<path d="M298.2 222.2C299.304 222.2 300.2 221.305 300.2 220.2C300.2 219.095 299.304 218.2 298.2 218.2C297.095 218.2 296.2 219.095 296.2 220.2C296.2 221.305 297.095 222.2 298.2 222.2Z" fill="#FFFFFE"/>
<path d="M298.2 222.5C296.9 222.5 295.9 221.5 295.9 220.2C295.9 218.9 296.9 217.9 298.2 217.9C299.5 217.9 300.5 218.9 300.5 220.2C300.5 221.5 299.5 222.5 298.2 222.5ZM298.2 218.5C297.3 218.5 296.5 219.3 296.5 220.2C296.5 221.1 297.3 221.9 298.2 221.9C299.1 221.9 299.9 221.1 299.9 220.2C299.9 219.3 299.1 218.5 298.2 218.5Z" fill="#101720"/>
<path d="M311.5 222.2C312.605 222.2 313.5 221.305 313.5 220.2C313.5 219.095 312.605 218.2 311.5 218.2C310.395 218.2 309.5 219.095 309.5 220.2C309.5 221.305 310.395 222.2 311.5 222.2Z" fill="#FFFFFE"/>
<path d="M311.5 222.5C310.2 222.5 309.2 221.5 309.2 220.2C309.2 218.9 310.2 217.9 311.5 217.9C312.8 217.9 313.8 218.9 313.8 220.2C313.8 221.5 312.8 222.5 311.5 222.5ZM311.5 218.5C310.6 218.5 309.8 219.3 309.8 220.2C309.8 221.1 310.6 221.9 311.5 221.9C312.4 221.9 313.2 221.1 313.2 220.2C313.2 219.3 312.4 218.5 311.5 218.5Z" fill="#101720"/>
<path d="M324.8 222.2C325.904 222.2 326.8 221.305 326.8 220.2C326.8 219.095 325.904 218.2 324.8 218.2C323.695 218.2 322.8 219.095 322.8 220.2C322.8 221.305 323.695 222.2 324.8 222.2Z" fill="#FFFFFE"/>
<path d="M324.8 222.5C323.5 222.5 322.5 221.5 322.5 220.2C322.5 218.9 323.5 217.9 324.8 217.9C326.1 217.9 327.1 218.9 327.1 220.2C327.1 221.5 326.1 222.5 324.8 222.5ZM324.8 218.5C323.9 218.5 323.1 219.3 323.1 220.2C323.1 221.1 323.9 221.9 324.8 221.9C325.7 221.9 326.5 221.1 326.5 220.2C326.5 219.3 325.7 218.5 324.8 218.5Z" fill="#101720"/>
<path d="M338.2 222.2C339.304 222.2 340.2 221.305 340.2 220.2C340.2 219.095 339.304 218.2 338.2 218.2C337.095 218.2 336.2 219.095 336.2 220.2C336.2 221.305 337.095 222.2 338.2 222.2Z" fill="#FFFFFE"/>
<path d="M338.2 222.5C336.9 222.5 335.9 221.5 335.9 220.2C335.9 218.9 336.9 217.9 338.2 217.9C339.5 217.9 340.5 218.9 340.5 220.2C340.5 221.5 339.5 222.5 338.2 222.5ZM338.2 218.5C337.3 218.5 336.5 219.3 336.5 220.2C336.5 221.1 337.3 221.9 338.2 221.9C339.1 221.9 339.9 221.1 339.9 220.2C339.9 219.3 339.1 218.5 338.2 218.5Z" fill="#101720"/>
<path d="M351.5 222.2C352.605 222.2 353.5 221.305 353.5 220.2C353.5 219.095 352.605 218.2 351.5 218.2C350.395 218.2 349.5 219.095 349.5 220.2C349.5 221.305 350.395 222.2 351.5 222.2Z" fill="#FFFFFE"/>
<path d="M351.5 222.5C350.2 222.5 349.2 221.5 349.2 220.2C349.2 218.9 350.2 217.9 351.5 217.9C352.8 217.9 353.8 218.9 353.8 220.2C353.8 221.5 352.8 222.5 351.5 222.5ZM351.5 218.5C350.6 218.5 349.8 219.3 349.8 220.2C349.8 221.1 350.6 221.9 351.5 221.9C352.4 221.9 353.2 221.1 353.2 220.2C353.2 219.3 352.4 218.5 351.5 218.5Z" fill="#101720"/>
<path d="M435.5 142.6H344.8V190.9H428.1V149.9L435.5 142.6Z" fill="#FFFFFE"/>
<path d="M428.1 191.2H344.9C344.7 191.2 344.6 191.1 344.6 190.9V142.7C344.6 142.5 344.7 142.4 344.9 142.4H435.5C435.6 142.4 435.7 142.4 435.8 142.6C435.8 142.7 435.8 142.8 435.8 142.9L428.5 150.1V190.9C428.5 191.1 428.4 191.2 428.2 191.2H428.1ZM345.1 190.6H427.8V149.9V149.7L434.7 143H345.1V190.6Z" fill="#101720"/>
<path d="M402.1 153H354.6C354.4 153 354.3 152.9 354.3 152.7C354.3 152.5 354.4 152.4 354.6 152.4H402.1C402.3 152.4 402.4 152.5 402.4 152.7C402.4 152.9 402.3 153 402.1 153Z" fill="#101720"/>
<path d="M416.5 162.8H354.7C354.5 162.8 354.4 162.7 354.4 162.5C354.4 162.3 354.5 162.2 354.7 162.2H416.5C416.7 162.2 416.8 162.3 416.8 162.5C416.8 162.7 416.7 162.8 416.5 162.8Z" fill="#101720"/>
<path d="M416.5 172.7H354.7C354.5 172.7 354.4 172.6 354.4 172.4C354.4 172.2 354.5 172.1 354.7 172.1H416.5C416.7 172.1 416.8 172.2 416.8 172.4C416.8 172.6 416.7 172.7 416.5 172.7Z" fill="#101720"/>
<path d="M416.5 182.6H354.7C354.5 182.6 354.4 182.5 354.4 182.3C354.4 182.1 354.5 182 354.7 182H416.5C416.7 182 416.8 182.1 416.8 182.3C416.8 182.5 416.7 182.6 416.5 182.6Z" fill="#101720"/>
<path d="M281.5 81.1001H372.1V129.3H288.9V88.3001L281.5 81.1001Z" fill="#FFFFFE"/>
<path d="M372.2 129.6H289C288.8 129.6 288.7 129.5 288.7 129.3V88.5L281.4 81.3C281.4 81.3 281.3 81.1 281.4 81C281.4 80.9 281.6 80.8 281.7 80.8H372.3C372.5 80.8 372.6 80.9 372.6 81.1V129.3C372.6 129.5 372.5 129.6 372.3 129.6H372.2ZM289.2 129H371.9V81.4H282.3L289.2 88.1C289.2 88.1 289.2 88.2 289.2 88.3V129Z" fill="#101720"/>
<path d="M362.3 91.4H314.8C314.6 91.4 314.5 91.3 314.5 91.1C314.5 90.9 314.6 90.8 314.8 90.8H362.3C362.5 90.8 362.6 90.9 362.6 91.1C362.6 91.3 362.5 91.4 362.3 91.4Z" fill="#101720"/>
<path d="M362.3 101.3H300.5C300.3 101.3 300.2 101.2 300.2 101C300.2 100.8 300.3 100.7 300.5 100.7H362.3C362.5 100.7 362.6 100.8 362.6 101C362.6 101.2 362.5 101.3 362.3 101.3Z" fill="#101720"/>
<path d="M362.3 111.1H300.5C300.3 111.1 300.2 111 300.2 110.8C300.2 110.6 300.3 110.5 300.5 110.5H362.3C362.5 110.5 362.6 110.6 362.6 110.8C362.6 111 362.5 111.1 362.3 111.1Z" fill="#101720"/>
<path d="M362.3 121H300.5C300.3 121 300.2 120.9 300.2 120.7C300.2 120.5 300.3 120.4 300.5 120.4H362.3C362.5 120.4 362.6 120.5 362.6 120.7C362.6 120.9 362.5 121 362.3 121Z" fill="#101720"/>
<path d="M351.6 166.8C351.6 166.8 345.5 166.7 342.1 165.3C340.6 166 339 166.3 337.3 166.3C330.8 166.3 325.6 161.1 325.6 154.6C325.6 148.1 330.8 142.9 337.3 142.9C343.8 142.9 349 148.1 349 154.6C349 161.1 347.9 160.3 346 162.4C348.1 165.3 351.6 166.8 351.6 166.8Z" fill="#FFFFFE"/>
<path d="M351.6 167.1C351.4 167.1 345.5 166.9 342.1 165.6C340.6 166.3 339 166.6 337.3 166.6C330.7 166.6 325.3 161.2 325.3 154.6C325.3 148 330.7 142.6 337.3 142.6C343.9 142.6 349.3 148 349.3 154.6C349.3 161.2 348.3 160.2 346.4 162.4C348.4 165.1 351.7 166.5 351.7 166.5C351.8 166.5 351.9 166.7 351.9 166.8C351.9 166.9 351.7 167 351.6 167V167.1ZM342.1 165C342.1 165 342.1 165 342.2 165C344.5 166 348.2 166.3 350.2 166.4C349 165.7 347.1 164.4 345.8 162.5C345.8 162.4 345.8 162.2 345.8 162.1C347.7 160 348.7 157.3 348.7 154.5C348.7 148.2 343.6 143.1 337.3 143.1C331 143.1 325.9 148.2 325.9 154.5C325.9 160.8 331 165.9 337.3 165.9C343.6 165.9 340.5 165.6 342 164.9C342 164.9 342 164.9 342.1 164.9V165Z" fill="#101720"/>
<path d="M337.3 159.3C336.4 159.3 335.5 158.9 334.8 158.3L332.5 156C331.1 154.6 331.1 152.4 332.5 151C333.9 149.6 335.9 149.6 337.3 150.8C338.7 149.6 340.8 149.6 342.1 150.9C343.4 152.2 343.5 154.5 342.1 155.9L339.8 158.2C339.1 158.9 338.2 159.2 337.3 159.2V159.3Z" fill="#FF7E6E"/>
<path d="M337.3 159.6C336.3 159.6 335.3 159.2 334.6 158.5L332.3 156.2C330.8 154.7 330.8 152.3 332.3 150.8C333.7 149.4 335.8 149.3 337.3 150.4C338.8 149.2 341 149.4 342.4 150.7C343.1 151.4 343.5 152.4 343.5 153.4C343.5 154.4 343.1 155.4 342.4 156.1L340.1 158.4C339.4 159.1 338.4 159.5 337.4 159.5L337.3 159.6ZM335 150.2C334.2 150.2 333.3 150.5 332.7 151.1C331.4 152.4 331.4 154.4 332.7 155.7L335 158C335.6 158.6 336.4 159 337.3 159C338.1 159 339 158.7 339.6 158L341.9 155.7C343.2 154.4 343.2 152.4 341.9 151.1C340.6 149.8 338.7 149.8 337.5 151C337.4 151 337.2 151.1 337.1 151C336.5 150.5 335.7 150.2 335 150.2Z" fill="#101720"/>
<path d="M374.6 93.6001C380.399 93.6001 385.1 88.8991 385.1 83.1001C385.1 77.3011 380.399 72.6001 374.6 72.6001C368.801 72.6001 364.1 77.3011 364.1 83.1001C364.1 88.8991 368.801 93.6001 374.6 93.6001Z" fill="#FF9C0F"/>
<path d="M374.6 93.9C368.6 93.9 363.8 89 363.8 83.1C363.8 77.2 368.7 72.3 374.6 72.3C380.5 72.3 385.4 77.2 385.4 83.1C385.4 89 380.5 93.9 374.6 93.9ZM374.6 72.9C369 72.9 364.4 77.5 364.4 83.1C364.4 88.7 369 93.3 374.6 93.3C380.2 93.3 384.8 88.7 384.8 83.1C384.8 77.5 380.2 72.9 374.6 72.9Z" fill="#101720"/>
<path d="M378.8 83.0999C379.518 83.0999 380.1 82.1597 380.1 80.9999C380.1 79.8401 379.518 78.8999 378.8 78.8999C378.082 78.8999 377.5 79.8401 377.5 80.9999C377.5 82.1597 378.082 83.0999 378.8 83.0999Z" fill="#FFFFFE"/>
<path d="M378.8 83.5C377.9 83.5 377.2 82.4 377.2 81.1C377.2 79.8 377.9 78.7 378.8 78.7C379.7 78.7 380.4 79.8 380.4 81.1C380.4 82.4 379.7 83.5 378.8 83.5ZM378.8 79.2C378.2 79.2 377.8 80 377.8 81C377.8 82 378.3 82.8 378.8 82.8C379.3 82.8 379.8 82 379.8 81C379.8 80 379.3 79.2 378.8 79.2Z" fill="#101720"/>
<path d="M370.8 83.0999C371.518 83.0999 372.1 82.1597 372.1 80.9999C372.1 79.8401 371.518 78.8999 370.8 78.8999C370.082 78.8999 369.5 79.8401 369.5 80.9999C369.5 82.1597 370.082 83.0999 370.8 83.0999Z" fill="#FFFFFE"/>
<path d="M370.8 83.5C369.9 83.5 369.2 82.4 369.2 81.1C369.2 79.8 369.9 78.7 370.8 78.7C371.7 78.7 372.4 79.8 372.4 81.1C372.4 82.4 371.7 83.5 370.8 83.5ZM370.8 79.2C370.2 79.2 369.8 80 369.8 81C369.8 82 370.3 82.8 370.8 82.8C371.3 82.8 371.8 82 371.8 81C371.8 80 371.3 79.2 370.8 79.2Z" fill="#101720"/>
<path d="M370.8 85.7H378.7C378.7 85.7 379.2 90.3 374.5 90.3C369.8 90.3 370.8 85.7 370.8 85.7Z" fill="#FFFFFE"/>
<path d="M374.6 90.6C373.1 90.6 372 90.2 371.3 89.3C370.1 87.9 370.6 85.8 370.6 85.7C370.6 85.6 370.8 85.5 370.9 85.5H378.8C379 85.5 379.1 85.6 379.1 85.8C379.1 85.8 379.3 87.9 378.1 89.4C377.3 90.3 376.2 90.7 374.6 90.7V90.6ZM371.1 86C371.1 86.5 371 87.9 371.7 88.9C372.3 89.6 373.2 90 374.6 90C376 90 376.9 89.6 377.6 88.9C378.4 87.9 378.5 86.6 378.5 86.1H371.1V86Z" fill="#101720"/>
<path d="M378.6 87.8H370.8C370.6 87.8 370.5 87.7 370.5 87.5C370.5 87.3 370.6 87.2 370.8 87.2H378.6C378.8 87.2 378.9 87.3 378.9 87.5C378.9 87.7 378.8 87.8 378.6 87.8Z" fill="#101720"/>
</svg>
