<svg width="500" height="500" viewBox="0 0 500 500" fill="none" xmlns="http://www.w3.org/2000/svg">
<path d="M89.1001 179.7L263.2 42.3L429.5 179.7H89.1001Z" fill="#FFFFFE"/>
<path d="M429.5 180H89.0002C88.9002 180 88.8002 180 88.7002 179.8C88.7002 179.7 88.7002 179.5 88.7002 179.5L263 42.1001C263.1 42.1001 263.3 42.1001 263.4 42.1001L429.6 179.5C429.6 179.5 429.7 179.7 429.6 179.8C429.5 179.9 429.4 180 429.3 180H429.5ZM89.9002 179.4H428.6L263.2 42.7001L89.9002 179.4Z" fill="#101720"/>
<path d="M429.5 179.7H89.1001V396.3H429.5V179.7Z" fill="#FFFFFE"/>
<path d="M429.5 396.6H89.0002C88.8002 396.6 88.7002 396.5 88.7002 396.3V179.8C88.7002 179.6 88.8002 179.5 89.0002 179.5H429.4C429.6 179.5 429.7 179.6 429.7 179.8V396.3C429.7 396.5 429.6 396.6 429.4 396.6H429.5ZM89.3002 396H429.1V180H89.3002V396Z" fill="#101720"/>
<path d="M89.1001 396.3L230.9 280.5H291.9L429.5 396.3H89.1001Z" fill="#8FDCE8"/>
<path d="M429.5 396.6H89.0002C88.9002 396.6 88.8002 396.6 88.7002 396.4C88.6002 396.2 88.7002 396.1 88.7002 396.1L230.6 280.3C230.6 280.3 230.7 280.3 230.8 280.3H291.7C291.7 280.3 291.8 280.3 291.9 280.3L429.5 396.1C429.5 396.1 429.6 396.3 429.5 396.4C429.5 396.5 429.3 396.6 429.2 396.6H429.5ZM89.9002 396H428.6L291.8 280.8H231.1L89.9002 396Z" fill="#101720"/>
<path d="M429.5 179.7L348.6 239L276.5 291.8L264 301L263.2 301.5L182.9 245.4L156.9 227.2L89.1001 179.7H429.5Z" fill="#101720"/>
<path d="M263.2 301.8C263.2 301.8 263.1 301.8 263 301.8L88.9002 180C88.8002 180 88.7002 179.8 88.8002 179.7C88.8002 179.6 89.0002 179.5 89.1002 179.5H429.5C429.6 179.5 429.7 179.5 429.8 179.7C429.9 179.9 429.8 180 429.7 180L263.5 301.8C263.5 301.8 263.4 301.8 263.3 301.8H263.2ZM90.0002 180L263.2 301.1L276.3 291.5L428.5 180H90.0002Z" fill="#101720"/>
<path d="M217.4 184.9C217.4 184.9 202.9 209.1 189.9 202.7C189.6 202.6 189.4 202.4 189.1 202.3C175.9 194.4 181.6 176 189.9 167.7L192.7 168.2L207.6 170.8L217.5 185L217.4 184.9Z" fill="#FF7E6E"/>
<path d="M194.5 204.1C192.8 204.1 191.3 203.7 189.8 203H189.7C189.5 202.8 189.2 202.7 189 202.5C184.5 199.8 181.8 195.7 181.2 190.5C180.1 181.7 184.9 172.4 189.8 167.4C189.8 167.4 190 167.3 190.1 167.4L207.8 170.5C207.8 170.5 207.9 170.5 208 170.6L217.9 184.8C217.9 184.8 217.9 185 217.9 185.1C217.9 185.1 214.2 191.3 209 196.5C203.9 201.6 199.1 204.1 194.7 204.1H194.5ZM190 168C185.1 173 180.7 182.3 181.7 190.5C182.3 195.6 184.9 199.5 189.2 202.1C189.4 202.2 189.6 202.3 189.8 202.5H189.9C202 208.6 215.6 187.2 216.9 185.1L207.2 171.2L189.8 168.1L190 168Z" fill="#101720"/>
<path d="M189.8 202.3C189.6 202.2 189.4 202.1 189.2 202C184.8 199.4 182.3 195.5 181.6 190.4C180.6 182.2 185 173 189.9 167.9L192.4 168.3C184.7 178.7 183.7 190 189.9 196.3C190.9 197.3 191.3 198.3 191.3 199.3C191.3 200.3 190.7 201.3 189.7 202.3H189.8Z" fill="#008FB1"/>
<path d="M358.4 164.4L355.7 166.5L353.5 169.9L329.4 206.4L327.5 237.3L314.4 246.9L210.9 204.9V184.9L195.7 172.5L187.7 166C187.7 166 229.8 129.9 246.9 122.3C264 114.7 289.6 114 310.1 127.5C330.6 141 358.4 164.5 358.4 164.5V164.4Z" fill="#FFFFFE"/>
<path d="M314.4 247.1C314.4 247.1 314.4 247.1 314.3 247.1L210.8 205.1C210.7 205.1 210.6 204.9 210.6 204.8V184.9L187.6 166.1C187.6 166.1 187.5 166 187.5 165.9C187.5 165.9 187.5 165.7 187.6 165.7C188 165.3 229.9 129.5 246.8 122C263.4 114.7 289.4 113.4 310.3 127.2C330.5 140.6 358.3 164 358.6 164.2C358.6 164.2 358.7 164.3 358.7 164.4C358.7 164.4 358.7 164.6 358.6 164.6L356 166.7L329.8 206.5L327.9 237.3C327.9 237.3 327.9 237.5 327.8 237.5L314.7 247.1C314.7 247.1 314.6 247.1 314.5 247.1H314.4ZM211.2 204.6L314.4 246.5L327.2 237.1L329.1 206.4V206.3L355.4 166.4L357.8 164.5C354.8 162 328.9 140.4 309.8 127.8C289.2 114.2 263.3 115.4 246.9 122.7C230.8 129.8 191.8 163 188.1 166.1L210.9 184.8C210.9 184.8 211 184.9 211 185V204.8L211.2 204.6Z" fill="#101720"/>
<path d="M188.2 165.9C191.9 162.8 230.9 129.6 247 122.5C254.9 119 264.3 117.1 273.7 117.1C283.1 117.1 299.5 120.7 309.9 127.6C329 140.2 354.9 161.8 357.9 164.3L355.5 166.2L353.4 169.4C343.2 160.8 318.6 140.2 303.8 130.2C294.4 123.9 284.5 120.7 274.1 120.7C263.7 120.7 262 121.8 255.7 123.9C243.8 127.9 202.6 158.3 197.4 163.7C195.8 165.4 195.1 168.1 195.3 171.7L188.2 165.9Z" fill="#8FDCE8"/>
<path d="M308.5 91.3999C306.5 97.4999 301.5 95.7999 301.5 95.7999C301.5 95.7999 303 101.5 301 104C299 106.5 297.4 105.2 297.4 105.2C297.4 105.2 295.3 107.6 291.8 107.7C289.8 107.7 287.3 106.4 285.6 105.3C284.3 104.4 283.4 103.6 283.4 103.6L262.5 91.9999L259.7 90.4999C259.7 90.4999 259.7 90.4999 259.7 90.1999C259.4 88.8999 258.5 83.6999 261.4 80.2999C261.4 80.2999 261 78.2999 261.2 75.7999C261.5 72.6999 262.9 68.6999 267.3 66.0999C275.4 61.3999 284.1 62.5999 286 68.7999C286 68.7999 292.7 66.3999 299 70.1999C305.3 73.9999 303.7 82.1999 303.7 82.1999C303.7 82.1999 304.9 82.1999 306.1 82.6999C307.9 83.3999 309.9 85.2999 309 89.8999C308.9 90.3999 308.8 90.8999 308.6 91.3999H308.5Z" fill="#FF9C0F"/>
<path d="M291.7 108.1C289.6 108.1 287.2 106.7 285.5 105.6C284.2 104.7 283.3 104 283.3 103.9L259.7 90.7999C259.7 90.7999 259.6 90.6999 259.6 90.5999C259.6 90.5999 259.6 90.4999 259.6 90.2999C259.3 88.7999 258.5 83.6999 261.3 80.1999C261.3 79.6999 260.9 77.8999 261.2 75.6999C261.5 72.5999 262.9 68.4999 267.4 65.7999C272.4 62.8999 277.9 62.0999 281.8 63.6999C284.1 64.5999 285.7 66.1999 286.4 68.3999C287.8 67.9999 293.8 66.5999 299.4 69.9999C305 73.3999 304.5 80.3999 304.3 81.9999C304.8 81.9999 305.6 82.0999 306.5 82.4999C308.4 83.2999 310.5 85.1999 309.5 89.9999C309.4 90.4999 309.3 91.0999 309.1 91.4999C308.4 93.4999 307.3 94.8999 305.9 95.6999C304.4 96.3999 303 96.2999 302.2 96.1999C302.5 97.6999 303.3 102 301.5 104.2C299.8 106.3 298.3 105.9 297.7 105.6C297.1 106.2 295.1 107.9 292.1 108C292.1 108 292.1 108 292 108L291.7 108.1ZM259.9 90.2999L283.5 103.3C283.5 103.3 284.5 104.1 285.7 105C287.4 106.1 289.8 107.5 291.7 107.4C295 107.4 297.1 105.1 297.1 105C297.2 104.9 297.4 104.9 297.5 105C297.5 105 298.9 106 300.7 103.8C302.6 101.5 301.2 95.8999 301.2 95.8999C301.2 95.7999 301.2 95.6999 301.2 95.5999C301.2 95.5999 301.4 95.5999 301.5 95.5999C301.5 95.5999 303.4 96.1999 305.2 95.2999C306.5 94.5999 307.5 93.2999 308.2 91.3999C308.3 90.9999 308.4 90.4999 308.5 89.9999C309.4 85.5999 307.5 83.7999 305.8 83.0999C304.6 82.5999 303.5 82.5999 303.5 82.5999C303.5 82.5999 303.3 82.5999 303.3 82.4999C303.3 82.3999 303.3 82.2999 303.3 82.2999C303.3 82.2999 304.7 74.2999 298.7 70.5999C292.6 66.8999 286 69.1999 286 69.1999H285.8C285.8 69.1999 285.7 69.0999 285.6 68.9999C285 66.8999 283.5 65.2999 281.3 64.3999C277.5 62.8999 272.2 63.6999 267.4 66.4999C263 68.9999 261.8 72.9999 261.5 75.8999C261.2 78.3999 261.7 80.2999 261.7 80.2999C261.7 80.2999 261.7 80.4999 261.7 80.5999C258.9 83.8999 259.7 88.7999 260 90.2999C260 90.2999 260 90.3999 260 90.4999L259.9 90.2999Z" fill="#101720"/>
<path d="M301.5 95.8999C301.5 95.8999 303 101.6 301 104.1C299 106.6 297.4 105.3 297.4 105.3C297.4 105.3 295.3 107.7 291.8 107.8C289.8 107.8 287.3 106.5 285.6 105.4C284.3 104.5 283.4 103.7 283.4 103.7L262.5 92.0999C261.4 91.3999 260.4 90.7999 259.6 90.2999C259.3 88.9999 258.4 83.7999 261.3 80.3999C261.3 80.3999 260.9 78.3999 261.1 75.8999C261.1 75.8999 263 78.6999 267 78.4999L281.9 90.7999H289.1C294.2 92.2999 304.8 94.3999 308.6 91.5999C306.6 97.6999 301.6 95.9999 301.6 95.9999L301.5 95.8999Z" fill="#101720"/>
<path d="M291.6 108.1C289.5 108.1 287.1 106.7 285.4 105.6C284.1 104.7 283.2 104 283.2 103.9L262.3 92.3999C261.6 91.9999 261 91.5999 260.5 91.1999L259.5 90.4999C259.5 90.4999 259.4 90.3999 259.4 90.2999C259.1 88.7999 258.3 83.6999 261.1 80.1999C261.1 79.6999 260.7 77.8999 261 75.6999C261 75.5999 261.1 75.4999 261.2 75.3999C261.3 75.3999 261.5 75.3999 261.5 75.4999C261.5 75.5999 263.3 78.1999 267.1 77.9999H267.3L282.1 90.1999H289.2C295 91.9999 304.9 93.6999 308.4 91.0999C308.5 91.0999 308.6 91.0999 308.8 91.0999C308.9 91.0999 308.9 91.2999 308.9 91.3999C308.2 93.4999 307.1 94.8999 305.6 95.6999C304.1 96.3999 302.7 96.2999 301.9 96.1999C302.2 97.6999 303 102 301.2 104.2C299.5 106.3 298 105.9 297.4 105.6C296.8 106.2 294.8 107.9 291.8 108C291.8 108 291.8 108 291.7 108L291.6 108.1ZM259.9 90.0999L260.8 90.6999C261.4 91.0999 262 91.3999 262.6 91.8999L283.5 103.5C283.5 103.5 284.5 104.3 285.7 105.2C287.4 106.3 289.8 107.7 291.7 107.6C295 107.6 297.1 105.3 297.1 105.2C297.2 105.1 297.4 105.1 297.5 105.2C297.5 105.2 298.9 106.2 300.7 104C302.6 101.7 301.2 96.0999 301.2 96.0999C301.2 96.0999 301.2 95.8999 301.2 95.7999C301.2 95.7999 301.3 95.6999 301.4 95.6999C301.4 95.6999 303.3 96.2999 305.1 95.3999C306.2 94.7999 307.1 93.7999 307.8 92.2999C303.4 94.4999 293.6 92.4999 288.8 90.9999H281.7C281.7 91.0999 281.6 90.9999 281.5 90.9999L266.7 78.7999C263.8 78.8999 262 77.4999 261.2 76.6999C261.1 78.7999 261.4 80.3999 261.4 80.3999C261.4 80.3999 261.4 80.5999 261.4 80.6999C258.7 83.8999 259.4 88.6999 259.7 90.2999L259.9 90.0999Z" fill="#101720"/>
<path d="M289.7 101.7C289.3 101.2 289 100.9 289 100.9L289.3 100.7C289.3 100.7 289.6 101 290 101.5L289.8 101.7H289.7Z" fill="#5C2F00"/>
<path d="M277.2 134.4C274.6 134.9 272.2 134.6 270.8 133.3C266.4 129.2 269.3 123.5 269.3 123.5L272.4 111.2L285.6 104.8L287.6 103.8L289 122.7C288.6 128.8 282.5 133.3 277.2 134.4Z" fill="#FF7E6D"/>
<path d="M277.2 134.4C274.6 134.9 272.2 134.6 270.8 133.3C266.4 129.2 269.3 123.5 269.3 123.5L272.4 111.2L285.6 104.8L286.8 106.1C286.8 106.1 282.1 113.5 277.3 117.9C273.6 121.3 275.4 129.7 277.2 134.4Z" fill="#008EB1"/>
<path d="M288.1 109.7C288.1 109.7 279.6 116.2 271.5 115.2L272.5 111.2L287.7 105L288.1 109.7Z" fill="#101720"/>
<path d="M273.4 115.5C272.8 115.5 272.1 115.5 271.5 115.4H271.2L272.3 110.9L288.1 104.5L288.5 109.7H288.4C288.1 110.1 281 115.5 273.5 115.5H273.4ZM271.9 114.9C279.2 115.7 286.7 110.3 287.8 109.6L287.5 105.5L272.8 111.5L271.9 115V114.9Z" fill="#101720"/>
<path d="M275 134.9C273.2 134.9 271.7 134.4 270.7 133.4C266.2 129.1 269.2 123.3 269.2 123.3L272.3 111C272.3 111 272.3 110.8 272.5 110.8L287.7 103.4C287.7 103.4 287.9 103.4 288 103.4C288 103.4 288.1 103.5 288.1 103.6L289.5 122.5C289.1 128.6 283.1 133.4 277.5 134.6C276.7 134.8 275.9 134.9 275.2 134.9H275ZM272.7 111.4L269.6 123.6C269.5 123.9 266.8 129.1 271 133.1C272.3 134.3 274.5 134.7 277.1 134.2C282.5 133.1 288.3 128.5 288.7 122.7L287.3 104.3L272.7 111.4Z" fill="#101720"/>
<path d="M257.1 102.7C257.3 104.2 257.5 105.5 257.9 106.7C260.7 115.2 269.1 116.3 278.3 112.5C283.4 110.4 287.3 106.4 289.7 101.7C291.1 103.3 294.4 106.1 296.9 100.9C299.6 95.2 296.6 89.5 292.7 92.1C292.6 92.1 292.4 92.3 292.3 92.4C291.4 93.5 290.5 94.7 289.9 96C289.7 96.4 289.5 96.7 289.3 97C288.8 97.5 287.9 97.7 287.3 97.4C287.6 96.5 287.8 95.5 288.1 94.6C288.5 93.3 288.8 92 289 90.6C286.6 89.8 284.5 88.5 282.6 86.8C280.2 84.6 278.3 81.9 276.7 79.1H276.4C268.4 79.3 267.5 74.2 267.5 74.2L265.7 76.4C262.4 80.5 259.8 85.3 258.3 90.4C257.2 94 256.5 98.3 257 102.6L257.1 102.7Z" fill="#FF7E6D"/>
<path d="M273.3 93.1C273.3 93.1 275.5 90.8 278.9 92.1C282.3 93.4 282.2 95.9 282.2 95.9C282.2 95.9 280 98.3 276.8 97.1C273.7 95.9 273.3 93.1 273.3 93.1Z" fill="#FFFFFE"/>
<mask id="mask0_8_1076" style="mask-type:luminance" maskUnits="userSpaceOnUse" x="273" y="91" width="10" height="7">
<path d="M273.3 93.0999C273.3 93.0999 275.5 90.6999 278.9 92.0999C282.3 93.4999 282.2 95.8999 282.2 95.8999C282.2 95.8999 280 98.2999 276.8 97.0999C273.6 95.8999 273.3 93.0999 273.3 93.0999Z" fill="white"/>
</mask>
<g mask="url(#mask0_8_1076)">
<path d="M276.3 96.9999C277.57 96.9999 278.6 95.9702 278.6 94.6999C278.6 93.4296 277.57 92.3999 276.3 92.3999C275.03 92.3999 274 93.4296 274 94.6999C274 95.9702 275.03 96.9999 276.3 96.9999Z" fill="#101720"/>
</g>
<path d="M265.9 99.9C265.9 99.9 265.9 99.9 265.8 99.9C264.9 99.5 264.4 98.7 264.3 97.8C264.3 96.9 264.6 96 265.3 95.5C266.3 94.8 268.3 92.9 269.1 90C269.1 89.8 269.3 89.7 269.5 89.8C269.7 89.8 269.8 90 269.7 90.2C268.8 93.2 266.8 95.3 265.7 96C265.2 96.4 264.9 97.1 264.9 97.8C264.9 98.2 265.1 99 266 99.4C266.1 99.4 266.2 99.6 266.1 99.8C266.1 99.9 265.9 100 265.8 100L265.9 99.9Z" fill="#101720"/>
<path d="M272.3 104.2C271.6 104.2 271 103.9 270.4 103.4C270.3 103.3 270.3 103.1 270.4 103C270.5 102.9 270.7 102.9 270.8 103C271.4 103.6 272.1 103.8 272.8 103.6C273.5 103.4 274.1 102.7 274.3 101.7C274.3 101.5 274.5 101.4 274.6 101.5C274.8 101.5 274.9 101.7 274.8 101.9C274.6 103.1 273.9 104 272.9 104.3C272.7 104.3 272.4 104.4 272.2 104.4L272.3 104.2Z" fill="#101720"/>
<path d="M283 92.4998C282.9 92.4998 282.8 92.4998 282.7 92.2998C282.3 91.1998 281.2 90.1998 279.6 89.6998C277.9 89.0998 276.2 89.1998 275 89.8998C274.9 89.8998 274.7 89.8998 274.6 89.7998C274.6 89.6998 274.6 89.4998 274.7 89.3998C276 88.5998 277.9 88.4998 279.8 89.1998C281.5 89.7998 282.8 90.8998 283.2 92.1998C283.2 92.3998 283.2 92.4998 283 92.5998C283 92.5998 283 92.5998 282.9 92.5998L283 92.4998Z" fill="#101720"/>
<path d="M269.6 87.5999C269.5 87.5999 269.4 87.5999 269.3 87.4999C269.3 87.3999 267.5 84.3999 264.6 85.3999C264.4 85.3999 264.3 85.3999 264.2 85.1999C264.2 84.9999 264.2 84.8999 264.4 84.7999C267.7 83.6999 269.8 87.0999 269.8 87.1999C269.8 87.2999 269.8 87.4999 269.7 87.5999C269.7 87.5999 269.6 87.5999 269.5 87.5999H269.6Z" fill="#101720"/>
<path d="M278.9 92.0999C278.9 92.0999 280.5 92.6999 281.5 93.8999C282.4 95.1999 282.6 96.1999 283 96.4999L282.3 96.8999C282.3 96.8999 281.2 93.1999 278.9 92.0999Z" fill="#101720"/>
<path d="M268.5 91.2C268.5 91.2 268.3 88.5 265.3 87.6C262.3 86.7 261.1 88.4 261.1 88.4C261.1 88.4 261.3 91.2 264 92.1C266.7 93 268.5 91.3 268.5 91.3V91.2Z" fill="#FFFFFE"/>
<mask id="mask1_8_1076" style="mask-type:luminance" maskUnits="userSpaceOnUse" x="261" y="87" width="8" height="6">
<path d="M268.5 91.2C268.5 91.2 268.3 88.5 265.3 87.6C262.3 86.7 261.1 88.4 261.1 88.4C261.1 88.4 261.3 91.2 264 92.1C266.7 93 268.5 91.3 268.5 91.3V91.2Z" fill="white"/>
</mask>
<g mask="url(#mask1_8_1076)">
<path d="M264.7 92.2C265.805 92.2 266.7 91.3045 266.7 90.2C266.7 89.0954 265.805 88.2 264.7 88.2C263.596 88.2 262.7 89.0954 262.7 90.2C262.7 91.3045 263.596 92.2 264.7 92.2Z" fill="#101720"/>
</g>
<path d="M265.3 87.5998C265.3 87.5998 263.9 87.0998 262.6 87.4998C261.3 87.8998 260.6 88.4998 260.2 88.3998L260.4 88.9998C260.4 88.9998 263.1 87.1998 265.2 87.5998H265.3Z" fill="#101720"/>
<path d="M291.5 98.3999C291.5 98.3999 291.3 98.3999 291.2 98.3999C291 98.2999 290.9 97.9999 291.1 97.7999C292.4 95.6999 293.4 94.6999 294.4 94.4999C294.9 94.3999 295.5 94.4999 296 94.8999C296.2 95.0999 296.3 95.2999 296.1 95.5999C295.9 95.7999 295.7 95.8999 295.4 95.6999C295 95.3999 294.7 95.3999 294.5 95.3999C293.8 95.4999 292.9 96.3999 291.8 98.2999C291.8 98.3999 291.6 98.4999 291.4 98.4999L291.5 98.3999Z" fill="#101720"/>
<path d="M258 106.7C260.8 115.2 269.2 116.3 278.4 112.5C283.5 110.4 287.4 106.4 289.8 101.7C291.2 103.3 294.5 106.1 297 100.9C299.7 95.1999 296.7 89.4999 292.8 92.0999C292.7 92.0999 292.5 92.2999 292.4 92.3999C291.5 93.4999 290.6 94.6999 290 95.9999C289.8 96.3999 289.6 96.6999 289.4 96.9999C288.9 97.4999 288 97.6999 287.4 97.3999C287.7 96.4999 287.9 95.4999 288.2 94.5999C288.6 93.2999 288.9 91.9999 289.1 90.5999C286.7 89.7999 284.6 88.4999 282.7 86.7999C280.3 84.5999 278.4 81.8999 276.8 79.0999H276.5C278.5 86.0999 287.6 91.6999 281.5 101.6C273.1 115.2 263.2 108.9 258 106.7Z" fill="#008EB1"/>
<path d="M291.7 97.3999C291.7 97.3999 291.6 97.3999 291.5 97.3999C291.4 97.3999 291.3 97.0999 291.5 96.9999C291.5 96.7999 293.8 93.2999 296.1 94.2999C296.3 94.2999 296.3 94.4999 296.3 94.6999C296.3 94.8999 296.1 94.8999 295.9 94.8999C294.1 94.0999 292.1 97.3999 292.1 97.3999C292.1 97.3999 291.9 97.4999 291.8 97.4999L291.7 97.3999Z" fill="#101720"/>
<path d="M293.5 100.7C293.4 100.7 293.3 100.7 293.2 100.5C293.2 100.4 293.2 100.2 293.3 100.1C294.5 99.4999 295 97.7999 295 96.3999C295 95.4999 294.7 94.8999 294.2 94.6999C294 94.6999 294 94.4999 294 94.2999C294 94.0999 294.2 94.0999 294.4 94.0999C295.1 94.2999 295.5 95.1999 295.5 96.2999C295.5 97.8999 294.9 99.8999 293.5 100.5C293.5 100.5 293.5 100.5 293.4 100.5L293.5 100.7Z" fill="#101720"/>
<path d="M267.5 74.4998C267.4 74.4998 267.3 74.4998 267.2 74.2998C266 71.7998 266.7 69.9998 266.7 69.9998C266.7 69.7998 266.9 69.7998 267.1 69.7998C267.3 69.7998 267.3 69.9998 267.3 70.1998C267.3 70.1998 266.7 71.7998 267.7 74.0998C267.7 74.1998 267.7 74.3998 267.6 74.4998C267.6 74.4998 267.6 74.4998 267.5 74.4998Z" fill="#101720"/>
<path d="M269 114.8C267 114.8 265.1 114.4 263.5 113.7C260.7 112.4 258.7 110.1 257.6 106.7C257.2 105.5 256.9 104.1 256.8 102.6C256.4 98.6999 256.8 94.5999 258.1 90.2999C259.6 85.1999 262.1 80.4999 265.5 76.1999L267.3 73.9999C267.3 73.9999 267.5 73.8999 267.6 73.8999C267.7 73.8999 267.8 73.9999 267.8 74.0999C267.8 74.2999 268.8 78.8999 276.4 78.6999H276.7C276.8 78.6999 276.9 78.6999 277 78.8999C278.8 82.0999 280.8 84.5999 282.9 86.4999C284.8 88.1999 287 89.4999 289.2 90.1999C289.3 90.1999 289.4 90.3999 289.4 90.4999C289.2 91.8999 288.9 93.1999 288.5 94.4999C288.4 94.9999 288.2 95.3999 288.1 95.8999C288 96.2999 287.9 96.6999 287.8 97.0999C288.3 97.1999 288.9 97.0999 289.2 96.6999C289.4 96.4999 289.6 96.1999 289.7 95.8999C290.4 94.4999 291.2 93.1999 292.1 92.0999C292.3 91.8999 292.4 91.8999 292.5 91.7999C293.9 90.7999 295.4 90.8999 296.5 91.7999C298.2 93.2999 299 96.9999 297.1 100.9C296.2 102.8 295.1 103.8 293.8 104C292.2 104.2 290.6 103 289.7 102C287 106.9 283.1 110.6 278.3 112.6C274.9 114 271.7 114.7 268.8 114.7L269 114.8ZM257.4 102.6C257.6 104 257.8 105.3 258.2 106.5C259.2 109.7 261.1 111.9 263.7 113.1C267.4 114.8 272.5 114.4 278.2 112.1C283 110.1 286.9 106.4 289.5 101.4C289.5 101.4 289.6 101.3 289.7 101.2C289.7 101.2 289.9 101.2 290 101.2C290.8 102.1 292.3 103.5 293.8 103.3C294.9 103.1 295.8 102.2 296.6 100.5C298.3 96.9999 297.7 93.3999 296.1 92.0999C295.2 91.2999 294 91.2999 292.8 92.0999C292.7 92.0999 292.6 92.2999 292.4 92.3999C291.5 93.4999 290.7 94.6999 290.1 95.8999C289.9 96.2999 289.8 96.6999 289.5 96.9999C288.9 97.5999 287.9 97.7999 287.1 97.4999C287 97.4999 286.9 97.2999 286.9 97.0999C287 96.5999 287.2 96.1999 287.3 95.6999C287.4 95.1999 287.6 94.6999 287.7 94.2999C288.1 93.0999 288.4 91.7999 288.5 90.5999C286.3 89.8999 284.2 88.5999 282.3 86.7999C280.2 84.8999 278.2 82.3999 276.4 79.1999C269.9 79.2999 267.9 75.9999 267.4 74.6999L266 76.4999C262.6 80.6999 260.2 85.3999 258.7 90.3999C257.5 94.5999 257 98.6999 257.4 102.5V102.6Z" fill="#101720"/>
<path d="M344.1 175.6C344.1 175.6 313.2 162.9 297.5 159.9C281.8 156.9 269.9 165.6 267.1 172C264.4 178.4 270.6 178.1 273.1 175.6C275.7 173.2 278.2 170.1 281.9 169.1C281.9 169.1 276.2 174.2 276.2 181.8C276.2 189.4 282.7 187.2 284.8 181.8C284.8 181.8 283.9 191.9 291.3 188.2C291.3 188.2 294 194.4 300.5 190.3C300.5 190.3 324.2 214.9 354.4 219C384.6 223.1 389.1 193.6 355.6 166.5L344.1 175.6Z" fill="#FF7E6D"/>
<mask id="mask2_8_1076" style="mask-type:luminance" maskUnits="userSpaceOnUse" x="266" y="159" width="113" height="61">
<path d="M344.1 175.6C344.1 175.6 313.2 162.9 297.5 159.9C281.8 156.9 269.9 165.6 267.1 172C264.4 178.4 270.6 178.1 273.1 175.6C275.7 173.2 278.2 170.1 281.9 169.1C281.9 169.1 276.2 174.2 276.2 181.8C276.2 189.4 282.7 187.2 284.8 181.8C284.8 181.8 283.9 191.9 291.3 188.2C291.3 188.2 294 194.4 300.5 190.3C300.5 190.3 324.2 214.9 354.4 219C384.6 223.1 389.1 193.5 355.6 166.5L344.1 175.6Z" fill="white"/>
</mask>
<g mask="url(#mask2_8_1076)">
<path d="M346.7 176.6C355.3 179.9 367.7 184.3 370.9 191.8C376 203.7 363.7 209.9 348.3 211.2C332.9 212.5 322.7 212.2 322.7 212.2L357.9 229L384.1 218.7L389.1 184.7L375.4 162.9L353.5 158.5L346.7 176.6Z" fill="#008FB1"/>
<path d="M370.4 203.3C365.9 206.2 360.7 208.1 355.3 208.7C354.7 208.7 354.7 209.8 355.3 209.7C360.9 209.1 366.2 207.2 370.9 204.2C371.4 203.8 370.9 203 370.4 203.3Z" fill="#008FB1"/>
<path d="M352.2 209V208.9C352.2 208.9 352.2 208.7 352.2 208.8C352.2 208.8 352.2 208.8 352.2 208.7C352.2 208.7 352.2 208.7 352.1 208.7C352.1 208.7 352.1 208.7 352 208.7H351.9C351.9 208.7 351.7 208.7 351.6 208.7H351.5C351.5 208.7 351.4 208.9 351.3 208.9C351.3 208.9 351.3 208.9 351.3 209V209.2V209.3C351.3 209.3 351.3 209.4 351.3 209.5C351.3 209.5 351.3 209.5 351.3 209.6C351.3 209.6 351.3 209.6 351.4 209.6H351.5H351.6H351.7C351.7 209.5 351.7 209.4 351.7 209.4V209.3L352.2 209Z" fill="#008FB1"/>
<path d="M287.4 166.7C287.4 166.7 283.2 165.1 279 166.7C274.8 168.3 272 173.5 269.5 175.3C267 177.1 264.5 176.4 264.5 176.4L268.6 179.8L274.9 176.2L279.5 170.1L282.7 168.5C282.7 168.5 285 166.6 287.5 166.6" fill="#008FB1"/>
<path d="M275.1 183.8C276.7 186.1 280.6 183.9 281.6 181.3C282.6 178.7 284.6 173.3 287.3 171.3C290 169.3 292.5 169.4 293.3 169.8C294.1 170.2 293.8 170.8 293.8 170.8C293.8 170.8 290.6 171.7 288.3 174.8C285.9 178 283.5 185.2 283.5 185.2L282 188.1H277.8L273.9 186.2L275 183.8H275.1Z" fill="#008FB1"/>
<path d="M284.4 186.4C285.8 188.2 287.5 187.9 288.7 185C289.8 182.1 290.8 179 293.2 176.7C295.6 174.4 297.4 173.5 298.4 173.6C299.4 173.7 299.7 174.8 298.7 175.4C297.7 176 294.7 177.7 292.9 181.3C291.1 184.9 290.8 189.1 290.9 190.4C291 191.7 287.5 191.5 287.5 191.5L284.2 189.6L284.4 186.5V186.4Z" fill="#008FB1"/>
<path d="M292 190.4C294.1 191.6 297.4 190.2 299.3 188.1C301.2 186 302.7 184.4 303.6 184.7C304.5 185 303.8 187.2 303 188.1C303 188.1 326.7 208.9 339.7 211.8C352.7 214.7 336.5 221.1 336.5 221.1L321.2 217.9L292 190.4Z" fill="#008FB1"/>
</g>
<path d="M359.8 219.6C358.1 219.6 356.3 219.5 354.4 219.2C325.8 215.3 302.7 192.8 300.5 190.6C298.4 191.8 296.5 192.2 294.8 191.7C292.7 191 291.5 189.2 291.2 188.5C289.3 189.4 287.7 189.5 286.6 188.7C284.9 187.5 284.6 184.8 284.5 183.1C283.1 185.6 280.7 187.2 278.7 186.9C277.7 186.7 275.9 185.8 275.9 181.7C275.9 176 279.2 171.6 280.8 169.7C278.4 170.7 276.5 172.6 274.6 174.5C274.2 174.9 273.7 175.3 273.3 175.8C271.7 177.3 268.8 178.1 267.1 176.9C266.4 176.4 265.3 175 266.7 171.8C269.7 164.8 282.1 156.6 297.4 159.5C312.4 162.4 341.6 174.2 344 175.2L355.4 166.2C355.5 166.2 355.7 166.2 355.8 166.2C365.2 173.8 372.2 182.1 376 190.2C379.5 197.6 380.2 204.6 377.9 209.9C375.2 216.2 368.7 219.6 359.8 219.6ZM300.7 189.9C300.9 190.1 324.7 214.5 354.5 218.5C365.9 220 374.3 216.8 377.4 209.5C383 196.6 370.5 178.7 355.7 166.7L344.3 175.7C344.3 175.7 344.1 175.7 344 175.7C342.4 175 312.6 162.9 297.5 160C281.2 156.9 269.9 166.2 267.5 171.9C266.6 174 266.6 175.6 267.7 176.3C269 177.2 271.6 176.6 273.1 175.2C273.5 174.8 274 174.4 274.4 174C276.6 171.8 278.9 169.6 282 168.7C282.1 168.7 282.3 168.7 282.3 168.8C282.3 168.9 282.3 169.1 282.3 169.2C282.3 169.2 276.7 174.3 276.7 181.7C276.7 189.1 277.5 186 279 186.3C281 186.7 283.6 184.6 284.7 181.6C284.7 181.5 284.9 181.4 285 181.4C285.1 181.4 285.2 181.6 285.2 181.7C285.2 181.7 284.8 186.6 287 188.1C288 188.8 289.4 188.7 291.3 187.7H291.5C291.5 187.7 291.6 187.7 291.7 187.9C291.7 187.9 292.8 190.3 295.1 191C296.7 191.5 298.5 191.1 300.5 189.9C300.5 189.9 300.6 189.9 300.7 189.9Z" fill="#101720"/>
<path d="M281.8 169.5C281.8 169.5 281.7 169.5 281.6 169.5C281.4 169.3 281.6 169.1 281.6 169C281.6 169 281.7 168.9 281.8 168.9C284.6 166.5 287.1 166.3 288.7 166.7C288.9 166.7 289 166.9 288.9 167.1C288.9 167.3 288.7 167.4 288.5 167.3C287 167 284.7 167.1 282 169.5C281.9 169.6 281.8 169.7 281.6 169.7L281.8 169.5Z" fill="#101720"/>
<path d="M284.8 182.1C284.6 182.1 284.6 181.9 284.6 181.7C286.7 175 290.5 170.8 294.7 170.5C294.9 170.5 295 170.6 295 170.8C295 171 294.9 171.1 294.7 171.1C290.8 171.4 287.2 175.4 285.1 181.9C285.1 182 284.9 182.1 284.8 182.1Z" fill="#101720"/>
<path d="M291.3 188.4C291.1 188.4 291 188.3 291 188.1C290.7 181.7 295.8 176 299.5 174.8C299.7 174.8 299.8 174.8 299.9 175C299.9 175.2 299.9 175.3 299.7 175.4C296.2 176.5 291.4 182 291.6 188.1C291.6 188.3 291.5 188.4 291.3 188.4Z" fill="#101720"/>
<path d="M189.4 179.9L224.8 162.4L242.9 188.1L203.7 204.4" fill="#FF7E6E"/>
<path d="M203.7 204.7C203.6 204.7 203.5 204.7 203.4 204.5C203.4 204.3 203.4 204.2 203.6 204.1L242.4 188L224.7 162.8L189.6 180.2C189.5 180.2 189.3 180.2 189.2 180.1C189.1 180 189.2 179.8 189.3 179.7L224.6 162.2C224.7 162.2 224.9 162.2 225 162.2L243.1 187.9C243.1 187.9 243.1 188.1 243.1 188.2C243.1 188.3 243.1 188.4 242.9 188.4L203.7 204.7C203.7 204.7 203.7 204.7 203.6 204.7H203.7Z" fill="#101720"/>
<path d="M243.9 164.7C257.1 160.3 264.4 174.9 261.4 184.8C258.4 194.8 242.9 181.4 242.9 181.4L243.9 164.7Z" fill="#FF7E6E"/>
<path d="M256.7 188.9C251 188.9 243 182 242.6 181.7L242.5 181.5L243.5 164.8C243.5 164.7 243.5 164.6 243.7 164.5C248.7 162.8 253.5 163.8 257 167.2C261.4 171.5 263.3 179 261.5 185C260.9 187 259.8 188.2 258.2 188.7C257.7 188.8 257.2 188.9 256.6 188.9H256.7ZM243.2 181.3C244.3 182.2 253.2 189.5 258.2 188.1C259.6 187.7 260.6 186.6 261.1 184.8C262.9 179 261.1 171.7 256.8 167.6C253.4 164.4 249 163.4 244.2 165L243.2 181.4V181.3Z" fill="#101720"/>
<path d="M260.299 198.1L207.5 190.5V181.8L260.299 189.3V198.1Z" fill="#FF9C0F"/>
<path d="M260.3 198.4L207.5 190.8C207.4 190.8 207.2 190.7 207.2 190.5V181.8C207.2 181.8 207.2 181.6 207.3 181.6H207.5L260.3 189.2C260.4 189.2 260.6 189.3 260.6 189.5V198.2C260.6 198.2 260.6 198.4 260.5 198.4C260.5 198.4 260.4 198.4 260.3 198.4ZM207.8 190.2L260 197.7V189.6L207.8 182.1V190.2Z" fill="#101720"/>
<path d="M291.3 189.9L218 179.4L207.5 181.8L260.3 189.3L291.3 189.9Z" fill="#101720"/>
<path d="M291.3 190.2L260.4 189.6L207.6 182C207.5 182 207.3 181.9 207.3 181.7C207.3 181.6 207.3 181.4 207.5 181.4L218 179.1C218 179.1 218 179.1 218.1 179.1L291.4 189.6C291.6 189.6 291.7 189.8 291.7 189.9C291.7 190.1 291.6 190.2 291.4 190.2H291.3ZM209.2 181.7L260.4 189L286.4 189.5L218 179.7L209.2 181.7Z" fill="#101720"/>
<path d="M247.1 150.1L194.4 142.5L207.5 181.8L260.3 189.3L247.1 150.1Z" fill="#FFFFFE"/>
<path d="M260.3 189.6L207.5 182C207.4 182 207.3 182 207.3 181.8L194.1 142.5C194.1 142.5 194.1 142.3 194.1 142.2C194.1 142.2 194.3 142.1 194.4 142.1L247.2 149.7C247.3 149.7 247.4 149.7 247.4 149.9L260.6 189.2C260.6 189.2 260.6 189.4 260.6 189.5C260.6 189.5 260.5 189.6 260.4 189.6H260.3ZM207.8 181.5L259.9 189L246.9 150.4L194.8 142.9L207.8 181.5Z" fill="#101720"/>
<path d="M260.3 198.1L291.3 198.6V189.9L260.3 189.3V198.1Z" fill="#008EB1"/>
<path d="M291.3 198.9L260.4 198.3C260.2 198.3 260.1 198.2 260.1 198V189.3V189.1C260.1 189.1 260.2 189.1 260.3 189.1L291.2 189.7C291.4 189.7 291.5 189.8 291.5 190V198.7V198.9C291.5 198.9 291.4 198.9 291.3 198.9ZM260.6 197.8L290.9 198.4V190.3L260.6 189.7V197.8Z" fill="#101720"/>
<path d="M233.4 203.8L230.6 212.8L226 227.8L219.2 250L213 255L205.4 261.1L205 261.5C205 261.5 205 261.3 205 261.1C205 261.1 205 261 205 260.9L189.7 250.2L189.4 250L188.9 249.6L153.2 224.6C171.9 209.3 190.9 194.6 197.7 191.7C201.8 190 206.4 190.1 210.8 191.2C216.7 192.6 222.3 195.8 226.5 198.6C226.8 198.8 227 199 227.3 199.1C231 201.6 233.4 203.7 233.4 203.7V203.8Z" fill="#FF9C0F"/>
<path d="M205 261.8C205 261.8 205 261.8 204.9 261.8C204.8 261.8 204.7 261.6 204.7 261.5C204.7 261.4 204.7 261.5 204.7 261.4C204.7 261.4 204.7 261.2 204.7 261.1L153 224.9C153 224.9 152.9 224.8 152.9 224.7C152.9 224.6 152.9 224.5 153 224.5C176.8 205.1 191.8 194 197.6 191.6C201.4 190 205.9 189.8 210.9 191.1C215.8 192.3 221.1 194.8 226.7 198.5C226.9 198.6 227 198.7 227.2 198.8L227.5 199C231.2 201.5 233.6 203.6 233.6 203.7C233.6 203.7 233.7 203.9 233.6 204L219.5 250.2V250.3L213.3 255.3L205.4 261.7C205.4 261.7 205.3 261.7 205.2 261.7L205 261.8ZM153.8 224.6L205.3 260.6C205.3 260.6 205.4 260.7 205.4 260.8L212.8 254.8L218.9 249.9L232.9 203.9C232.3 203.4 230.1 201.6 227 199.4L226.7 199.2C226.5 199.1 226.4 199 226.2 198.9C220.7 195.2 215.4 192.7 210.6 191.6C205.7 190.4 201.4 190.6 197.7 192.1C192 194.5 177.2 205.4 153.6 224.7L153.8 224.6Z" fill="#101720"/>
<path d="M227 199.6L226.5 211.1L225.7 227.8L219 249.8L213.1 254.5H212.9C212.9 254.6 205.1 260.9 205.1 260.9H205L189.7 250.2L189.4 250C190 249 190.5 248 191.1 247C191.3 246.7 191.4 246.4 191.6 246C197.7 234.5 207.5 217.6 217.1 207.4C219.3 205 221.6 203 223.7 201.5C224.8 200.7 225.9 200.1 226.9 199.6H227Z" fill="#008FB1"/>
<path d="M225.6 208.6L225.1 210.6L213.2 254.6V255.1H213.1L205.6 261.2L205.2 261.6C205.2 261.6 205.2 261.4 205.2 261.2C205.2 261.2 205.2 261.1 205.2 261C205.4 258.8 206.3 250.5 208.8 234.9C211 220.8 216.6 211.7 219.1 208.2C219.8 207.3 220.2 206.8 220.3 206.6L225.7 208.7L225.6 208.6Z" fill="#101720"/>
<path d="M205 261.8C205 261.8 205 261.8 204.9 261.8C204.8 261.8 204.7 261.6 204.7 261.5C204.7 261.4 204.7 261.5 204.7 261.4C204.7 261.4 204.7 261.2 204.7 261.1V260.9C204.9 259.4 205.7 251.1 208.3 234.8C210.6 220.5 216.3 211.3 218.6 208C219.3 207.1 219.7 206.5 219.8 206.4C219.8 206.4 219.8 206.4 219.9 206.3H220.1L225.4 208.4C225.5 208.4 225.6 208.6 225.6 208.8L225.1 210.8L213.1 255.3C213.1 255.3 213.1 255.5 212.9 255.5L205 261.9C205 261.9 204.9 261.9 204.8 261.9L205 261.8ZM220.3 206.8C220.1 207 219.7 207.5 219.2 208.2C216.9 211.4 211.2 220.5 209 234.8C206.4 250.8 205.6 259.1 205.4 260.8L212.8 254.9V254.5C212.9 254.5 225.2 208.7 225.2 208.7L220.3 206.8Z" fill="#101720"/>
<path d="M327.5 237.2C327.5 245.1 326.3 251.5 324.4 256.7L324 257L296.5 277.2L296 277.5C289.8 278 284 277.1 280.1 276.3C280.1 276.3 280.1 276.3 280 276.3H279.9C277.5 275.8 275.9 275.3 275.4 275.1H275.2L277.8 290.9L277.5 291.1L270.2 296.5L263.3 301.6L214.7 267.6C214.1 263.5 213.6 259.3 213.1 255.1C213.1 255 213.1 254.9 213.1 254.7C213.1 254.3 213.1 253.9 213 253.6C211.1 236.2 213.1 219.8 219.4 208.2C219.7 207.6 220 207.1 220.4 206.5C221.5 204.7 222.7 203 224 201.5C224.9 200.5 225.8 199.5 226.8 198.7C232.9 193.2 241.1 190.7 251.3 192.3C274.9 196.1 309.1 222.1 322.2 232.7C325.7 235.5 327.7 237.2 327.7 237.2H327.5Z" fill="#FF9C0F"/>
<path d="M263.2 301.8C263.2 301.8 263.1 301.8 263 301.8L214.4 267.8C214.4 267.8 214.3 267.7 214.3 267.6C213.7 263.2 213.1 259 212.7 255.1C212.7 255 212.7 254.9 212.7 254.8V253.6C210.6 235.6 212.9 219.4 219 208C219.3 207.4 219.6 206.9 220 206.3C221.1 204.5 222.3 202.8 223.6 201.3C224.5 200.3 225.4 199.4 226.4 198.5C233 192.6 241.3 190.4 251.1 192C274.8 195.8 308.7 221.6 322.2 232.5C325.6 235.3 327.7 237 327.7 237C327.7 237 327.8 237.1 327.8 237.2C327.8 244.7 326.7 251.3 324.7 256.8C322.7 262.3 324.7 256.9 324.6 256.9L324.2 257.2L296.2 277.7C296.2 277.7 296.2 277.7 296 277.7C289.7 278.2 283.9 277.3 280 276.5H279.9H279.8C277.8 276.1 276.3 275.6 275.5 275.4L278 290.7C278 290.8 278 290.9 277.9 291L277.6 291.2L263.3 301.7C263.3 301.7 263.2 301.7 263.1 301.7L263.2 301.8ZM214.9 267.4L263.2 301.2L277.4 290.8L274.8 275.2V275C274.8 275 275 274.9 275.1 275H275.3C275.9 275.3 277.6 275.7 279.8 276.2H280.1C283.8 277 289.6 277.9 295.8 277.4L296.2 277.1L324.1 256.7C326 251.3 327.1 244.9 327.2 237.5C326.7 237.1 324.8 235.5 321.8 233.1C308.4 222.2 274.5 196.5 251 192.7C241.4 191.1 233.2 193.3 226.8 199C225.8 199.9 224.9 200.8 224.1 201.8C222.8 203.3 221.7 204.9 220.6 206.7C220.3 207.3 220 207.8 219.7 208.4C213.7 219.6 211.4 235.7 213.4 253.6V254.7C213.5 254.8 213.5 254.9 213.6 255.1C214 259 214.6 263.1 215.2 267.4H214.9Z" fill="#101720"/>
<path d="M327.2 237.4C327.1 245.4 325.9 251.9 324 257.1L296.5 277.3C295.1 277.4 293.7 277.5 292.4 277.5C287.6 277.5 283.2 276.8 280.1 276.2C277.2 275.6 275.4 275 275.4 275H275.3L275 274.9L277.7 291.3L270.4 296.7C270.4 296.5 270.4 296.3 270.4 296C269.4 281.1 270.4 250.8 270.7 242.4C270.7 242.6 270.8 242.7 270.9 242.9C272.4 247.4 276.6 256 288 256C299.4 256 288.4 256 288.6 256C294.8 255.8 301.4 254.3 307.2 251.4C309.6 250.2 311.9 248.6 313.9 246.9C313.9 246.9 314.1 246.8 314.1 246.7C317.9 243.3 320.9 239 322.3 233.6C325.1 235.8 326.9 237.4 327.3 237.7L327.2 237.4Z" fill="#008FB1"/>
<path d="M205.5 261.2L205.1 261.6C205.1 261.6 205.1 261.4 205.1 261.2C205.1 261.2 205.1 261.1 205.1 261H205.2L205.5 261.3V261.2Z" fill="#101720"/>
<path d="M205 261.8C205 261.8 205 261.8 204.9 261.8C204.8 261.8 204.7 261.6 204.7 261.5C204.7 261.4 204.7 261.5 204.7 261.4C204.7 261.4 204.7 261.2 204.7 261.1V260.9C204.7 260.8 204.8 260.7 204.9 260.7C204.9 260.7 205.1 260.7 205.2 260.7L205.6 260.9C205.6 260.9 205.8 261.1 205.8 261.2C205.8 261.3 205.8 261.4 205.7 261.4L205.2 261.8C205.2 261.8 205.1 261.8 205 261.8Z" fill="#101720"/>
<path d="M321.9 167.1L319.5 166.2L318.9 155.1L321.9 167.1Z" fill="#101720"/>
<path d="M321.9 167.4L319.4 166.5C319.3 166.5 319.2 166.4 319.2 166.2L318.6 155C318.6 154.8 318.7 154.7 318.9 154.7C319.1 154.7 319.2 154.7 319.2 154.9L322.3 167C322.3 167.1 322.3 167.2 322.3 167.3C322.3 167.3 322.2 167.3 322.1 167.3L321.9 167.4ZM319.7 166L321.5 166.6L319.3 158L319.7 166Z" fill="#101720"/>
<path d="M318.9 155.4C318.8 155.4 318.6 155.4 318.6 155.2L316.7 147.7C316.7 147.5 316.7 147.4 316.9 147.3C317.1 147.3 317.2 147.3 317.3 147.5L319.2 155C319.2 155.2 319.2 155.3 319 155.4H318.9Z" fill="#101720"/>
<path d="M344.1 175.6L355.3 179.9C355.3 179.9 350 175.6 350.2 174.4C350.4 173.2 356.5 167.2 356.5 167.2L355.7 166.5L344.2 175.6H344.1Z" fill="#101720"/>
<path d="M355.3 180.2C355.3 180.2 355.3 180.2 355.2 180.2L344 175.9C343.9 175.9 343.8 175.7 343.8 175.6C343.8 175.5 343.8 175.4 344 175.4L355.5 166.3C355.6 166.3 355.8 166.3 355.9 166.3L356.7 167C356.7 167 356.8 167.1 356.8 167.2C356.8 167.3 356.8 167.4 356.8 167.4C354.5 169.7 350.7 173.7 350.6 174.5C350.6 175.1 353.1 177.7 355.6 179.7C355.7 179.7 355.7 180 355.6 180.1C355.6 180.1 355.4 180.2 355.3 180.2ZM344.7 175.5L353.7 179C352 177.5 349.7 175.3 349.8 174.4C350 173.2 354.5 168.6 356 167.2L355.6 166.9L344.6 175.5H344.7Z" fill="#101720"/>
<path d="M300.5 190.5C300.4 190.5 300.3 190.5 300.2 190.3C300.2 190.2 300.2 190 300.3 189.9C302.5 188.8 303.3 187 303.3 186.9C303.3 186.7 303.5 186.7 303.7 186.7C303.9 186.7 303.9 186.9 303.9 187.1C303.9 187.1 303.1 189.2 300.6 190.4C300.6 190.4 300.6 190.4 300.5 190.4V190.5Z" fill="#101720"/>
<path d="M237.3 148.9C237.1 148.9 237 148.7 237.1 148.6L238.6 139.4C238.6 139.2 238.8 139.1 238.9 139.2C239.1 139.2 239.2 139.4 239.1 139.5L237.6 148.7C237.6 148.8 237.4 149 237.3 149V148.9Z" fill="#101720"/>
<path d="M189.1 168.4C189.1 168.4 194.3 174.2 194.6 174.9C194.9 175.6 193.2 178 193.2 178L199 175.1L189.8 167.6L189.1 168.4Z" fill="#101720"/>
<path d="M280.1 276.4L275.1 275.1L272.1 253.4L280.1 276.4Z" fill="#101720"/>
<path d="M280.1 276.7L275.2 275.4C275.1 275.4 275 275.3 275 275.2L272 253.5C272 253.3 272 253.2 272.2 253.2C272.3 253.2 272.5 253.2 272.6 253.4L280.6 276.3C280.6 276.4 280.6 276.5 280.6 276.6C280.6 276.6 280.5 276.6 280.4 276.6L280.1 276.7ZM275.4 274.9L279.6 276L272.8 256.5L275.4 274.9Z" fill="#101720"/>
<path d="M272.1 253.7C272 253.7 271.8 253.6 271.8 253.4L269.5 236.9C269.5 236.7 269.5 236.6 269.8 236.6C270 236.6 270.1 236.6 270.1 236.9L272.4 253.4C272.4 253.6 272.4 253.7 272.1 253.7Z" fill="#101720"/>
<path d="M272.1 253.7C271.9 253.7 271.8 253.6 271.8 253.4C271.8 253.2 271.9 253.1 272.1 253.1C272.3 253.1 272.4 253.2 272.4 253.4C272.4 253.6 272.3 253.7 272.1 253.7Z" fill="#101720"/>
<path d="M317.4 243.4C311.4 249.6 302.7 251.8 294.4 253.2C293.8 253.3 294 254.3 294.7 254.2C303.2 252.9 312 250.5 318.2 244.2C318.7 243.7 317.9 243 317.5 243.5L317.4 243.4Z" fill="#008FB1"/>
<path d="M239.4 198.4C234.8 199 230.5 201.7 227.8 205.5C227.4 206 228.3 206.5 228.7 206C231.3 202.4 235.3 199.9 239.7 199.3C240.3 199.3 240.1 198.2 239.4 198.3V198.4Z" fill="#008FB1"/>
<path d="M204.4 195.2C200.8 196.3 197.2 197.4 194 199.5C193.5 199.9 194 200.7 194.5 200.4C197.6 198.4 201.1 197.3 204.6 196.2C205.2 196 205 195.1 204.3 195.2H204.4Z" fill="#008FB1"/>
<path d="M198.4 238.4C195.8 241.9 193.3 245.5 190.7 248.9C190.4 249.3 190.1 249.8 189.7 250.2L189.4 250L188.9 249.6C189.3 249.1 189.7 248.6 190.1 248.1C190.6 247.4 191.1 246.7 191.6 246C193.6 243.3 195.5 240.6 197.5 237.9C197.9 237.4 198.7 237.9 198.4 238.4Z" fill="#008FB1"/>
<path d="M393.501 231.8H323.101V276.4H393.501V231.8Z" fill="#8FDCE8"/>
<path d="M393.6 276.7H323.2C323 276.7 322.9 276.6 322.9 276.4V231.8C322.9 231.6 323 231.5 323.2 231.5H393.6C393.8 231.5 393.9 231.6 393.9 231.8V276.4C393.9 276.6 393.8 276.7 393.6 276.7ZM323.4 276.1H393.2V232.1H323.4V276.1Z" fill="#101720"/>
<path d="M358.3 257.2C358.3 257.2 358.2 257.2 358.1 257.2L322.9 232.1C322.8 232.1 322.7 231.8 322.9 231.7C322.9 231.6 323.2 231.5 323.3 231.7L358.3 256.6L393.3 231.7C393.4 231.7 393.6 231.7 393.7 231.7C393.7 231.8 393.7 232 393.7 232.1L358.5 257.2C358.5 257.2 358.4 257.2 358.3 257.2Z" fill="#101720"/>
<path d="M393.6 276.7C393.6 276.7 393.5 276.7 393.4 276.7L363.9 253.2C363.8 253.1 363.7 252.9 363.9 252.8C364 252.7 364.2 252.6 364.3 252.8L393.8 276.3C393.9 276.4 394 276.6 393.8 276.7C393.8 276.7 393.7 276.8 393.6 276.8V276.7Z" fill="#101720"/>
<path d="M323.1 276.7C323.1 276.7 322.9 276.7 322.9 276.6C322.8 276.5 322.9 276.3 322.9 276.2L352.4 252.7C352.5 252.6 352.7 252.7 352.8 252.7C352.9 252.8 352.8 253 352.8 253.1L323.3 276.6C323.3 276.6 323.2 276.6 323.1 276.6V276.7Z" fill="#101720"/>
<path d="M454.8 159.5H384.4V204.1H454.8V159.5Z" fill="#8FDCE8"/>
<path d="M454.9 204.4H384.5C384.3 204.4 384.2 204.3 384.2 204.1V159.5C384.2 159.3 384.3 159.2 384.5 159.2H454.9C455.1 159.2 455.2 159.3 455.2 159.5V204.1C455.2 204.3 455.1 204.4 454.9 204.4ZM384.7 203.8H454.5V159.8H384.7V203.8Z" fill="#101720"/>
<path d="M419.7 184.9C419.7 184.9 419.6 184.9 419.5 184.9L384.3 159.8C384.2 159.8 384.1 159.5 384.3 159.4C384.3 159.3 384.6 159.2 384.7 159.4L419.7 184.3L454.7 159.4C454.8 159.4 455 159.4 455.1 159.4C455.1 159.5 455.1 159.7 455.1 159.8L419.9 184.9C419.9 184.9 419.8 184.9 419.7 184.9Z" fill="#101720"/>
<path d="M454.9 204.4C454.9 204.4 454.8 204.4 454.7 204.4L425.2 180.9C425.1 180.8 425 180.6 425.2 180.5C425.3 180.4 425.5 180.3 425.6 180.5L455.1 204C455.2 204.1 455.3 204.3 455.1 204.4C455.1 204.4 455 204.5 454.9 204.5V204.4Z" fill="#101720"/>
<path d="M384.4 204.4C384.4 204.4 384.2 204.4 384.2 204.3C384.1 204.2 384.2 204 384.2 203.9L413.8 180.4C413.9 180.3 414.1 180.4 414.2 180.4C414.3 180.5 414.2 180.7 414.2 180.8L384.6 204.3C384.6 204.3 384.5 204.3 384.4 204.3V204.4Z" fill="#101720"/>
<path d="M176.7 211.7H106.3V256.3H176.7V211.7Z" fill="#8FDCE8"/>
<path d="M176.8 256.6H106.4C106.2 256.6 106.1 256.5 106.1 256.3V211.7C106.1 211.5 106.2 211.4 106.4 211.4H176.8C177 211.4 177.1 211.5 177.1 211.7V256.3C177.1 256.5 177 256.6 176.8 256.6ZM106.6 256H176.4V212H106.6V256Z" fill="#101720"/>
<path d="M141.6 237.1C141.6 237.1 141.5 237.1 141.4 237.1L106.2 212C106.1 212 106 211.7 106.2 211.6C106.2 211.5 106.5 211.4 106.6 211.6L141.6 236.5L176.6 211.6C176.7 211.6 176.9 211.6 177 211.6C177 211.7 177 211.9 177 212L141.8 237.1C141.8 237.1 141.7 237.1 141.6 237.1Z" fill="#101720"/>
<path d="M176.8 256.6C176.8 256.6 176.7 256.6 176.6 256.6L147.1 233.1C147 233 146.9 232.8 147.1 232.7C147.2 232.6 147.4 232.5 147.5 232.7L177 256.2C177.1 256.3 177.2 256.5 177 256.6C177 256.6 176.9 256.7 176.8 256.7V256.6Z" fill="#101720"/>
<path d="M106.3 256.6C106.3 256.6 106.1 256.6 106.1 256.5C106 256.4 106.1 256.2 106.1 256.1L135.7 232.6C135.8 232.5 136 232.6 136.1 232.6C136.2 232.7 136.1 232.9 136.1 233L106.5 256.5C106.5 256.5 106.4 256.5 106.3 256.5V256.6Z" fill="#101720"/>
<path d="M366.3 112.4L406.5 86.5999L365.2 98.1999L366.3 112.4Z" fill="#008EB1"/>
<path d="M366.3 112.7C366.3 112.7 366.3 112.7 366.2 112.7C366.2 112.7 366 112.6 366 112.5L364.9 98.3999C364.9 98.2999 364.9 98.0999 365.1 98.0999L406.4 86.3999C406.5 86.3999 406.7 86.3999 406.8 86.5999C406.8 86.6999 406.8 86.8999 406.7 86.9999L366.5 112.8C366.5 112.8 366.4 112.8 366.3 112.8V112.7ZM365.5 98.4999L366.5 111.9L404.6 87.3999L365.4 98.4999H365.5Z" fill="#101720"/>
<path d="M406.5 86.6001L374.2 102.8L393.2 112.4L406.5 86.6001Z" fill="#FF9C0F"/>
<path d="M393.2 112.7C393.2 112.7 393.2 112.7 393.1 112.7L374.1 103.1C374 103.1 373.9 102.9 373.9 102.8C373.9 102.7 373.9 102.6 374.1 102.5L406.3 86.3C406.4 86.3 406.6 86.3 406.6 86.3C406.6 86.3 406.7 86.5 406.6 86.6L393.3 112.4C393.3 112.5 393.1 112.6 393 112.6L393.2 112.7ZM374.9 102.8L393.1 112L405.8 87.3L374.9 102.8Z" fill="#101720"/>
<path d="M406.5 86.5999L365.2 98.1999L349.3 91.7999L406.5 86.5999Z" fill="#FF9C0F"/>
<path d="M365.2 98.5C365.2 98.5 365.2 98.5 365.1 98.5L349.3 92.1C349.2 92.1 349.1 91.9 349.1 91.8C349.1 91.7 349.2 91.6 349.4 91.5L406.6 86.2C406.8 86.2 406.9 86.2 406.9 86.4C406.9 86.6 406.9 86.7 406.7 86.7L365.4 98.4L365.2 98.5ZM350.6 92L365.2 97.9L403.3 87.1L350.6 92Z" fill="#101720"/>
<path d="M374.2 102.8L366.3 112.4L365.2 98.2001L406.5 86.6001L374.2 102.8Z" fill="#8FDCE8"/>
<path d="M366.3 112.7C366.2 112.7 366.1 112.6 366.1 112.4L365 98.3C365 98.2 365 98 365.2 98L406.5 86.3C406.6 86.3 406.8 86.3 406.9 86.5C406.9 86.6 406.9 86.8 406.8 86.9L374.6 103.1L366.6 112.7C366.6 112.7 366.5 112.8 366.4 112.8L366.3 112.7ZM365.5 98.5L366.5 111.7L374 102.6L403.4 87.8L365.3 98.6L365.5 98.5Z" fill="#101720"/>
</svg>
